<?xml version="1.0" encoding="utf-8"?>
<!-- Generator: Adobe Illustrator 25.0.0, SVG Export Plug-In . SVG Version: 6.00 Build 0)  -->
<svg version="1.1" id="Fond" xmlns="http://www.w3.org/2000/svg" xmlns:xlink="http://www.w3.org/1999/xlink" x="0px" y="0px"
	 viewBox="0 0 48 48" style="enable-background:new 0 0 48 48;" xml:space="preserve">
<style type="text/css">
	.st0{fill:#00FF00;}
</style>
<g>
	<path class="st0" d="M6.6,39.7h34.8V13.5H6.6V39.7z M32.6,18.7c0.8,0,1.5,0.5,1.7,1.2l3.5,10.5c0,0,0,0,0,0
		c0.3,0.9-0.2,1.9-1.1,2.2c-0.9,0.3-1.9-0.2-2.2-1.1l-3.5-10.5C31,20.9,31,20.7,31,20.6C30.9,19.6,31.7,18.8,32.6,18.7z M25.7,20.5
		c1,0,1.7,0.8,1.7,1.7c0,1-0.8,1.7-1.7,1.7c-1,0-1.7-0.8-1.7-1.7C24,21.3,24.8,20.5,25.7,20.5z M25.7,27.5c1,0,1.7,0.8,1.7,1.7
		c0,1-0.8,1.7-1.7,1.7c-1,0-1.7-0.8-1.7-1.7C24,28.3,24.8,27.5,25.7,27.5z M10.1,24c0-2.9,2.4-5.2,5.2-5.2c2.9,0,5.2,2.4,5.2,5.2H17
		c0-1-0.8-1.7-1.7-1.7c-1,0-1.7,0.8-1.7,1.7v3.5c0,1,0.8,1.7,1.7,1.7c1,0,1.7-0.8,1.7-1.7h3.5c0,2.9-2.4,5.2-5.2,5.2
		c-2.9,0-5.2-2.4-5.2-5.2V24z"/>
	<path class="st0" d="M42,0L42,0H6C2.7,0,0,2.7,0,6v36c0,3.3,2.7,6,6,6h36c3.3,0,6-2.7,6-6V6C48,2.7,45.3,0,42,0z M44.9,11.8v29.6
		c0,1-0.8,1.7-1.7,1.7H4.8c-1,0-1.7-0.8-1.7-1.7V13.5V8.3c0-1.9,1.6-3.5,3.5-3.5h34.8c1.9,0,3.5,1.6,3.5,3.5V11.8z"/>
</g>
</svg>
