<?xml version="1.0" encoding="utf-8"?>
<!-- Generator: Adobe Illustrator 25.0.0, SVG Export Plug-In . SVG Version: 6.00 Build 0)  -->
<svg version="1.1" id="Fond" xmlns="http://www.w3.org/2000/svg" xmlns:xlink="http://www.w3.org/1999/xlink" x="0px" y="0px"
	 viewBox="0 0 48 48" style="enable-background:new 0 0 48 48;" xml:space="preserve">
<style type="text/css">
	.st0{display:none;}
	.st1{display:inline;fill:#FFFFFF;}
	.st2{display:inline;}
	.st3{fill:#FFFFFF;}
	.st4{display:none;fill:#FFFFFF;}
	.st5{fill:#00FF00;}
</style>
<g class="st0">
	<path class="st1" d="M26.2,28.1c0-6.6,0-23,0-23c0-1.1-0.8-1.9-1.9-1.9c0,0,0,0-0.1,0c-1,0-1.9,0.9-1.9,1.9l0,25.7c0,0,0,1.1,0,2.3
		c0.9,0.5,19.6,7,19.7,7c0.9,0.5,2.1,0.1,2.5-0.9c0.5-1,0.1-2.1-0.9-2.5l-17.6-5.8C26.2,30.8,26.2,29.8,26.2,28.1z"/>
	<g class="st2">
		<path class="st3" d="M8.1,36c0.3,0,0.5,0.2,0.7,0.3C8.9,36.5,9,36.8,9,37.1L8.5,41l1.5,2.9c0.1,0.2,0.2,0.5,0.1,0.7
			C10,44.8,9.9,45,9.6,45.1c-0.2,0.1-0.5,0.1-0.7,0.1c-0.2-0.1-0.4-0.2-0.6-0.5l-1.5-2.9l-3.5-1.8c-0.2-0.1-0.4-0.3-0.5-0.6
			s-0.1-0.5,0-0.7c0.1-0.2,0.3-0.4,0.6-0.5c0.2-0.1,0.5-0.1,0.7,0.1l2.6,1.3l0.3-2.9c0-0.3,0.1-0.5,0.3-0.6C7.6,36,7.9,36,8.1,36z"
			/>
		<path class="st3" d="M15,35.3c0.1,0.2,0.1,0.5,0.1,0.7s-0.2,0.4-0.4,0.5l-3.1,1.6c-0.2,0.1-0.5,0.1-0.7,0.1
			c-0.2-0.1-0.4-0.2-0.5-0.5c-0.1-0.2-0.1-0.5-0.1-0.7s0.2-0.4,0.5-0.6l3.1-1.6c0.2-0.1,0.5-0.1,0.7-0.1S14.9,35,15,35.3z
			 M16.1,37.4c0.1,0.2,0.1,0.5,0.1,0.7c-0.1,0.2-0.2,0.4-0.4,0.5l-3.1,1.6c-0.2,0.1-0.5,0.1-0.7,0.1c-0.2-0.1-0.4-0.2-0.5-0.4
			c-0.1-0.2-0.1-0.5-0.1-0.7s0.2-0.4,0.5-0.6l3.1-1.6c0.2-0.1,0.5-0.1,0.7-0.1C15.8,37,16,37.2,16.1,37.4z"/>
		<path class="st3" d="M16.8,31.1c0.3-0.2,0.7-0.3,1.1-0.3c0.4,0,0.7,0,1.1,0.1c0.3,0.1,0.7,0.3,1,0.5c0.3,0.2,0.5,0.5,0.7,0.9
			l1.6,2.9c0.2,0.3,0.3,0.7,0.3,1.1c0,0.4,0,0.7-0.1,1.1c-0.1,0.3-0.3,0.7-0.5,1c-0.2,0.3-0.5,0.5-0.9,0.7c-0.3,0.2-0.7,0.3-1.1,0.3
			c-0.4,0-0.7,0-1.1-0.1s-0.7-0.3-1-0.5s-0.5-0.5-0.7-0.9l-1.6-2.9c-0.2-0.3-0.3-0.7-0.3-1.1c0-0.4,0-0.7,0.1-1.1s0.3-0.7,0.5-1
			S16.4,31.3,16.8,31.1z M19,33.2c-0.1-0.2-0.3-0.4-0.6-0.5c-0.2-0.1-0.5-0.1-0.7,0.1s-0.4,0.3-0.5,0.6c-0.1,0.3-0.1,0.5,0.1,0.7
			l1.6,2.9c0.1,0.2,0.3,0.4,0.6,0.5c0.3,0.1,0.5,0.1,0.7-0.1c0.2-0.1,0.4-0.3,0.5-0.6c0.1-0.3,0-0.5-0.1-0.7L19,33.2z"/>
	</g>
</g>
<path class="st4" d="M24.2,27.3c0-6.6,0-22.1,0-22.1c0-1.1,0.8-1.9,1.9-1.9c0,0,0,0,0.1,0c1.1,0,1.9,0.9,1.9,1.9V30c0,0,0,1.1,0,2.3
	c-1,0.5-22.7,7.9-22.7,7.9c-0.9,0.5-2.1,0.1-2.5-0.9c-0.5-1-0.1-2.1,0.9-2.6L24.2,30C24.2,30,24.2,28.9,24.2,27.3z"/>
<g class="st0">
	<path class="st1" d="M31,38.7c-0.2,0.2-0.4,0.3-0.7,0.3c-0.3,0-0.5-0.1-0.7-0.3c-0.2-0.2-0.3-0.4-0.3-0.7l0-2.9l-2.8,1
		c-0.2,0.1-0.5,0.1-0.7,0c-0.2-0.1-0.4-0.3-0.5-0.5c-0.1-0.1-0.1-0.3-0.1-0.4c0-0.1,0-0.2,0.1-0.4c0-0.1,0.1-0.2,0.2-0.3
		c0.1-0.1,0.2-0.2,0.3-0.2l3.4-1.3l0-3.6c0-0.3,0.1-0.5,0.3-0.7c0.2-0.2,0.4-0.3,0.7-0.3c0.3,0,0.5,0.1,0.7,0.3
		c0.2,0.2,0.3,0.4,0.3,0.7l0,2.9l2.7-1c0.3-0.1,0.5-0.1,0.7,0s0.4,0.3,0.5,0.5c0.1,0.3,0.1,0.5,0,0.7c-0.1,0.2-0.3,0.4-0.5,0.5
		l-3.4,1.3l0,3.6C31.3,38.3,31.2,38.6,31,38.7z"/>
	<path class="st1" d="M37.8,39.8c-0.1,0.2-0.3,0.3-0.6,0.4c-0.3,0-0.5,0-0.7-0.1l-2.9-2c-0.2-0.1-0.3-0.3-0.4-0.6
		c0-0.3,0-0.5,0.2-0.7s0.3-0.3,0.6-0.4c0.2,0,0.5,0,0.7,0.1l2.9,2c0.2,0.1,0.3,0.3,0.4,0.6C38,39.4,37.9,39.6,37.8,39.8z M39.1,37.8
		c-0.1,0.2-0.3,0.3-0.6,0.4c-0.3,0-0.5,0-0.7-0.1l-2.9-2c-0.2-0.1-0.3-0.3-0.4-0.6c0-0.3,0-0.5,0.2-0.7s0.3-0.3,0.6-0.4
		c0.2,0,0.5,0,0.7,0.1l2.9,2c0.2,0.1,0.3,0.3,0.4,0.6C39.3,37.4,39.3,37.6,39.1,37.8z"/>
	<path class="st1" d="M43.7,37.5c0.3,0.2,0.6,0.5,0.8,0.8s0.3,0.7,0.4,1c0.1,0.4,0.1,0.7,0,1.1s-0.2,0.7-0.4,1l-1.9,2.8
		c-0.2,0.3-0.5,0.6-0.8,0.8c-0.3,0.2-0.7,0.3-1,0.4c-0.4,0.1-0.7,0.1-1.1,0c-0.4-0.1-0.7-0.2-1-0.4c-0.3-0.2-0.6-0.5-0.8-0.8
		c-0.2-0.3-0.3-0.7-0.4-1c-0.1-0.4-0.1-0.7,0-1.1s0.2-0.7,0.4-1l1.9-2.8c0.2-0.3,0.5-0.6,0.8-0.8c0.3-0.2,0.7-0.3,1-0.4
		s0.7-0.1,1.1,0C43,37.1,43.4,37.3,43.7,37.5z M42.9,40.4c0.2-0.2,0.2-0.5,0.2-0.7c0-0.3-0.2-0.5-0.4-0.6c-0.2-0.2-0.5-0.2-0.7-0.2
		c-0.3,0-0.5,0.2-0.6,0.4L39.4,42c-0.2,0.2-0.2,0.5-0.2,0.7c0,0.3,0.2,0.5,0.4,0.6c0.2,0.2,0.5,0.2,0.7,0.2c0.3-0.1,0.5-0.2,0.6-0.4
		L42.9,40.4z"/>
</g>
<g>
	<path class="st5" d="M22.5,9.7h3.4c0.3,0,0.5-0.1,0.7-0.3s0.3-0.4,0.3-0.7S26.8,8.2,26.6,8c-0.2-0.2-0.4-0.3-0.7-0.3h-3.4
		c-0.3,0-0.5,0.1-0.7,0.3c-0.2,0.2-0.3,0.4-0.3,0.7s0.1,0.5,0.3,0.7C22,9.6,22.2,9.7,22.5,9.7z"/>
	<path class="st5" d="M42,0L42,0H6C2.7,0,0,2.7,0,6v36c0,3.3,2.7,6,6,6h36c3.3,0,6-2.7,6-6V6C48,2.7,45.3,0,42,0z M19.8,7.6
		c0.1-0.3,0.4-0.7,0.6-0.9c0.3-0.3,0.6-0.5,0.9-0.6c0.3-0.2,0.7-0.2,1.1-0.2h3.4c0.4,0,0.8,0.1,1.1,0.2c0.3,0.2,0.7,0.4,0.9,0.6
		c0.3,0.3,0.5,0.6,0.6,0.9c0.2,0.3,0.2,0.7,0.2,1.1c0,0.4-0.1,0.8-0.2,1.1c-0.2,0.3-0.4,0.7-0.6,0.9c-0.3,0.3-0.6,0.5-0.9,0.6
		c-0.3,0.1-0.7,0.2-1.1,0.2h-3.4c-0.4,0-0.8-0.1-1.1-0.2c-0.3-0.1-0.7-0.4-0.9-0.6c-0.3-0.3-0.5-0.6-0.6-0.9
		c-0.1-0.3-0.2-0.7-0.2-1.1C19.6,8.3,19.7,7.9,19.8,7.6z M25.9,13.3v3.5c0,0.3-0.1,0.5-0.3,0.7s-0.4,0.3-0.7,0.3s-0.5-0.1-0.7-0.3
		S24,17.1,24,16.8v-3.5c0-0.3,0.1-0.5,0.3-0.7c0.2-0.2,0.4-0.3,0.7-0.3s0.5,0.1,0.7,0.3C25.8,12.8,25.9,13,25.9,13.3z M23.4,13.3
		v3.5c0,0.3-0.1,0.5-0.3,0.7s-0.4,0.3-0.7,0.3c-0.3,0-0.5-0.1-0.7-0.3c-0.2-0.2-0.3-0.4-0.3-0.7v-3.5c0-0.3,0.1-0.5,0.3-0.7
		c0.2-0.2,0.4-0.3,0.7-0.3c0.3,0,0.5,0.1,0.7,0.3C23.3,12.8,23.4,13,23.4,13.3z M19.6,19.8c0-0.2,0.1-0.3,0.2-0.5
		c0.1-0.1,0.2-0.3,0.4-0.3c0.1-0.1,0.3-0.1,0.5-0.1s0.4,0.1,0.5,0.2l5.7,3.6v-2.8c0-0.3,0.1-0.5,0.3-0.7c0.2-0.2,0.4-0.3,0.7-0.3
		c0.3,0,0.5,0.1,0.7,0.3s0.3,0.4,0.3,0.7v4.6c0,0.2-0.1,0.4-0.2,0.5s-0.2,0.3-0.4,0.3s-0.3,0.1-0.5,0.1c-0.2,0-0.3,0-0.5-0.1l0,0
		l-5.7-3.6v2.8c0,0.3-0.1,0.5-0.3,0.7c-0.2,0.2-0.4,0.3-0.7,0.3c-0.3,0-0.5-0.1-0.7-0.3s-0.3-0.4-0.3-0.7V19.8z M45.2,40.6
		c-0.5,0.8-1.6,1.1-2.5,0.6C42.8,41.2,24,31,24,31C23.7,31.1,5.2,41.2,5.2,41.2c0,0-0.1,0.1-0.1,0.1c-0.9,0.4-2,0.1-2.4-0.8
		c-0.4-0.9-0.1-2,0.8-2.4l18.7-10.2c0,0,0.9-0.5,1.8-1c0.9,0.5,1.8,1,1.8,1l18.7,10.2c0,0,0.1,0.1,0.1,0.1
		C45.5,38.7,45.8,39.8,45.2,40.6z"/>
</g>
</svg>
