<?xml version="1.0" encoding="utf-8"?>
<!-- Generator: Adobe Illustrator 25.0.0, SVG Export Plug-In . SVG Version: 6.00 Build 0)  -->
<svg version="1.1" id="Fond" xmlns="http://www.w3.org/2000/svg" xmlns:xlink="http://www.w3.org/1999/xlink" x="0px" y="0px"
	 viewBox="0 0 48 48" style="enable-background:new 0 0 48 48;" xml:space="preserve">
<style type="text/css">
	.st0{fill:#00FF00;}
</style>
<g>
	<path class="st0" d="M35.9,21.6H35v2.5h0.9c0.8,0,1.3-0.4,1.3-1.3C37.2,22,36.7,21.6,35.9,21.6z"/>
	<path class="st0" d="M33.3,6.3c-0.9-0.9-2.1-1.4-3.4-1.4H18.1c-1.3,0-2.5,0.5-3.4,1.4l-8.4,8.4c-0.9,0.9-1.4,2.1-1.4,3.4v11.9
		c0,1.3,0.5,2.5,1.4,3.4l8.4,8.4c0.9,0.9,2.1,1.4,3.4,1.4h11.9c1.3,0,2.5-0.5,3.4-1.4l8.4-8.4c0.9-0.9,1.4-2.1,1.4-3.4V18.1
		c0-1.3-0.5-2.5-1.4-3.4L33.3,6.3z M12,28.1c-2,0-3.2-0.9-3.3-2.5h1.9c0,0.6,0.6,0.9,1.4,0.9c0.7,0,1.3-0.4,1.3-0.9
		c0-0.4-0.3-0.7-1.2-0.8l-1-0.2c-1.4-0.3-2.2-1.1-2.2-2.3c0-1.5,1.2-2.5,3.1-2.5c1.8,0,3.1,1,3.1,2.5h-1.8c0-0.6-0.6-0.9-1.3-0.9
		c-0.7,0-1.2,0.3-1.2,0.9c0,0.4,0.3,0.7,1.2,0.8l1,0.2c1.6,0.3,2.2,1,2.2,2.2C15.3,27.1,14.1,28.1,12,28.1z M22.9,21.7h-2.3v6.2h-2
		v-6.2h-2.3v-1.6h6.5V21.7z M27.6,28.1c-2.4,0-3.9-1.6-3.9-4.1c0-2.6,1.5-4.1,3.9-4.1c2.4,0,3.9,1.6,3.9,4.1
		C31.5,26.6,30,28.1,27.6,28.1z M36.3,25.6H35v2.3h-2v-7.9h3.4c1.7,0,2.8,1.1,2.8,2.8C39.2,24.5,38,25.6,36.3,25.6z"/>
	<path class="st0" d="M27.6,21.5c-1.1,0-1.8,1-1.8,2.5c0,1.5,0.7,2.5,1.8,2.5c1.1,0,1.8-1,1.8-2.5C29.5,22.5,28.7,21.5,27.6,21.5z"
		/>
	<path class="st0" d="M42,0L42,0H6C2.7,0,0,2.7,0,6v36c0,3.3,2.7,6,6,6h36c3.3,0,6-2.7,6-6V6C48,2.7,45.3,0,42,0z M45.3,30.6
		c0,1.4-0.6,2.8-1.6,3.8l-9.4,9.4c-1,1-2.3,1.6-3.8,1.6H17.4c-1.4,0-2.8-0.6-3.8-1.6l-9.4-9.4c-1-1-1.6-2.3-1.6-3.8V17.4
		c0-1.4,0.6-2.8,1.6-3.8l9.4-9.4c1-1,2.3-1.6,3.8-1.6h13.3c1.4,0,2.8,0.6,3.8,1.6l9.4,9.4c1,1,1.6,2.3,1.6,3.8V30.6z"/>
</g>
</svg>
