<?xml version="1.0" encoding="utf-8"?>
<!-- Generator: Adobe Illustrator 25.0.0, SVG Export Plug-In . SVG Version: 6.00 Build 0)  -->
<svg version="1.1" xmlns="http://www.w3.org/2000/svg" xmlns:xlink="http://www.w3.org/1999/xlink" x="0px" y="0px"
	 viewBox="0 0 48 48" style="enable-background:new 0 0 48 48;" xml:space="preserve">
<style type="text/css">
	.st0{display:none;}
	.st1{display:inline;}
	.st2{fill:#00FF00;}
</style>
<g id="_x31_0_1_" class="st0">
	<g class="st1">
		<path class="st2" d="M12.7,37.7c-1.4,0-2.6,1.2-2.6,2.6c0,1.4,1.2,2.6,2.6,2.6c1.4,0,2.6-1.2,2.6-2.6
			C15.3,38.9,14.1,37.7,12.7,37.7z"/>
		<circle class="st2" cx="35.5" cy="40.3" r="2.6"/>
		<path class="st2" d="M24,7.9c1.4,0,2.6-1.2,2.6-2.6S25.4,2.7,24,2.7c-1.4,0-2.6,1.2-2.6,2.6S22.5,7.9,24,7.9z"/>
		<path class="st2" d="M42,0L42,0H6C2.7,0,0,2.7,0,6v36c0,3.3,2.7,6,6,6h36c3.3,0,6-2.7,6-6V6C48,2.7,45.3,0,42,0z M29,5
			C29,5,29,4.9,29,5c0.1-0.3,0.3-0.5,0.6-0.4c3.4,0.9,6.4,2.7,8.9,5.1l1-1c0.1-0.1,0.2-0.1,0.3-0.1c0.3,0,0.5,0.2,0.5,0.5l0.1,4.7
			c0,0,0,0,0,0.1c0,0.3-0.3,0.4-0.5,0.4l-4.1-0.5c-0.1,0-0.2-0.1-0.3-0.1c-0.2-0.2-0.2-0.5,0-0.7l1.1-1.2c-2.1-2.1-4.7-3.6-7.6-4.4
			c-0.2-0.1-0.4-0.3-0.3-0.5L29,5z M29.3,20c0.3,0.3,0.5,0.6,0.7,1c0.2,0.4,0.2,0.8,0.2,1.2v3.6c0,0.4-0.1,0.8-0.2,1.2
			s-0.4,0.7-0.7,1c-0.3,0.3-0.6,0.5-1,0.7s-0.8,0.2-1.2,0.2c-0.4,0-0.8-0.1-1.2-0.2c-0.4-0.2-0.7-0.4-1-0.7c-0.3-0.3-0.5-0.6-0.7-1
			c-0.2-0.4-0.2-0.8-0.2-1.2v-3.6c0-0.4,0.1-0.8,0.2-1.2c0.2-0.4,0.4-0.7,0.7-1c0.3-0.3,0.6-0.5,1-0.7c0.4-0.2,0.8-0.2,1.2-0.2
			c0.4,0,0.8,0.1,1.2,0.2C28.7,19.5,29,19.7,29.3,20z M24,1c2.3,0,4.3,1.9,4.3,4.3S26.3,9.5,24,9.5c-2.3,0-4.3-1.9-4.3-4.3
			S21.6,1,24,1z M5.6,14.4c2.3,0,4.3,1.9,4.3,4.3S7.9,23,5.6,23c-2.3,0-4.3-1.9-4.3-4.3S3.2,14.4,5.6,14.4z M7.8,37.6
			c-2.2-2.7-3.6-6-4.2-9.4l-1.4,0.3c-0.1,0-0.3,0-0.4-0.1c-0.2-0.1-0.3-0.4-0.1-0.7l2.7-3.9c0,0,0,0,0,0c0.2-0.2,0.5-0.2,0.7,0
			l3,2.8c0.1,0.1,0.1,0.2,0.1,0.3c0,0.3-0.1,0.5-0.4,0.6l-1.6,0.3c0.5,2.9,1.7,5.7,3.5,8c0.1,0.2,0.1,0.5,0,0.6l-1.3,1.3
			c0,0,0,0,0,0C8.2,37.8,7.9,37.8,7.8,37.6z M12.7,44.6c-2.3,0-4.3-1.9-4.3-4.3s1.9-4.3,4.3-4.3c2.3,0,4.3,1.9,4.3,4.3
			S15,44.6,12.7,44.6z M16.5,10.1l-0.8-1.4c-2.6,1.4-4.9,3.4-6.5,5.8c-0.1,0.2-0.4,0.3-0.6,0.2l-1.7-0.9c0,0,0,0,0,0
			c-0.2-0.1-0.3-0.4-0.1-0.7c1.9-2.9,4.6-5.3,7.6-6.9L13.7,5c-0.1-0.1-0.1-0.2,0-0.4c0.1-0.2,0.3-0.4,0.6-0.3l4.5,1.4c0,0,0,0,0.1,0
			C19,5.8,19.1,6.1,19,6.3l-1.7,3.7c0,0.1-0.1,0.2-0.2,0.2C16.9,10.4,16.6,10.4,16.5,10.1z M17.3,21.8l2.4-2.4
			c0.2-0.2,0.5-0.3,0.7-0.3c0.3,0,0.5,0.1,0.7,0.3c0.1,0.1,0.2,0.3,0.2,0.4c0,0.2,0.1,0.3,0.1,0.5v6.6h1c0.3,0,0.5,0.1,0.7,0.3
			c0.2,0.2,0.3,0.4,0.3,0.7c0,0.3-0.1,0.5-0.3,0.7c-0.2,0.2-0.4,0.3-0.7,0.3h-4.1c-0.3,0-0.5-0.1-0.7-0.3c-0.2-0.2-0.3-0.4-0.3-0.7
			c0-0.3,0.1-0.5,0.3-0.7c0.2-0.2,0.4-0.3,0.7-0.3h1.1v-4.3l-0.6,0.6c-0.2,0.2-0.4,0.3-0.7,0.3c-0.3,0-0.5-0.1-0.7-0.3
			C17.1,23,17,22.8,17,22.5C17,22.2,17.1,22,17.3,21.8z M31.3,44.1c-3.3,1.2-6.8,1.6-10.3,1.1l-0.2,1.4c0,0.1-0.1,0.2-0.2,0.3
			c-0.2,0.2-0.5,0.1-0.7-0.1L17.2,43c0,0,0,0,0-0.1c-0.1-0.2,0-0.5,0.2-0.6l3.6-2c0.1-0.1,0.2-0.1,0.3-0.1c0.3,0,0.4,0.3,0.4,0.5
			l-0.2,1.6c2.9,0.4,5.9,0.1,8.7-0.9c0.2-0.1,0.5,0,0.6,0.2l0.9,1.7c0,0,0,0,0,0C31.7,43.7,31.5,44,31.3,44.1z M35.5,44.5
			c-2.3,0-4.3-1.9-4.3-4.3s1.9-4.3,4.3-4.3c2.3,0,4.3,1.9,4.3,4.3S37.8,44.5,35.5,44.5z M43.9,34.4c0.1,0.1,0.2,0.2,0.2,0.3
			c0.1,0.2,0,0.5-0.3,0.6l-4.5,1.6c0,0,0,0-0.1,0c-0.3,0.1-0.5-0.1-0.6-0.4l-0.8-4c0-0.1,0-0.2,0-0.3c0.1-0.2,0.4-0.3,0.6-0.2
			l1.5,0.7c1.3-2.7,2-5.6,1.9-8.6c0-0.2,0.2-0.4,0.4-0.5l1.9-0.3c0,0,0,0,0.1,0c0.3,0,0.5,0.2,0.5,0.5c0.2,3.5-0.6,7-2.1,10.1
			L43.9,34.4z M42.4,22.8c-2.3,0-4.3-1.9-4.3-4.3s1.9-4.3,4.3-4.3s4.3,1.9,4.3,4.3S44.8,22.8,42.4,22.8z"/>
		<circle class="st2" cx="42.4" cy="18.6" r="2.6"/>
		<path class="st2" d="M26.4,21.4c-0.2,0.2-0.3,0.5-0.3,0.8v3.6c0,0.3,0.1,0.5,0.3,0.8c0.2,0.2,0.5,0.3,0.8,0.3
			c0.3,0,0.5-0.1,0.7-0.3c0.2-0.2,0.3-0.5,0.3-0.8v-3.6c0-0.3-0.1-0.5-0.3-0.8c-0.2-0.2-0.4-0.3-0.7-0.3
			C26.8,21.1,26.6,21.2,26.4,21.4z"/>
	</g>
</g>
<g id="_x31__2_">
	<g>
		<circle class="st2" cx="35.5" cy="40.3" r="2.6"/>
		<path class="st2" d="M5.6,21.3c1.4,0,2.6-1.2,2.6-2.6S7,16.1,5.6,16.1c-1.4,0-2.6,1.2-2.6,2.6S4.2,21.3,5.6,21.3z"/>
		<circle class="st2" cx="42.4" cy="18.6" r="2.6"/>
		<path class="st2" d="M42,0L42,0H6C2.7,0,0,2.7,0,6v36c0,3.3,2.7,6,6,6h36c3.3,0,6-2.7,6-6V6C48,2.7,45.3,0,42,0z M29,5
			C29,5,29,4.9,29,5c0.1-0.3,0.3-0.5,0.6-0.4c3.4,0.9,6.4,2.7,8.9,5.1l1-1c0.1-0.1,0.2-0.1,0.3-0.1c0.3,0,0.5,0.2,0.5,0.5l0.1,4.7
			c0,0,0,0,0,0.1c0,0.3-0.3,0.4-0.5,0.4l-4.1-0.5c-0.1,0-0.2-0.1-0.3-0.1c-0.2-0.2-0.2-0.5,0-0.7l1.1-1.2c-2.1-2.1-4.7-3.6-7.6-4.4
			c-0.2-0.1-0.4-0.3-0.3-0.5L29,5z M24,1c2.3,0,4.3,1.9,4.3,4.3S26.3,9.5,24,9.5c-2.3,0-4.3-1.9-4.3-4.3S21.6,1,24,1z M22.5,23.2
			c-0.2,0.2-0.4,0.3-0.7,0.3c-0.3,0-0.5-0.1-0.7-0.3c-0.2-0.2-0.3-0.4-0.3-0.7c0-0.3,0.1-0.5,0.3-0.7l2.4-2.4
			c0.2-0.2,0.5-0.3,0.7-0.3c0.3,0,0.5,0.1,0.7,0.3c0.1,0.1,0.2,0.3,0.2,0.4c0,0.2,0.1,0.3,0.1,0.5v6.6h1c0.3,0,0.5,0.1,0.7,0.3
			c0.2,0.2,0.3,0.4,0.3,0.7c0,0.3-0.1,0.5-0.3,0.7c-0.2,0.2-0.4,0.3-0.7,0.3h-4.1c-0.3,0-0.5-0.1-0.7-0.3c-0.2-0.2-0.3-0.4-0.3-0.7
			c0-0.3,0.1-0.5,0.3-0.7c0.2-0.2,0.4-0.3,0.7-0.3h1.1v-4.3L22.5,23.2z M5.6,14.4c2.3,0,4.3,1.9,4.3,4.3S7.9,23,5.6,23
			c-2.3,0-4.3-1.9-4.3-4.3S3.2,14.4,5.6,14.4z M7.8,37.6c-2.2-2.7-3.6-6-4.2-9.4l-1.4,0.3c-0.1,0-0.3,0-0.4-0.1
			c-0.2-0.1-0.3-0.4-0.1-0.7l2.7-3.9c0,0,0,0,0,0c0.2-0.2,0.5-0.2,0.7,0l3,2.8c0.1,0.1,0.1,0.2,0.1,0.3c0,0.3-0.1,0.5-0.4,0.6
			l-1.6,0.3c0.5,2.9,1.7,5.7,3.5,8c0.1,0.2,0.1,0.5,0,0.6l-1.3,1.3c0,0,0,0,0,0C8.2,37.8,7.9,37.8,7.8,37.6z M12.7,44.6
			c-2.3,0-4.3-1.9-4.3-4.3s1.9-4.3,4.3-4.3c2.3,0,4.3,1.9,4.3,4.3S15,44.6,12.7,44.6z M16.5,10.1l-0.8-1.4c-2.6,1.4-4.9,3.4-6.5,5.8
			c-0.1,0.2-0.4,0.3-0.6,0.2l-1.7-0.9c0,0,0,0,0,0c-0.2-0.1-0.3-0.4-0.1-0.7c1.9-2.9,4.6-5.3,7.6-6.9L13.7,5c-0.1-0.1-0.1-0.2,0-0.4
			c0.1-0.2,0.3-0.4,0.6-0.3l4.5,1.4c0,0,0,0,0.1,0C19,5.8,19.1,6.1,19,6.3l-1.7,3.7c0,0.1-0.1,0.2-0.2,0.2
			C16.9,10.4,16.6,10.4,16.5,10.1z M31.3,44.1c-3.3,1.2-6.8,1.6-10.3,1.1l-0.2,1.4c0,0.1-0.1,0.2-0.2,0.3c-0.2,0.2-0.5,0.1-0.7-0.1
			L17.2,43c0,0,0,0,0-0.1c-0.1-0.2,0-0.5,0.2-0.6l3.6-2c0.1-0.1,0.2-0.1,0.3-0.1c0.3,0,0.4,0.3,0.4,0.5l-0.2,1.6
			c2.9,0.4,5.9,0.1,8.7-0.9c0.2-0.1,0.5,0,0.6,0.2l0.9,1.7c0,0,0,0,0,0C31.7,43.7,31.5,44,31.3,44.1z M35.5,44.5
			c-2.3,0-4.3-1.9-4.3-4.3s1.9-4.3,4.3-4.3s4.3,1.9,4.3,4.3S37.8,44.5,35.5,44.5z M43.9,34.4c0.1,0.1,0.2,0.2,0.2,0.3
			c0.1,0.2,0,0.5-0.3,0.6l-4.5,1.6c0,0,0,0-0.1,0c-0.3,0.1-0.5-0.1-0.6-0.4l-0.8-4c0-0.1,0-0.2,0-0.3c0.1-0.2,0.4-0.3,0.6-0.2
			l1.5,0.7c1.3-2.7,2-5.6,1.9-8.6c0-0.2,0.2-0.4,0.4-0.5l1.9-0.3c0,0,0,0,0.1,0c0.3,0,0.5,0.2,0.5,0.5c0.2,3.5-0.6,7-2.1,10.1
			L43.9,34.4z M42.4,22.8c-2.3,0-4.3-1.9-4.3-4.3s1.9-4.3,4.3-4.3c2.3,0,4.3,1.9,4.3,4.3S44.8,22.8,42.4,22.8z"/>
		<path class="st2" d="M24,7.9c1.4,0,2.6-1.2,2.6-2.6S25.4,2.7,24,2.7s-2.6,1.2-2.6,2.6S22.5,7.9,24,7.9z"/>
	</g>
</g>
<g id="_x30_.1_2_" class="st0">
	<g class="st1">
		<path class="st2" d="M12.7,37.7c-1.4,0-2.6,1.2-2.6,2.6c0,1.4,1.2,2.6,2.6,2.6c1.4,0,2.6-1.2,2.6-2.6
			C15.3,38.9,14.1,37.7,12.7,37.7z"/>
		<path class="st2" d="M5.6,21.3c1.4,0,2.6-1.2,2.6-2.6S7,16.1,5.6,16.1c-1.4,0-2.6,1.2-2.6,2.6S4.2,21.3,5.6,21.3z"/>
		<path class="st2" d="M24,7.9c1.4,0,2.6-1.2,2.6-2.6S25.4,2.7,24,2.7s-2.6,1.2-2.6,2.6S22.5,7.9,24,7.9z"/>
		<path class="st2" d="M42,0L42,0H6C2.7,0,0,2.7,0,6v36c0,3.3,2.7,6,6,6h36c3.3,0,6-2.7,6-6V6C48,2.7,45.3,0,42,0z M29,5
			C29,5,29,4.9,29,5c0.1-0.3,0.3-0.5,0.6-0.4c3.4,0.9,6.4,2.7,8.9,5.1l1-1c0.1-0.1,0.2-0.1,0.3-0.1c0.3,0,0.5,0.2,0.5,0.5l0.1,4.7
			c0,0,0,0,0,0.1c0,0.3-0.3,0.4-0.5,0.4l-4.1-0.5c-0.1,0-0.2-0.1-0.3-0.1c-0.2-0.2-0.2-0.5,0-0.7l1.1-1.2c-2.1-2.1-4.7-3.6-7.6-4.4
			c-0.2-0.1-0.4-0.3-0.3-0.5L29,5z M29.2,19.1c0.3,0,0.5,0.1,0.7,0.3c0.1,0.1,0.2,0.3,0.2,0.4c0,0.2,0.1,0.3,0.1,0.5v6.6h1
			c0.3,0,0.5,0.1,0.7,0.3c0.2,0.2,0.3,0.4,0.3,0.7c0,0.3-0.1,0.5-0.3,0.7c-0.2,0.2-0.4,0.3-0.7,0.3h-4.1c-0.3,0-0.5-0.1-0.7-0.3
			c-0.2-0.2-0.3-0.4-0.3-0.7c0-0.3,0.1-0.5,0.3-0.7c0.2-0.2,0.4-0.3,0.7-0.3h1.1v-4.3l-0.6,0.6c-0.2,0.2-0.4,0.3-0.7,0.3
			c-0.3,0-0.5-0.1-0.7-0.3c-0.2-0.2-0.3-0.4-0.3-0.7c0-0.3,0.1-0.5,0.3-0.7l2.4-2.4C28.7,19.2,28.9,19.1,29.2,19.1z M24,1
			c2.3,0,4.3,1.9,4.3,4.3S26.3,9.5,24,9.5c-2.3,0-4.3-1.9-4.3-4.3S21.6,1,24,1z M25,27.9c0,0.3-0.1,0.5-0.3,0.7
			c-0.2,0.2-0.5,0.3-0.8,0.3c-0.3,0-0.5-0.1-0.7-0.3c-0.2-0.2-0.3-0.4-0.3-0.7c0-0.3,0.1-0.5,0.3-0.7c0.2-0.2,0.4-0.3,0.7-0.3
			c0.3,0,0.5,0.1,0.8,0.3C24.9,27.3,25,27.6,25,27.9z M20.7,19.3c0.4,0.2,0.7,0.4,1,0.7c0.3,0.3,0.5,0.6,0.7,1
			c0.2,0.4,0.2,0.8,0.2,1.2v3.6c0,0.4-0.1,0.8-0.2,1.2c-0.2,0.4-0.4,0.7-0.7,1c-0.3,0.3-0.6,0.5-1,0.7c-0.4,0.2-0.8,0.2-1.2,0.2
			c-0.4,0-0.8-0.1-1.2-0.2c-0.4-0.2-0.7-0.4-1-0.7c-0.3-0.3-0.5-0.6-0.7-1c-0.2-0.4-0.2-0.8-0.2-1.2v-3.6c0-0.4,0.1-0.8,0.2-1.2
			c0.2-0.4,0.4-0.7,0.7-1c0.3-0.3,0.6-0.5,1-0.7c0.4-0.2,0.8-0.2,1.2-0.2C19.9,19.1,20.3,19.2,20.7,19.3z M6.7,13.2
			c1.9-2.9,4.6-5.3,7.6-6.9L13.7,5c-0.1-0.1-0.1-0.2,0-0.4c0.1-0.2,0.3-0.4,0.6-0.3l4.5,1.4c0,0,0,0,0.1,0C19,5.8,19.1,6.1,19,6.3
			l-1.7,3.7c0,0.1-0.1,0.2-0.2,0.2c-0.2,0.1-0.5,0-0.6-0.2l-0.8-1.4c-2.6,1.4-4.9,3.4-6.5,5.8c-0.1,0.2-0.4,0.3-0.6,0.2l-1.7-0.9
			c0,0,0,0,0,0C6.6,13.7,6.5,13.4,6.7,13.2z M5.6,14.4c2.3,0,4.3,1.9,4.3,4.3S7.9,23,5.6,23c-2.3,0-4.3-1.9-4.3-4.3
			S3.2,14.4,5.6,14.4z M7.8,37.6c-2.2-2.7-3.6-6-4.2-9.4l-1.4,0.3c-0.1,0-0.3,0-0.4-0.1c-0.2-0.1-0.3-0.4-0.1-0.7l2.7-3.9
			c0,0,0,0,0,0c0.2-0.2,0.5-0.2,0.7,0l3,2.8c0.1,0.1,0.1,0.2,0.1,0.3c0,0.3-0.1,0.5-0.4,0.6l-1.6,0.3c0.5,2.9,1.7,5.7,3.5,8
			c0.1,0.2,0.1,0.5,0,0.6l-1.3,1.3c0,0,0,0,0,0C8.2,37.8,7.9,37.8,7.8,37.6z M12.7,44.6c-2.3,0-4.3-1.9-4.3-4.3s1.9-4.3,4.3-4.3
			c2.3,0,4.3,1.9,4.3,4.3S15,44.6,12.7,44.6z M31.3,44.1c-3.3,1.2-6.8,1.6-10.3,1.1l-0.2,1.4c0,0.1-0.1,0.2-0.2,0.3
			c-0.2,0.2-0.5,0.1-0.7-0.1L17.2,43c0,0,0,0,0-0.1c-0.1-0.2,0-0.5,0.2-0.6l3.6-2c0.1-0.1,0.2-0.1,0.3-0.1c0.3,0,0.4,0.3,0.4,0.5
			l-0.2,1.6c2.9,0.4,5.9,0.1,8.7-0.9c0.2-0.1,0.5,0,0.6,0.2l0.9,1.7c0,0,0,0,0,0C31.7,43.7,31.5,44,31.3,44.1z M35.5,44.5
			c-2.3,0-4.3-1.9-4.3-4.3s1.9-4.3,4.3-4.3c2.3,0,4.3,1.9,4.3,4.3S37.8,44.5,35.5,44.5z M43.9,34.4c0.1,0.1,0.2,0.2,0.2,0.3
			c0.1,0.2,0,0.5-0.3,0.6l-4.5,1.6c0,0,0,0-0.1,0c-0.3,0.1-0.5-0.1-0.6-0.4l-0.8-4c0-0.1,0-0.2,0-0.3c0.1-0.2,0.4-0.3,0.6-0.2
			l1.5,0.7c1.3-2.7,2-5.6,1.9-8.6c0-0.2,0.2-0.4,0.4-0.5l1.9-0.3c0,0,0,0,0.1,0c0.3,0,0.5,0.2,0.5,0.5c0.2,3.5-0.6,7-2.1,10.1
			L43.9,34.4z M42.4,22.8c-2.3,0-4.3-1.9-4.3-4.3c0-2.3,1.9-4.3,4.3-4.3c2.3,0,4.3,1.9,4.3,4.3C46.7,20.9,44.8,22.8,42.4,22.8z"/>
		<path class="st2" d="M19.5,26.9c0.3,0,0.5-0.1,0.7-0.3c0.2-0.2,0.3-0.5,0.3-0.8v-3.6c0-0.3-0.1-0.5-0.3-0.8
			c-0.2-0.2-0.4-0.3-0.7-0.3c-0.3,0-0.5,0.1-0.8,0.3c-0.2,0.2-0.3,0.5-0.3,0.8v3.6c0,0.3,0.1,0.5,0.3,0.8S19.2,26.9,19.5,26.9z"/>
		<circle class="st2" cx="42.4" cy="18.6" r="2.6"/>
	</g>
</g>
<g id="_x30_.01_1_" class="st0">
	<g class="st1">
		<path class="st2" d="M15.7,21.1c-0.3,0-0.5,0.1-0.8,0.3s-0.3,0.5-0.3,0.8v3.6c0,0.3,0.1,0.5,0.3,0.8s0.5,0.3,0.8,0.3
			c0.3,0,0.5-0.1,0.7-0.3c0.2-0.2,0.3-0.5,0.3-0.8v-3.6c0-0.3-0.1-0.5-0.3-0.8C16.2,21.2,16,21.1,15.7,21.1z"/>
		<path class="st2" d="M5.6,21.3c1.4,0,2.6-1.2,2.6-2.6S7,16.1,5.6,16.1c-1.4,0-2.6,1.2-2.6,2.6S4.2,21.3,5.6,21.3z"/>
		<path class="st2" d="M15.2,39.8c0-0.2-0.1-0.3-0.1-0.5c0,0,0,0,0-0.1c-0.1-0.1-0.1-0.2-0.2-0.4c0,0,0,0,0-0.1
			c-0.2-0.3-0.4-0.5-0.7-0.7c0,0,0,0-0.1,0C14,38.1,13.9,38,13.7,38c0,0,0,0-0.1,0c-0.2-0.1-0.3-0.1-0.5-0.1c0,0-0.1,0-0.1,0
			c-0.1,0-0.3,0-0.4,0c0,0-0.1,0-0.1,0c-0.1,0-0.1,0-0.2,0c-0.1,0-0.3,0-0.4,0.1c-0.1,0-0.1,0-0.2,0.1c-0.1,0-0.2,0.1-0.4,0.2
			c-0.1,0-0.1,0.1-0.2,0.1c-0.2,0.1-0.3,0.2-0.4,0.3c0,0,0,0,0,0c-0.1,0.1-0.2,0.3-0.3,0.4c0,0-0.1,0.1-0.1,0.2
			c-0.1,0.1-0.1,0.2-0.2,0.4c0,0.1,0,0.1-0.1,0.2c0,0.1-0.1,0.3-0.1,0.4c0,0.1,0,0.1,0,0.2c0,0,0,0.1,0,0.1c0,0.1,0,0.3,0,0.4
			c0,0,0,0.1,0,0.1c0,0.2,0.1,0.3,0.1,0.5c0,0,0,0,0,0.1c0.1,0.1,0.1,0.2,0.2,0.4c0,0,0,0,0,0.1c0.2,0.3,0.4,0.5,0.7,0.7
			c0,0,0,0,0.1,0c0.1,0.1,0.2,0.1,0.4,0.2c0,0,0,0,0.1,0c0.2,0.1,0.3,0.1,0.5,0.1c0,0,0.1,0,0.1,0c0.1,0,0.3,0,0.4,0
			c0,0,0.1,0,0.1,0c0.1,0,0.1,0,0.2,0c0.1,0,0.3,0,0.4-0.1c0.1,0,0.1,0,0.2-0.1c0.1,0,0.2-0.1,0.4-0.2c0.1,0,0.1-0.1,0.2-0.1
			c0.2-0.1,0.3-0.2,0.4-0.3c0,0,0,0,0,0c0.1-0.1,0.2-0.3,0.3-0.4c0,0,0.1-0.1,0.1-0.2c0.1-0.1,0.1-0.2,0.2-0.4c0-0.1,0-0.1,0.1-0.2
			c0-0.1,0.1-0.3,0.1-0.4c0-0.1,0-0.1,0-0.2c0,0,0-0.1,0-0.1C15.3,40.2,15.3,40,15.2,39.8C15.2,39.9,15.2,39.8,15.2,39.8z"/>
		<path class="st2" d="M24,7.9c1.4,0,2.6-1.2,2.6-2.6S25.4,2.7,24,2.7s-2.6,1.2-2.6,2.6S22.5,7.9,24,7.9z"/>
		<path class="st2" d="M25.1,21.1c-0.3,0-0.5,0.1-0.8,0.3c-0.2,0.2-0.3,0.5-0.3,0.8v3.6c0,0.3,0.1,0.5,0.3,0.8
			c0.2,0.2,0.5,0.3,0.8,0.3c0.3,0,0.5-0.1,0.7-0.3c0.2-0.2,0.3-0.5,0.3-0.8v-3.6c0-0.3-0.1-0.5-0.3-0.8
			C25.7,21.2,25.4,21.1,25.1,21.1z"/>
		<path class="st2" d="M42,0L42,0H6C2.7,0,0,2.7,0,6v36c0,3.3,2.7,6,6,6h36c3.3,0,6-2.7,6-6V6C48,2.7,45.3,0,42,0z M29,5
			C29,5,29,4.9,29,5c0.1-0.3,0.3-0.5,0.6-0.4c3.4,0.9,6.4,2.7,8.9,5.1l1-1c0.1-0.1,0.2-0.1,0.3-0.1c0.3,0,0.5,0.2,0.5,0.5l0.1,4.7
			c0,0,0,0,0,0.1c0,0.3-0.3,0.4-0.5,0.4l-4.1-0.5c-0.1,0-0.2-0.1-0.3-0.1c-0.2-0.2-0.2-0.5,0-0.7l1.1-1.2c-2.1-2.1-4.7-3.6-7.6-4.4
			c-0.2-0.1-0.4-0.3-0.3-0.5L29,5z M30.7,23.2c-0.2,0.2-0.4,0.3-0.7,0.3c-0.3,0-0.5-0.1-0.7-0.3c-0.2-0.2-0.3-0.4-0.3-0.7
			c0-0.3,0.1-0.5,0.3-0.7l2.4-2.4c0.2-0.2,0.5-0.3,0.7-0.3c0.3,0,0.5,0.1,0.7,0.3c0.1,0.1,0.2,0.3,0.2,0.4c0,0.2,0.1,0.3,0.1,0.5
			v6.6h1c0.3,0,0.5,0.1,0.7,0.3c0.2,0.2,0.3,0.4,0.3,0.7c0,0.3-0.1,0.5-0.3,0.7c-0.2,0.2-0.4,0.3-0.7,0.3h-4.1
			c-0.3,0-0.5-0.1-0.7-0.3c-0.2-0.2-0.3-0.4-0.3-0.7c0-0.3,0.1-0.5,0.3-0.7c0.2-0.2,0.4-0.3,0.7-0.3h1.1v-4.3L30.7,23.2z M24,1
			c2.3,0,4.3,1.9,4.3,4.3S26.3,9.5,24,9.5c-2.3,0-4.3-1.9-4.3-4.3S21.6,1,24,1z M28.2,22.2v3.6c0,0.4-0.1,0.8-0.2,1.2
			c-0.2,0.4-0.4,0.7-0.7,1c-0.3,0.3-0.6,0.5-1,0.7c-0.4,0.2-0.8,0.2-1.2,0.2c-0.4,0-0.8-0.1-1.2-0.2c-0.4-0.2-0.7-0.4-1-0.7
			c-0.3-0.3-0.5-0.6-0.7-1c-0.2-0.4-0.2-0.8-0.2-1.2v-3.6c0-0.4,0.1-0.8,0.2-1.2c0.2-0.4,0.4-0.7,0.7-1c0.3-0.3,0.6-0.5,1-0.7
			c0.4-0.2,0.8-0.2,1.2-0.2c0.4,0,0.8,0.1,1.2,0.2c0.4,0.2,0.7,0.4,1,0.7c0.3,0.3,0.5,0.6,0.7,1C28.1,21.4,28.2,21.8,28.2,22.2z
			 M19.4,27.1c0.2-0.2,0.4-0.3,0.7-0.3c0.3,0,0.5,0.1,0.8,0.3c0.2,0.2,0.3,0.4,0.3,0.7s-0.1,0.5-0.3,0.7c-0.2,0.2-0.5,0.3-0.8,0.3
			c-0.3,0-0.5-0.1-0.7-0.3c-0.2-0.2-0.3-0.4-0.3-0.7S19.2,27.3,19.4,27.1z M6.7,13.2c1.9-2.9,4.6-5.3,7.6-6.9L13.7,5
			c-0.1-0.1-0.1-0.2,0-0.4c0.1-0.2,0.3-0.4,0.6-0.3l4.5,1.4c0,0,0,0,0.1,0C19,5.8,19.1,6.1,19,6.3l-1.7,3.7c0,0.1-0.1,0.2-0.2,0.2
			c-0.2,0.1-0.5,0-0.6-0.2l-0.8-1.4c-2.6,1.4-4.9,3.4-6.5,5.8c-0.1,0.2-0.4,0.3-0.6,0.2l-1.7-0.9c0,0,0,0,0,0
			C6.6,13.7,6.5,13.4,6.7,13.2z M18.8,22.2v3.6c0,0.4-0.1,0.8-0.2,1.2c-0.2,0.4-0.4,0.7-0.7,1c-0.3,0.3-0.6,0.5-1,0.7
			c-0.4,0.2-0.8,0.2-1.2,0.2c-0.4,0-0.8-0.1-1.2-0.2c-0.4-0.2-0.7-0.4-1-0.7c-0.3-0.3-0.5-0.6-0.7-1c-0.2-0.4-0.2-0.8-0.2-1.2v-3.6
			c0-0.4,0.1-0.8,0.2-1.2c0.2-0.4,0.4-0.7,0.7-1c0.3-0.3,0.6-0.5,1-0.7c0.4-0.2,0.8-0.2,1.2-0.2c0.4,0,0.8,0.1,1.2,0.2
			c0.4,0.2,0.7,0.4,1,0.7c0.3,0.3,0.5,0.6,0.7,1C18.7,21.4,18.8,21.8,18.8,22.2z M5.6,14.4c2.3,0,4.3,1.9,4.3,4.3S7.9,23,5.6,23
			c-2.3,0-4.3-1.9-4.3-4.3S3.2,14.4,5.6,14.4z M7.8,37.6c-2.2-2.7-3.6-6-4.2-9.4l-1.4,0.3c-0.1,0-0.3,0-0.4-0.1
			c-0.2-0.1-0.3-0.4-0.1-0.7l2.7-3.9c0,0,0,0,0,0c0.2-0.2,0.5-0.2,0.7,0l3,2.8c0.1,0.1,0.1,0.2,0.1,0.3c0,0.3-0.1,0.5-0.4,0.6
			l-1.6,0.3c0.5,2.9,1.7,5.7,3.5,8c0.1,0.2,0.1,0.5,0,0.6l-1.3,1.3c0,0,0,0,0,0C8.2,37.8,7.9,37.8,7.8,37.6z M12.7,44.6
			c-2.3,0-4.3-1.9-4.3-4.3s1.9-4.3,4.3-4.3c2.3,0,4.3,1.9,4.3,4.3S15,44.6,12.7,44.6z M31.3,44.1c-3.3,1.2-6.8,1.6-10.3,1.1
			l-0.2,1.4c0,0.1-0.1,0.2-0.2,0.3c-0.2,0.2-0.5,0.1-0.7-0.1L17.2,43c0,0,0,0,0-0.1c-0.1-0.2,0-0.5,0.2-0.6l3.6-2
			c0.1-0.1,0.2-0.1,0.3-0.1c0.3,0,0.4,0.3,0.4,0.5l-0.2,1.6c2.9,0.4,5.9,0.1,8.7-0.9c0.2-0.1,0.5,0,0.6,0.2l0.9,1.7c0,0,0,0,0,0
			C31.7,43.7,31.5,44,31.3,44.1z M35.5,44.5c-2.3,0-4.3-1.9-4.3-4.3s1.9-4.3,4.3-4.3s4.3,1.9,4.3,4.3S37.8,44.5,35.5,44.5z
			 M43.9,34.4c0.1,0.1,0.2,0.2,0.2,0.3c0.1,0.2,0,0.5-0.3,0.6l-4.5,1.6c0,0,0,0-0.1,0c-0.3,0.1-0.5-0.1-0.6-0.4l-0.8-4
			c0-0.1,0-0.2,0-0.3c0.1-0.2,0.4-0.3,0.6-0.2l1.5,0.7c1.3-2.7,2-5.6,1.9-8.6c0-0.2,0.2-0.4,0.4-0.5l1.9-0.3c0,0,0,0,0.1,0
			c0.3,0,0.5,0.2,0.5,0.5c0.2,3.5-0.6,7-2.1,10.1L43.9,34.4z M42.4,22.8c-2.3,0-4.3-1.9-4.3-4.3s1.9-4.3,4.3-4.3
			c2.3,0,4.3,1.9,4.3,4.3S44.8,22.8,42.4,22.8z"/>
		<circle class="st2" cx="35.5" cy="40.3" r="2.6"/>
	</g>
</g>
<g id="AUTO_5_" class="st0">
	<g id="AUTO_1_" class="st1">
		<path class="st2" d="M12.7,37.7c-1.4,0-2.6,1.2-2.6,2.6c0,1.4,1.2,2.6,2.6,2.6c1.4,0,2.6-1.2,2.6-2.6
			C15.3,38.9,14.1,37.7,12.7,37.7z"/>
		<circle class="st2" cx="35.5" cy="40.3" r="2.6"/>
		<path class="st2" d="M33,22.2c-0.1-0.1-0.2-0.2-0.3-0.2c-0.1-0.1-0.3-0.1-0.4-0.1c-0.2,0-0.3,0-0.4,0.1c-0.1,0.1-0.2,0.1-0.3,0.2
			c-0.1,0.1-0.2,0.2-0.2,0.3c-0.1,0.1-0.1,0.3-0.1,0.4v2.1c0,0.3,0.1,0.6,0.3,0.8c0.2,0.2,0.5,0.3,0.8,0.3c0.1,0,0.3,0,0.4-0.1
			c0.1-0.1,0.2-0.1,0.3-0.2c0.1-0.1,0.2-0.2,0.2-0.3c0.1-0.1,0.1-0.3,0.1-0.4v-2.1c0-0.1,0-0.3-0.1-0.4C33.2,22.4,33.1,22.3,33,22.2
			z"/>
		<path class="st2" d="M16.4,22.6c0-0.2-0.1-0.4-0.2-0.5c-0.1-0.1-0.3-0.2-0.5-0.2c-0.2,0-0.4,0.1-0.5,0.2c-0.1,0.1-0.2,0.3-0.2,0.5
			V24h1.5V22.6z"/>
		<path class="st2" d="M5.6,21.3c1.4,0,2.6-1.2,2.6-2.6S7,16.1,5.6,16.1c-1.4,0-2.6,1.2-2.6,2.6S4.2,21.3,5.6,21.3z"/>
		<circle class="st2" cx="42.4" cy="18.6" r="2.6"/>
		<path class="st2" d="M42,0L42,0H6C2.7,0,0,2.7,0,6v36c0,3.3,2.7,6,6,6h36c3.3,0,6-2.7,6-6V6C48,2.7,45.3,0,42,0z M29,5
			C29,5,29,4.9,29,5c0.1-0.3,0.3-0.5,0.6-0.4c3.4,0.9,6.4,2.7,8.9,5.1l1-1c0.1-0.1,0.2-0.1,0.3-0.1c0.3,0,0.5,0.2,0.5,0.5l0.1,4.7
			c0,0,0,0,0,0.1c0,0.3-0.3,0.4-0.5,0.4l-4.1-0.5c-0.1,0-0.2-0.1-0.3-0.1c-0.2-0.2-0.2-0.5,0-0.7l1.1-1.2c-2.1-2.1-4.7-3.6-7.6-4.4
			c-0.2-0.1-0.4-0.3-0.3-0.5L29,5z M34.8,22.9v2.1c0,0.3-0.1,0.7-0.2,1c-0.1,0.3-0.3,0.6-0.5,0.8c-0.2,0.2-0.5,0.4-0.8,0.6
			c-0.3,0.1-0.6,0.2-1,0.2c-0.4,0-0.7-0.1-1-0.2c-0.3-0.1-0.6-0.3-0.8-0.6s-0.4-0.5-0.6-0.8c-0.1-0.3-0.2-0.7-0.2-1v-2.1
			c0-0.3,0.1-0.7,0.2-1c0.1-0.3,0.3-0.6,0.6-0.8c0.2-0.2,0.5-0.4,0.8-0.6s0.7-0.2,1-0.2c0.4,0,0.7,0.1,1,0.2
			c0.3,0.1,0.6,0.3,0.8,0.6c0.2,0.2,0.4,0.5,0.6,0.8C34.8,22.2,34.8,22.6,34.8,22.9z M25,21.9c-0.2,0-0.4-0.1-0.5-0.2
			c-0.1-0.1-0.2-0.3-0.2-0.6c0-0.2,0.1-0.4,0.2-0.6c0.1-0.2,0.3-0.2,0.5-0.2h3.7c0.2,0,0.4,0.1,0.6,0.2c0.1,0.2,0.2,0.3,0.2,0.6
			c0,0.2-0.1,0.4-0.2,0.6s-0.3,0.2-0.6,0.2h-1.1v5c0,0.2-0.1,0.4-0.2,0.6c-0.1,0.1-0.3,0.2-0.6,0.2c-0.2,0-0.4-0.1-0.6-0.2
			c-0.1-0.1-0.2-0.3-0.2-0.6v-5H25z M24,1c2.3,0,4.3,1.9,4.3,4.3S26.3,9.5,24,9.5c-2.3,0-4.3-1.9-4.3-4.3S21.6,1,24,1z M19.9,20.6
			c0.1,0.2,0.2,0.3,0.2,0.6v3.9c0,0.2,0,0.3,0.1,0.4s0.1,0.2,0.2,0.3c0.1,0.1,0.2,0.2,0.3,0.2c0.1,0.1,0.3,0.1,0.4,0.1
			c0.1,0,0.3,0,0.4-0.1c0.1-0.1,0.2-0.1,0.3-0.2c0.1-0.1,0.2-0.2,0.2-0.3c0.1-0.1,0.1-0.3,0.1-0.4v-3.9c0-0.2,0.1-0.4,0.2-0.6
			c0.1-0.2,0.3-0.2,0.6-0.2c0.2,0,0.4,0.1,0.5,0.2c0.1,0.2,0.2,0.3,0.2,0.6v3.9c0,0.4-0.1,0.7-0.2,1c-0.1,0.3-0.3,0.6-0.6,0.8
			c-0.2,0.2-0.5,0.4-0.8,0.6c-0.3,0.1-0.7,0.2-1,0.2c-0.4,0-0.7-0.1-1-0.2c-0.3-0.1-0.6-0.3-0.8-0.6c-0.2-0.2-0.4-0.5-0.6-0.8
			c-0.1-0.3-0.2-0.7-0.2-1v-3.9c0-0.2,0.1-0.4,0.2-0.6c0.1-0.2,0.3-0.2,0.6-0.2C19.6,20.3,19.8,20.4,19.9,20.6z M6.7,13.2
			c1.9-2.9,4.6-5.3,7.6-6.9L13.7,5c-0.1-0.1-0.1-0.2,0-0.4c0.1-0.2,0.3-0.4,0.6-0.3l4.5,1.4c0,0,0,0,0.1,0C19,5.8,19.1,6.1,19,6.3
			l-1.7,3.7c0,0.1-0.1,0.2-0.2,0.2c-0.2,0.1-0.5,0-0.6-0.2l-0.8-1.4c-2.6,1.4-4.9,3.4-6.5,5.8c-0.1,0.2-0.4,0.3-0.6,0.2l-1.7-0.9
			c0,0,0,0,0,0C6.6,13.7,6.5,13.4,6.7,13.2z M14.9,25.6v1.3c0,0.2-0.1,0.4-0.2,0.5c-0.2,0.1-0.3,0.2-0.6,0.2c-0.2,0-0.4-0.1-0.5-0.2
			c-0.1-0.1-0.2-0.3-0.2-0.5v-1.8v-1.6v-0.9v0v0c0-0.3,0.1-0.6,0.2-0.9c0.1-0.3,0.3-0.5,0.5-0.7c0.2-0.2,0.4-0.4,0.7-0.5
			c0.3-0.1,0.6-0.2,0.9-0.2c0.3,0,0.6,0.1,0.9,0.2c0.3,0.1,0.5,0.3,0.7,0.5c0.2,0.2,0.4,0.4,0.5,0.7c0.1,0.3,0.2,0.6,0.2,0.9l0,0v0
			v0.9v1.6v1.8c0,0.2-0.1,0.4-0.2,0.5c-0.1,0.1-0.3,0.2-0.5,0.2c-0.2,0-0.4-0.1-0.6-0.2c-0.1-0.1-0.2-0.3-0.2-0.5v-1.3H14.9z
			 M5.6,14.4c2.3,0,4.3,1.9,4.3,4.3S7.9,23,5.6,23c-2.3,0-4.3-1.9-4.3-4.3S3.2,14.4,5.6,14.4z M7.8,37.6c-2.2-2.7-3.6-6-4.2-9.4
			l-1.4,0.3c-0.1,0-0.3,0-0.4-0.1c-0.2-0.1-0.3-0.4-0.1-0.7l2.7-3.9c0,0,0,0,0,0c0.2-0.2,0.5-0.2,0.7,0l3,2.8
			c0.1,0.1,0.1,0.2,0.1,0.3c0,0.3-0.1,0.5-0.4,0.6l-1.6,0.3c0.5,2.9,1.7,5.7,3.5,8c0.1,0.2,0.1,0.5,0,0.6l-1.3,1.3c0,0,0,0,0,0
			C8.2,37.8,7.9,37.8,7.8,37.6z M12.7,44.6c-2.3,0-4.3-1.9-4.3-4.3s1.9-4.3,4.3-4.3c2.3,0,4.3,1.9,4.3,4.3S15,44.6,12.7,44.6z
			 M31.3,44.1c-3.3,1.2-6.8,1.6-10.3,1.1l-0.2,1.4c0,0.1-0.1,0.2-0.2,0.3c-0.2,0.2-0.5,0.1-0.7-0.1L17.2,43c0,0,0,0,0-0.1
			c-0.1-0.2,0-0.5,0.2-0.6l3.6-2c0.1-0.1,0.2-0.1,0.3-0.1c0.3,0,0.4,0.3,0.4,0.5l-0.2,1.6c2.9,0.4,5.9,0.1,8.7-0.9
			c0.2-0.1,0.5,0,0.6,0.2l0.9,1.7c0,0,0,0,0,0C31.7,43.7,31.5,44,31.3,44.1z M35.5,44.5c-2.3,0-4.3-1.9-4.3-4.3s1.9-4.3,4.3-4.3
			s4.3,1.9,4.3,4.3S37.8,44.5,35.5,44.5z M43.9,34.4c0.1,0.1,0.2,0.2,0.2,0.3c0.1,0.2,0,0.5-0.3,0.6l-4.5,1.6c0,0,0,0-0.1,0
			c-0.3,0.1-0.5-0.1-0.6-0.4l-0.8-4c0-0.1,0-0.2,0-0.3c0.1-0.2,0.4-0.3,0.6-0.2l1.5,0.7c1.3-2.7,2-5.6,1.9-8.6
			c0-0.2,0.2-0.4,0.4-0.5l1.9-0.3c0,0,0,0,0.1,0c0.3,0,0.5,0.2,0.5,0.5c0.2,3.5-0.6,7-2.1,10.1L43.9,34.4z M42.4,22.8
			c-2.3,0-4.3-1.9-4.3-4.3s1.9-4.3,4.3-4.3c2.3,0,4.3,1.9,4.3,4.3S44.8,22.8,42.4,22.8z"/>
	</g>
</g>
</svg>
