<?xml version="1.0" encoding="utf-8"?>
<!-- Generator: Adobe Illustrator 25.0.0, SVG Export Plug-In . SVG Version: 6.00 Build 0)  -->
<svg version="1.1" id="Fond" xmlns="http://www.w3.org/2000/svg" xmlns:xlink="http://www.w3.org/1999/xlink" x="0px" y="0px"
	 viewBox="0 0 48 48" style="enable-background:new 0 0 48 48;" xml:space="preserve">
<style type="text/css">
	.st0{display:none;fill:#FFFFFF;}
	.st1{fill:none;}
	.st2{fill:#00FF00;}
</style>
<path class="st0" d="M2.1,27.8C9.7,37,21.6,45.7,22.2,45.9c0.5,0.2,1.4,0.4,1.9,0.4s1.4-0.2,1.6-0.4c0.5-0.2,12.5-8.7,20.1-18.1
	c0.5-0.9,0.8-1.8,0.3-2.5c-0.6-0.9-1.4-1.3-2.4-1.3l-8.3,0L29.8,3.9c-0.7-2.3-2.7-2.3-3.3-2.3l-5.1,0c-0.6,0-2.8,0.6-3.3,2.3
	L12.6,24l-8.3,0c-1.1,0-1.9,0.7-2.4,1.3C1.6,26.2,1.6,27.1,2.1,27.8z"/>
<path class="st0" d="M36.6,14.8C32.2,8.3,25.1,2.1,24.8,1.9c-0.3-0.2-0.8-0.3-1.1-0.3c-0.3,0-0.8,0.2-1,0.3
	c-0.3,0.2-7.3,6.2-11.8,12.8c-0.3,0.6-0.5,1.3-0.2,1.7c0.3,0.6,0.8,1,1.4,1h5.9L3.4,37.4c-1.5,1.8-2.1,4.3-1.7,6.6
	c0.4,2.1,3.1,2.4,4.1,2.4h35.9c1,0,3.7-0.3,4.1-2.4c0.4-2.3-0.2-4.7-1.7-6.6L29.5,17.5h5.9c0.6,0,1.1-0.5,1.4-1
	C37,15.9,37,15.3,36.6,14.8z"/>
<g>
	<path class="st1" d="M43.5,13.8H24V6.5c0-1-0.7-1.7-1.4-2.2c-0.9-0.2-1.8-0.2-2.5,0.2C11,11.3,2.2,21.9,2,22.4
		c-0.2,0.5-0.4,1.2-0.4,1.7s0.2,1.2,0.4,1.4c0.2,0.5,8.8,11.1,18.2,17.8c0.9,0.5,1.8,0.7,2.5,0.2c0.9-0.5,1.4-1.2,1.4-2.2V34h19.5
		c1.7,0,3-1.3,3-3V16.8C46.5,15.2,45.1,13.8,43.5,13.8z M31.6,27c0.2,0.2,0.2,0.5,0.2,0.8c-0.1,0.3-0.2,0.5-0.4,0.7
		c-0.2,0.2-0.5,0.2-0.8,0.2c-0.3-0.1-0.5-0.2-0.7-0.5l-1.9-2.7L26,28.2c-0.2,0.2-0.4,0.4-0.7,0.5c-0.3,0.1-0.6,0-0.8-0.2
		c-0.1-0.1-0.2-0.2-0.3-0.3c-0.1-0.1-0.1-0.3-0.2-0.4s0-0.3,0-0.4c0-0.1,0.1-0.3,0.2-0.4l2.4-3.4l-2.4-3.4C24,19.9,24,19.7,24,19.4
		c0.1-0.3,0.2-0.5,0.5-0.7c0.2-0.2,0.5-0.2,0.8-0.2c0.3,0.1,0.5,0.2,0.7,0.4l1.9,2.7l1.9-2.7c0.2-0.2,0.4-0.4,0.7-0.4
		c0.3-0.1,0.6,0,0.8,0.2c0.2,0.2,0.4,0.4,0.5,0.7s0,0.6-0.2,0.8l-2.4,3.4L31.6,27z M38.2,24.6C38,24.9,37.7,25,37.4,25h-4.1
		c-0.3,0-0.6-0.1-0.8-0.3c-0.2-0.2-0.3-0.5-0.3-0.8c0-0.3,0.1-0.6,0.3-0.8c0.2-0.2,0.5-0.3,0.8-0.3h4.1c0.3,0,0.6,0.1,0.8,0.3
		s0.3,0.5,0.3,0.8C38.5,24.2,38.4,24.4,38.2,24.6z"/>
	<path class="st2" d="M42,0L42,0H6C2.7,0,0,2.7,0,6v36c0,3.3,2.7,6,6,6h36c3.3,0,6-2.7,6-6V6C48,2.7,45.3,0,42,0z M46.5,31
		c0,1.7-1.3,3-3,3H24v7.4c0,1-0.4,1.7-1.4,2.2c-0.7,0.5-1.6,0.2-2.5-0.2C10.7,36.6,2.2,26,2,25.5c-0.2-0.2-0.4-1-0.4-1.4
		s0.2-1.2,0.4-1.7c0.2-0.5,9-11.1,18.2-17.8c0.7-0.5,1.6-0.5,2.5-0.2C23.3,4.8,24,5.5,24,6.5v7.3h19.5c1.7,0,3,1.3,3,3V31z"/>
	<path class="st2" d="M31.8,19.4c-0.1-0.3-0.2-0.5-0.5-0.7c-0.2-0.2-0.5-0.2-0.8-0.2c-0.3,0.1-0.5,0.2-0.7,0.4l-1.9,2.7L26,18.9
		c-0.2-0.2-0.4-0.4-0.7-0.4c-0.3-0.1-0.6,0-0.8,0.2c-0.2,0.2-0.4,0.4-0.5,0.7c-0.1,0.3,0,0.6,0.2,0.8l2.4,3.4L24.2,27
		c-0.1,0.1-0.1,0.3-0.2,0.4c0,0.1,0,0.3,0,0.4s0.1,0.3,0.2,0.4c0.1,0.1,0.2,0.2,0.3,0.3c0.2,0.2,0.5,0.2,0.8,0.2
		c0.3-0.1,0.5-0.2,0.7-0.5l1.9-2.7l1.9,2.7c0.2,0.2,0.4,0.4,0.7,0.5c0.3,0.1,0.6,0,0.8-0.2c0.2-0.2,0.4-0.4,0.4-0.7
		c0.1-0.3,0-0.6-0.2-0.8l-2.4-3.4l2.4-3.4C31.8,19.9,31.8,19.7,31.8,19.4z"/>
	<path class="st2" d="M37.4,22.8h-4.1c-0.3,0-0.6,0.1-0.8,0.3c-0.2,0.2-0.3,0.5-0.3,0.8c0,0.3,0.1,0.6,0.3,0.8
		c0.2,0.2,0.5,0.3,0.8,0.3h4.1c0.3,0,0.6-0.1,0.8-0.3c0.2-0.2,0.3-0.5,0.3-0.8c0-0.3-0.1-0.6-0.3-0.8S37.7,22.8,37.4,22.8z"/>
</g>
</svg>
