<?xml version="1.0" encoding="utf-8"?>
<!-- Generator: Adobe Illustrator 25.0.0, SVG Export Plug-In . SVG Version: 6.00 Build 0)  -->
<svg version="1.1" id="Fond" xmlns="http://www.w3.org/2000/svg" xmlns:xlink="http://www.w3.org/1999/xlink" x="0px" y="0px"
	 viewBox="0 0 48 48" style="enable-background:new 0 0 48 48;" xml:space="preserve">
<style type="text/css">
	.st0{display:none;fill:#FFFFFF;}
	.st1{fill:#00FF00;}
</style>
<path class="st0" d="M27.8,45.9c9.2-7.6,17.9-19.5,18.1-20.1c0.2-0.5,0.4-1.4,0.4-1.9c0-0.5-0.2-1.4-0.4-1.6
	c-0.2-0.5-8.7-12.5-18.1-20.1C26.9,1.7,26,1.4,25.3,2C24.4,2.5,24,3.3,24,4.4l0,8.3L3.9,18.2c-2.3,0.7-2.3,2.7-2.3,3.3l0,5.1
	c0,0.6,0.6,2.8,2.3,3.3L24,35.4l0,8.3c0,1.1,0.7,1.9,1.3,2.4C26.2,46.4,27.1,46.4,27.8,45.9z"/>
<path class="st0" d="M14.8,11.4C8.3,15.8,2.1,22.9,1.9,23.2c-0.2,0.3-0.3,0.8-0.3,1.1s0.2,0.8,0.3,1c0.2,0.3,6.2,7.3,12.8,11.8
	c0.6,0.3,1.3,0.5,1.7,0.2c0.6-0.3,1-0.8,1-1.4l0-5.9l19.9,14.7c1.8,1.5,4.3,2.1,6.6,1.7c2.1-0.4,2.4-3.1,2.4-4.1l0-35.9
	c0-1-0.3-3.7-2.4-4.1c-2.3-0.4-4.7,0.2-6.6,1.7L17.5,18.5l0-5.9c0-0.6-0.5-1.1-1-1.4C15.9,11,15.3,11,14.8,11.4z"/>
<g>
	<path class="st1" d="M42,0L42,0H6C2.7,0,0,2.7,0,6v36c0,3.3,2.7,6,6,6h36c3.3,0,6-2.7,6-6V6C48,2.7,45.3,0,42,0z M31,1.5
		c1.7,0,3,1.3,3,3L34,24l7.4,0c1,0,1.7,0.4,2.2,1.4c0.5,0.7,0.2,1.6-0.2,2.5C36.6,37.3,26,45.8,25.5,46c-0.2,0.2-1,0.4-1.4,0.4
		s-1.2-0.2-1.7-0.4c-0.5-0.2-11.1-9-17.8-18.2c-0.5-0.7-0.5-1.6-0.2-2.5C4.8,24.7,5.5,24,6.5,24l7.3,0l0-19.5c0-1.7,1.3-3,3-3
		L31,1.5z"/>
	<g>
		<path class="st1" d="M23.8,14c0.3,0.2,0.4,0.4,0.5,0.7c0.1,0.3,0,0.6-0.2,0.8l-2.6,3.7v3.7c0,0.3-0.1,0.6-0.3,0.8S20.7,24,20.4,24
			c-0.3,0-0.6-0.1-0.8-0.3s-0.3-0.5-0.3-0.8v-3.7l-2.6-3.7c-0.2-0.3-0.2-0.5-0.2-0.8c0-0.3,0.2-0.5,0.4-0.7c0.2-0.2,0.5-0.2,0.8-0.2
			c0.3,0.1,0.5,0.2,0.7,0.5l1.9,2.7l1.9-2.7c0.2-0.3,0.4-0.4,0.7-0.5C23.3,13.8,23.6,13.8,23.8,14z"/>
		<path class="st1" d="M29.9,19.2c0,0.3-0.1,0.6-0.3,0.8s-0.5,0.3-0.8,0.3h-4.1c-0.3,0-0.6-0.1-0.8-0.3c-0.2-0.2-0.3-0.5-0.3-0.8
			c0-0.3,0.1-0.6,0.3-0.8c0.2-0.2,0.5-0.3,0.8-0.3h4.1c0.3,0,0.6,0.1,0.8,0.3S29.9,18.9,29.9,19.2z"/>
	</g>
</g>
</svg>
