<?xml version="1.0" encoding="utf-8"?>
<!-- Generator: Adobe Illustrator 25.0.0, SVG Export Plug-In . SVG Version: 6.00 Build 0)  -->
<svg version="1.1" id="Fond" xmlns="http://www.w3.org/2000/svg" xmlns:xlink="http://www.w3.org/1999/xlink" x="0px" y="0px"
	 viewBox="0 0 48 48" style="enable-background:new 0 0 48 48;" xml:space="preserve">
<style type="text/css">
	.st0{display:none;fill:#FFFFFF;}
	.st1{fill:none;}
	.st2{fill:#00FF00;}
</style>
<path class="st0" d="M2.1,27.8C9.7,37,21.6,45.7,22.2,45.9c0.5,0.2,1.4,0.4,1.9,0.4s1.4-0.2,1.6-0.4c0.5-0.2,12.5-8.7,20.1-18.1
	c0.5-0.9,0.8-1.8,0.3-2.5c-0.6-0.9-1.4-1.3-2.4-1.3l-8.3,0L29.8,3.9c-0.7-2.3-2.7-2.3-3.3-2.3l-5.1,0c-0.6,0-2.8,0.6-3.3,2.3
	L12.6,24l-8.3,0c-1.1,0-1.9,0.7-2.4,1.3C1.6,26.2,1.6,27.1,2.1,27.8z"/>
<path class="st0" d="M36.6,14.8C32.2,8.3,25.1,2.1,24.8,1.9c-0.3-0.2-0.8-0.3-1.1-0.3c-0.3,0-0.8,0.2-1,0.3
	c-0.3,0.2-7.3,6.2-11.8,12.8c-0.3,0.6-0.5,1.3-0.2,1.7c0.3,0.6,0.8,1,1.4,1h5.9L3.4,37.4c-1.5,1.8-2.1,4.3-1.7,6.6
	c0.4,2.1,3.1,2.4,4.1,2.4h35.9c1,0,3.7-0.3,4.1-2.4c0.4-2.3-0.2-4.7-1.7-6.6L29.5,17.5h5.9c0.6,0,1.1-0.5,1.4-1
	C37,15.9,37,15.3,36.6,14.8z"/>
<g>
	<path class="st1" d="M27.8,4.7c-0.9-0.5-1.8-0.7-2.5-0.2C24.4,4.9,24,5.6,24,6.6V14H4.5c-1.7,0-3,1.3-3,3v14.2c0,1.7,1.3,3,3,3H24
		v7.3c0,1,0.7,1.7,1.4,2.2c0.9,0.2,1.8,0.2,2.5-0.2c9.2-6.7,18-17.3,18.2-17.8c0.2-0.5,0.4-1.2,0.4-1.7s-0.2-1.2-0.4-1.4
		C45.8,22,37.3,11.4,27.8,4.7z M17,27.1c0.2,0.2,0.2,0.5,0.2,0.8s-0.2,0.5-0.4,0.7c-0.2,0.2-0.5,0.2-0.8,0.2s-0.5-0.2-0.7-0.5
		l-1.9-2.7l-1.9,2.7c-0.2,0.2-0.4,0.4-0.7,0.5c-0.3,0.1-0.6,0-0.8-0.2c-0.1-0.1-0.2-0.2-0.3-0.3c-0.1-0.1-0.1-0.3-0.2-0.4
		c0-0.1,0-0.3,0-0.4c0-0.1,0.1-0.3,0.2-0.4l2.4-3.4l-2.4-3.4c-0.2-0.2-0.2-0.5-0.2-0.8s0.2-0.5,0.5-0.7c0.2-0.2,0.5-0.2,0.8-0.2
		c0.3,0.1,0.5,0.2,0.7,0.4l1.9,2.7l1.9-2.7c0.2-0.2,0.4-0.4,0.7-0.4c0.3-0.1,0.6,0,0.8,0.2c0.2,0.2,0.4,0.4,0.5,0.7
		c0.1,0.3,0,0.6-0.2,0.8l-2.4,3.4L17,27.1z M23.6,24.7c-0.2,0.2-0.5,0.3-0.8,0.3h-0.9V26c0,0.3-0.1,0.6-0.3,0.8
		c-0.2,0.2-0.5,0.3-0.8,0.3c-0.3,0-0.6-0.1-0.8-0.3c-0.2-0.2-0.3-0.5-0.3-0.8v-0.9h-0.9c-0.3,0-0.6-0.1-0.8-0.3
		c-0.2-0.2-0.3-0.5-0.3-0.8c0-0.3,0.1-0.6,0.3-0.8c0.2-0.2,0.5-0.3,0.8-0.3h0.9v-0.9c0-0.3,0.1-0.6,0.3-0.8s0.5-0.3,0.8-0.3
		c0.3,0,0.6,0.1,0.8,0.3s0.3,0.5,0.3,0.8v0.9h0.9c0.3,0,0.6,0.1,0.8,0.3s0.3,0.5,0.3,0.8C23.9,24.3,23.8,24.5,23.6,24.7z"/>
	<path class="st2" d="M42,0L42,0H6C2.7,0,0,2.7,0,6v36c0,3.3,2.7,6,6,6h36c3.3,0,6-2.7,6-6V6C48,2.7,45.3,0,42,0z M46,25.6
		c-0.2,0.5-9,11.1-18.2,17.8c-0.7,0.5-1.6,0.5-2.5,0.2c-0.7-0.5-1.4-1.2-1.4-2.2v-7.3H4.5c-1.7,0-3-1.3-3-3V17c0-1.7,1.3-3,3-3H24
		V6.6c0-1,0.4-1.7,1.4-2.2c0.7-0.5,1.6-0.2,2.5,0.2c9.4,6.7,18,17.3,18.2,17.8c0.2,0.2,0.4,1,0.4,1.4S46.2,25.1,46,25.6z"/>
	<path class="st2" d="M17.2,19.5c-0.1-0.3-0.2-0.5-0.5-0.7c-0.2-0.2-0.5-0.2-0.8-0.2c-0.3,0.1-0.5,0.2-0.7,0.4l-1.9,2.7L11.4,19
		c-0.2-0.2-0.4-0.4-0.7-0.4c-0.3-0.1-0.6,0-0.8,0.2c-0.2,0.2-0.4,0.4-0.5,0.7s0,0.6,0.2,0.8l2.4,3.4l-2.4,3.4
		c-0.1,0.1-0.1,0.3-0.2,0.4c0,0.1,0,0.3,0,0.4c0,0.1,0.1,0.3,0.2,0.4c0.1,0.1,0.2,0.2,0.3,0.3c0.2,0.2,0.5,0.2,0.8,0.2
		c0.3-0.1,0.5-0.2,0.7-0.5l1.9-2.7l1.9,2.7c0.2,0.2,0.4,0.4,0.7,0.5s0.6,0,0.8-0.2c0.2-0.2,0.4-0.4,0.4-0.7s0-0.6-0.2-0.8l-2.4-3.4
		l2.4-3.4C17.2,20,17.2,19.8,17.2,19.5z"/>
	<path class="st2" d="M22.8,22.9h-0.9v-0.9c0-0.3-0.1-0.6-0.3-0.8s-0.5-0.3-0.8-0.3c-0.3,0-0.6,0.1-0.8,0.3s-0.3,0.5-0.3,0.8v0.9
		h-0.9c-0.3,0-0.6,0.1-0.8,0.3c-0.2,0.2-0.3,0.5-0.3,0.8c0,0.3,0.1,0.6,0.3,0.8c0.2,0.2,0.5,0.3,0.8,0.3h0.9V26
		c0,0.3,0.1,0.6,0.3,0.8c0.2,0.2,0.5,0.3,0.8,0.3c0.3,0,0.6-0.1,0.8-0.3c0.2-0.2,0.3-0.5,0.3-0.8v-0.9h0.9c0.3,0,0.6-0.1,0.8-0.3
		c0.2-0.2,0.3-0.5,0.3-0.8c0-0.3-0.1-0.6-0.3-0.8S23.1,22.9,22.8,22.9z"/>
</g>
</svg>
