<?xml version="1.0" encoding="utf-8"?>
<!-- Generator: Adobe Illustrator 25.0.0, SVG Export Plug-In . SVG Version: 6.00 Build 0)  -->
<svg version="1.1" id="Fond" xmlns="http://www.w3.org/2000/svg" xmlns:xlink="http://www.w3.org/1999/xlink" x="0px" y="0px"
	 viewBox="0 0 48 48" style="enable-background:new 0 0 48 48;" xml:space="preserve">
<style type="text/css">
	.st0{fill:#00FF00;}
</style>
<path class="st0" d="M42,0L42,0H6C2.7,0,0,2.7,0,6v36c0,3.3,2.7,6,6,6h36c3.3,0,6-2.7,6-6V6C48,2.7,45.3,0,42,0z M7.4,43.6
	c-2,0-3.6-1.6-3.6-3.6s1.6-3.6,3.6-3.6S11,38,11,39.9S9.4,43.6,7.4,43.6z M15.7,43.6c-2,0-3.6-1.6-3.6-3.6s1.6-3.6,3.6-3.6
	c2,0,3.6,1.6,3.6,3.6S17.6,43.6,15.7,43.6z M43.5,27.9c-0.7,8.2-7.8,15.6-16.2,15.6h-3.4c-0.2,0-0.3,0-0.5,0
	c-1.5-0.2-2.8-1.4-3.1-2.8c-0.5-2.3,1.3-4.4,3.6-4.4h3.4c5.1,0,9.1-5,9-10.1c-0.1-5-4.4-8.8-9.4-8.8H14.8c-0.3,0-0.6,0.3-0.6,0.6
	v5.3c0,0.5-0.6,0.8-1,0.4l-9.2-9.2c-0.4-0.4-0.4-1,0-1.4l9.2-9.2c0.4-0.4,1-0.1,1,0.4v5.3c0,0.3,0.3,0.6,0.6,0.6h12.5
	c8.9,0,16.3,7.3,16.3,16.3C43.6,27.1,43.5,27.5,43.5,27.9z"/>
</svg>
