<?xml version="1.0" encoding="utf-8"?>
<!-- Generator: Adobe Illustrator 25.0.0, SVG Export Plug-In . SVG Version: 6.00 Build 0)  -->
<svg version="1.1" id="Fond" xmlns="http://www.w3.org/2000/svg" xmlns:xlink="http://www.w3.org/1999/xlink" x="0px" y="0px"
	 viewBox="0 0 48 48" style="enable-background:new 0 0 48 48;" xml:space="preserve">
<style type="text/css">
	.st0{fill:#00FF00;}
</style>
<g>
	<path class="st0" d="M27.1,16.9c-0.4,0-0.8,0.3-0.8,0.7l-0.8,18.3c0,0.4,0.3,0.7,0.7,0.8c0,0,0,0,0,0c0.4,0,0.7-0.3,0.7-0.7
		l0.8-18.3C27.8,17.2,27.5,16.9,27.1,16.9z"/>
	<path class="st0" d="M14.7,16.9c-0.4,0.1-0.7,0.4-0.6,0.8L16.4,36c0,0.4,0.4,0.6,0.7,0.6c0,0,0.1,0,0.1,0c0.4-0.1,0.7-0.4,0.6-0.8
		l-2.4-18.3C15.4,17.1,15.1,16.8,14.7,16.9z"/>
	<path class="st0" d="M20.9,16.9c-0.4,0-0.7,0.4-0.7,0.8L21,35.9c0,0.4,0.3,0.7,0.7,0.7c0,0,0,0,0,0c0.4,0,0.7-0.4,0.7-0.8
		l-0.8-18.3C21.6,17.2,21.3,16.9,20.9,16.9z"/>
	<path class="st0" d="M33.3,16.9c-0.4-0.1-0.8,0.2-0.8,0.6l-2.4,18.3c-0.1,0.4,0.2,0.8,0.6,0.8c0,0,0.1,0,0.1,0
		c0.4,0,0.7-0.2,0.7-0.6L34,17.7C34,17.3,33.7,16.9,33.3,16.9z"/>
	<path class="st0" d="M27.7,8.6c0-0.4-0.3-0.7-0.7-0.7h-5.9c-0.4,0-0.7,0.3-0.7,0.7v0.7h7.3V8.6z"/>
	<path class="st0" d="M42,0L42,0H6C2.7,0,0,2.7,0,6v36c0,3.3,2.7,6,6,6h36c3.3,0,6-2.7,6-6V6C48,2.7,45.3,0,42,0z M39.4,14.5h-0.9
		l-3.6,24.8c-0.3,1.4-1.4,2.4-2.8,2.4H15.9c-1.4,0-2.6-1-2.8-2.4L9.5,14.5H8.6c-0.4,0-0.7-0.3-0.7-0.7c0-1.6,1.3-2.9,2.9-3
		c0.3-0.8,1.1-1.5,2-1.5h6.1V8.6c0-1.2,1-2.2,2.2-2.2h5.9c1.2,0,2.2,1,2.2,2.2v0.7h6.1c0.9,0,1.7,0.6,2,1.5c1.6,0.1,2.9,1.4,2.9,3
		C40.1,14.1,39.8,14.5,39.4,14.5z"/>
</g>
</svg>
