<?xml version="1.0" encoding="utf-8"?>
<!-- Generator: Adobe Illustrator 25.0.0, SVG Export Plug-In . SVG Version: 6.00 Build 0)  -->
<svg version="1.1" id="Fond" xmlns="http://www.w3.org/2000/svg" xmlns:xlink="http://www.w3.org/1999/xlink" x="0px" y="0px"
	 viewBox="0 0 48 48" style="enable-background:new 0 0 48 48;" xml:space="preserve">
<style type="text/css">
	.st0{display:none;fill:none;stroke:#000000;}
	.st1{fill:none;stroke:#00FF00;}
	.st2{fill:none;}
	.st3{fill:#00FF00;}
</style>
<path class="st0" d="M24.8,8V6.4c0,0,0.1-3.9-7-3.9c-4.7,0-13.1,0.9-13.1,10.2c0,11.6,4.4,15.5,4.4,15.5"/>
<path class="st1" d="M42.6,38.6"/>
<path class="st1" d="M5.8,38.6"/>
<polygon class="st0" points="24.4,7.9 24.4,6.4 24.1,5.2 23.2,4.3 22.1,3.6 21,3.2 19.6,3 18.4,2.9 16.8,2.9 15.4,3 14.3,3.1 
	13.2,3.3 11.9,3.7 10.6,4.1 9.7,4.6 8.6,5.4 7.7,6.1 7.1,6.9 6.4,7.9 5.9,8.8 5.6,10 5.4,11.2 5.4,12.6 5.4,14 5.4,15.3 5.6,17.4 
	5.8,18.5 6.1,19.9 6.4,21.4 7,23.4 7.9,25.2 8.4,26.4 9.3,27.5 9.6,27.8 10,28.2 9,29 7.8,27.5 6.7,26.1 6,24.7 5.2,22.7 4.7,20.5 
	4.2,18.3 4,15.9 4,14.1 4,12.7 4,11.1 4.4,9.5 4.7,8.3 5.2,7.1 6.1,6 7.1,4.9 8,4.2 9.3,3.4 10.6,2.9 12.1,2.3 13.4,2 15.3,1.7 
	16.7,1.7 18.3,1.7 19.4,1.7 21.1,1.9 22.5,2.5 23.7,2.9 24.1,3.4 24.9,4.1 25.6,4.9 25.9,6.2 25.9,7.9 "/>
<line class="st2" x1="66.7" y1="45" x2="66.8" y2="45"/>
<g>
	<polygon class="st3" points="20.9,24.9 19.6,36.3 28.8,36.3 27.5,24.9 	"/>
	<polygon class="st3" points="28.6,24.9 29.9,36.3 37.9,36.3 34.8,24.9 	"/>
	<polygon class="st3" points="13.7,24.9 10.4,36.3 18.5,36.3 19.7,24.9 	"/>
	<path class="st3" d="M21.9,18.4V13H10.8v10.7H20h1.1h6.1h1.1h9.1V13l-9.9,0v5.4c0,0.6-0.5,1.1-1.1,1.1l-3.4,0
		C22.4,19.4,21.9,18.9,21.9,18.4z M23.5,20.2H26c0.2,0,0.4,0.2,0.2,0.4L25,22.7c-0.1,0.2-0.4,0.2-0.5,0l-1.2-2.1
		C23.2,20.4,23.3,20.2,23.5,20.2z"/>
	<path class="st3" d="M42,0L42,0H6C2.7,0,0,2.7,0,6v36c0,3.3,2.7,6,6,6h36c3.3,0,6-2.7,6-6V6C48,2.7,45.3,0,42,0z M43.6,42v3.4H4.7
		V42v-2.6h38.9V42z M4.7,38.6l3.2-10.3c-0.2-0.2-0.3-0.4-0.5-0.7c-0.8-1.2-1.3-2.2-1.7-3c-0.4-1-0.6-1.7-0.9-2.9
		c-1-3.9-1.1-5.5-1.1-7.7c0-1.5-0.1-2.6,0.1-3.3C4.1,9.5,4.1,9,4.6,7.9c0.6-1.4,1.5-2.5,2.2-3.1c0.8-0.7,1.1-1,2.4-1.6
		c1.1-0.5,2-0.8,3-1.1c0.6-0.2,1.8-0.4,3.7-0.5c2.5-0.1,3.1,0,3.4,0c0.7,0,1.7,0.1,3,0.6c1.1,0.4,1.8,1,2,1.2
		c0.5,0.4,0.9,0.9,1.3,1.7c0.2,0.5,0.3,1,0.3,1.5h0.6c0.6,0,1.1,0.5,1.1,1.1v3.4h9.9V6.5H39v4.6v1.1v11.5l4.6,14.9H4.7z"/>
	<path class="st3" d="M10.8,11.1h11V7.7c0-0.6,0.5-1.1,1.1-1.1h0.7c0-0.1,0-0.2,0-0.3c0-0.3-0.2-0.7-0.6-1.1
		c-0.5-0.6-1.3-0.9-2.4-1.2c-0.6-0.2-1.4-0.2-2.8-0.3c-0.5,0-0.6,0-2.7,0.1c-0.7,0-1.9,0.3-2.4,0.4c0,0-1.3,0.2-2.5,0.9
		C8.2,6,6.4,7.7,6,10.6c-0.3,1.8-0.3,3.8,0.1,7.3c0.3,2,0.3,1.5,0.6,2.8c0.7,2.9,0.9,2.9,1,3.3c0.3,0.7,0.6,1.4,0.9,1.9l0.6-2.1
		V12.3v-1.1V6.5h1.6V11.1z"/>
	<path class="st3" d="M18.1,44.6h5c0.3,0,0.5-0.2,0.5-0.5v-3.2c0-0.3-0.2-0.5-0.5-0.5h-5c-0.3,0-0.5,0.2-0.5,0.5v3.2
		C17.6,44.4,17.8,44.6,18.1,44.6z"/>
</g>
</svg>
