<?xml version="1.0" encoding="utf-8"?>
<!-- Generator: Adobe Illustrator 25.0.0, SVG Export Plug-In . SVG Version: 6.00 Build 0)  -->
<svg version="1.1" id="Fond" xmlns="http://www.w3.org/2000/svg" xmlns:xlink="http://www.w3.org/1999/xlink" x="0px" y="0px"
	 viewBox="0 0 48 48" style="enable-background:new 0 0 48 48;" xml:space="preserve">
<style type="text/css">
	.st0{fill:none;}
	.st1{fill:#00FF00;}
</style>
<g>
	<path class="st0" d="M17.6,24c0,3.5,2.9,6.4,6.4,6.4s6.4-2.9,6.4-6.4s-2.9-6.4-6.4-6.4S17.6,20.5,17.6,24z M25.5,24
		c0,0.8-0.7,1.5-1.5,1.5s-1.5-0.7-1.5-1.5s0.7-1.5,1.5-1.5S25.5,23.2,25.5,24z"/>
	<path class="st0" d="M17.6,10.3h4.1v6.3c0.7-0.2,1.5-0.3,2.3-0.3c0.8,0,1.6,0.1,2.3,0.3v-6.3h4.1c1.2,0,1.8-1.5,1-2.3L25,1.6
		c-0.3-0.3-0.6-0.4-1-0.4s-0.7,0.1-1,0.4L16.6,8C15.8,8.8,16.4,10.3,17.6,10.3z"/>
	<path class="st0" d="M16.2,24c0-0.8,0.1-1.6,0.3-2.3h-6.3v-4.1c0-0.9-0.8-1.5-1.6-1.3c-0.3,0-0.5,0.2-0.7,0.4L1.6,23
		C1,23.6,1,24.4,1.6,25L8,31.4c0.9,0.9,2.3,0.3,2.3-1v-4.1h6.3C16.3,25.6,16.2,24.8,16.2,24z"/>
	<path class="st0" d="M40,16.6c-0.2-0.2-0.5-0.3-0.7-0.4c-0.8-0.1-1.6,0.4-1.6,1.3v4.1l-6.3,0c0.2,0.7,0.3,1.5,0.3,2.3
		c0,0.8-0.1,1.6-0.3,2.3h6.3v4.1c0,1.2,1.5,1.8,2.3,1l6.4-6.4c0.5-0.5,0.5-1.4,0-1.9L40,16.6z"/>
	<path class="st0" d="M30.4,37.7h-4.1v-6.3c-0.7,0.2-1.5,0.3-2.3,0.3c-0.8,0-1.6-0.1-2.3-0.3v6.3h-4.1c-1.2,0-1.8,1.5-1,2.3l6.4,6.4
		c0.5,0.5,1.4,0.5,1.9,0l6.4-6.4C32.2,39.2,31.6,37.7,30.4,37.7z"/>
	<path class="st1" d="M42,0L42,0H6C2.7,0,0,2.7,0,6v36c0,3.3,2.7,6,6,6h36c3.3,0,6-2.7,6-6V6C48,2.7,45.3,0,42,0z M16.6,8L23,1.6
		c0.3-0.3,0.6-0.4,1-0.4s0.7,0.1,1,0.4L31.4,8c0.9,0.9,0.2,2.3-1,2.3h-4.1v6.3c-0.7-0.2-1.5-0.3-2.3-0.3c-0.8,0-1.6,0.1-2.3,0.3
		v-6.3h-4.1C16.4,10.3,15.8,8.8,16.6,8z M30.4,24c0,3.5-2.9,6.4-6.4,6.4s-6.4-2.9-6.4-6.4s2.9-6.4,6.4-6.4S30.4,20.5,30.4,24z
		 M10.3,30.4c0,1.2-1.5,1.8-2.3,1L1.6,25C1,24.4,1,23.6,1.6,23L8,16.6c0.2-0.2,0.5-0.3,0.7-0.4c0.8-0.1,1.6,0.4,1.6,1.3v4.1h6.3
		c-0.2,0.7-0.3,1.5-0.3,2.3c0,0.8,0.1,1.6,0.3,2.3h-6.3V30.4z M31.4,40L25,46.4c-0.5,0.5-1.4,0.5-1.9,0L16.6,40
		c-0.9-0.9-0.3-2.3,1-2.3h4.1v-6.3c0.7,0.2,1.5,0.3,2.3,0.3c0.8,0,1.6-0.1,2.3-0.3v6.3h4.1C31.6,37.7,32.2,39.2,31.4,40z M46.4,25
		L40,31.4c-0.9,0.9-2.3,0.3-2.3-1v-4.1h-6.3c0.2-0.7,0.3-1.5,0.3-2.3c0-0.8-0.1-1.6-0.3-2.3l6.3,0v-4.1c0-0.9,0.8-1.5,1.6-1.3
		c0.3,0,0.5,0.2,0.7,0.4l6.4,6.4C47,23.6,47,24.4,46.4,25z"/>
	<circle class="st1" cx="24" cy="24" r="1.5"/>
</g>
</svg>
