<?xml version="1.0" encoding="utf-8"?>
<!-- Generator: Adobe Illustrator 25.0.0, SVG Export Plug-In . SVG Version: 6.00 Build 0)  -->
<svg version="1.1" id="Fond" xmlns="http://www.w3.org/2000/svg" xmlns:xlink="http://www.w3.org/1999/xlink" x="0px" y="0px"
	 viewBox="0 0 48 48" style="enable-background:new 0 0 48 48;" xml:space="preserve">
<style type="text/css">
	.st0{fill:#00FF00;}
</style>
<path class="st0" d="M42,0L42,0H6C2.7,0,0,2.7,0,6v36c0,3.3,2.7,6,6,6h36c3.3,0,6-2.7,6-6V6C48,2.7,45.3,0,42,0z M44,32.6
	c-0.3,0.8-1.4,1.4-2.2,1.4H6.3c-0.8,0-1.9-0.5-2.2-1.4c-0.3-0.8,0-1.6,0.6-2.5c6.1-8.7,17.7-17.5,17.7-17.5s0.5-0.5,1.7-0.5
	c1.1,0,1.7,0.5,1.7,0.5s11.6,8.8,17.7,17.5C44,30.9,44.2,31.8,44,32.6z"/>
</svg>
