<?xml version="1.0" encoding="utf-8"?>
<!-- Generator: Adobe Illustrator 25.0.0, SVG Export Plug-In . SVG Version: 6.00 Build 0)  -->
<svg version="1.1" id="Fond" xmlns="http://www.w3.org/2000/svg" xmlns:xlink="http://www.w3.org/1999/xlink" x="0px" y="0px"
	 viewBox="0 0 48 48" style="enable-background:new 0 0 48 48;" xml:space="preserve">
<style type="text/css">
	.st0{fill:#00FF00;}
</style>
<path class="st0" d="M42,0L42,0H6C2.7,0,0,2.7,0,6v36c0,3.3,2.7,6,6,6h36c3.3,0,6-2.7,6-6V6C48,2.7,45.3,0,42,0z M41.9,31.5
	c-1,2.4-2.4,4.5-4.2,6.2c-1.7,1.7-3.8,3.1-6.2,4.2c-2.4,1-4.9,1.5-7.5,1.5c-2.9,0-5.7-0.6-8.3-1.8c-2.6-1.2-4.8-2.9-6.7-5.2
	c-0.1-0.2-0.2-0.4-0.2-0.6c0-0.2,0.1-0.4,0.2-0.5l3.5-3.5c0.2-0.2,0.4-0.2,0.6-0.2c0.3,0,0.5,0.1,0.6,0.3c1.2,1.6,2.7,2.8,4.5,3.7
	C20.1,36.5,22,37,24,37c1.8,0,3.4-0.3,5-1c1.6-0.7,3-1.6,4.1-2.8s2.1-2.5,2.8-4.1c0.7-1.6,1-3.3,1-5c0-1.8-0.3-3.4-1-5
	c-0.7-1.6-1.6-3-2.8-4.1c-1.2-1.2-2.5-2.1-4.1-2.8c-1.6-0.7-3.3-1-5-1c-1.7,0-3.2,0.3-4.8,0.9c-1.5,0.6-2.9,1.5-4.1,2.6l3.5,3.5
	c0.5,0.5,0.6,1.1,0.4,1.7c-0.3,0.7-0.8,1-1.5,1H6.2c-0.4,0-0.8-0.2-1.1-0.5c-0.3-0.3-0.5-0.7-0.5-1.1V7.8c0-0.7,0.3-1.2,1-1.5
	C6.2,6,6.8,6.1,7.3,6.7l3.3,3.3c1.8-1.7,3.9-3,6.2-4C19.1,5,21.5,4.6,24,4.6c2.6,0,5.1,0.5,7.5,1.5c2.4,1,4.5,2.4,6.2,4.2
	c1.7,1.7,3.1,3.8,4.2,6.2l0,0c1,2.4,1.5,4.9,1.5,7.5C43.4,26.6,42.9,29.1,41.9,31.5z"/>
</svg>
