<?xml version="1.0" encoding="utf-8"?>
<!-- Generator: Adobe Illustrator 25.0.0, SVG Export Plug-In . SVG Version: 6.00 Build 0)  -->
<svg version="1.1" id="Fond" xmlns="http://www.w3.org/2000/svg" xmlns:xlink="http://www.w3.org/1999/xlink" x="0px" y="0px"
	 viewBox="0 0 48 48" style="enable-background:new 0 0 48 48;" xml:space="preserve">
<style type="text/css">
	.st0{fill:#00FF00;}
</style>
<g>
	<path class="st0" d="M39,12.4c-1.7-0.4-9.1-0.7-15-0.7s-13.3,0.3-15,0.7c-0.3,0.1-0.6,0.4-0.7,0.7C7.8,15,7.6,20.6,7.6,24
		s0.2,9,0.7,10.9c0.1,0.3,0.4,0.6,0.7,0.7c1.7,0.4,9.1,0.7,15,0.7c5.9,0,13.3-0.3,15-0.7c0.3-0.1,0.6-0.4,0.7-0.7
		c0.5-1.8,0.7-7.5,0.7-10.9s-0.2-9-0.7-10.9C39.6,12.8,39.3,12.5,39,12.4z M19.9,31.1V16.9L32.2,24L19.9,31.1z"/>
	<path class="st0" d="M42,0L42,0H6C2.7,0,0,2.7,0,6v36c0,3.3,2.7,6,6,6h36c3.3,0,6-2.7,6-6V6C48,2.7,45.3,0,42,0z M43.7,36
		c-0.5,1.8-1.9,3.2-3.6,3.6C36.9,40.4,24,40.4,24,40.4s-12.9,0-16.1-0.9c-1.8-0.5-3.2-1.9-3.6-3.6c-0.9-3.2-0.9-12-0.9-12
		s0-8.7,0.9-12c0.5-1.8,1.9-3.2,3.6-3.6C11.1,7.6,24,7.6,24,7.6s12.9,0,16.1,0.9c1.8,0.5,3.2,1.9,3.6,3.6c0.9,3.2,0.9,12,0.9,12
		S44.6,32.7,43.7,36z"/>
</g>
</svg>
