<?xml version="1.0" encoding="utf-8"?>
<!-- Generator: Adobe Illustrator 25.0.0, SVG Export Plug-In . SVG Version: 6.00 Build 0)  -->
<svg version="1.1" id="Fond" xmlns="http://www.w3.org/2000/svg" xmlns:xlink="http://www.w3.org/1999/xlink" x="0px" y="0px"
	 viewBox="0 0 48 48" style="enable-background:new 0 0 48 48;" xml:space="preserve">
<style type="text/css">
	.st0{fill:#00FF00;}
</style>
<g>
	<polygon class="st0" points="14.9,9.2 11.7,12.4 11.7,14.3 14.9,14.3 	"/>
	<rect x="17" y="6.8" class="st0" width="3.2" height="7.5"/>
	<rect x="22.4" y="6.8" class="st0" width="3.2" height="7.5"/>
	<path class="st0" d="M23.5,33.7l-0.3,1.1c0,0,0.9,0,1.7,0.2l1.7-1.2C25,33.6,23.5,33.7,23.5,33.7z"/>
	<rect x="27.8" y="6.8" class="st0" width="3.2" height="7.5"/>
	<path class="st0" d="M25.8,35.4l2.8-1c-0.2-0.1-0.4-0.2-0.6-0.2l-2.5,1.1C25.7,35.2,25.8,35.3,25.8,35.4z"/>
	<path class="st0" d="M42,0L42,0H6C2.7,0,0,2.7,0,6v36c0,3.3,2.7,6,6,6h36c3.3,0,6-2.7,6-6V6C48,2.7,45.3,0,42,0z M39.6,41.2
		c0,1.8-1.4,3.2-3.2,3.2H11.7c-1.8,0-3.2-1.4-3.2-3.2V12.6c0-1,0.4-1.9,1.1-2.6l5.3-5.3c0.7-0.7,1.7-1.1,2.7-1.1h18.8
		c1.8,0,3.2,1.4,3.2,3.2V41.2z"/>
	<rect x="33.1" y="6.8" class="st0" width="3.2" height="7.5"/>
	<path class="st0" d="M29.6,34.7l-3.5,1c0,0.2,0,0.3,0,0.4c-0.4,1.3-3.8,1.5-3.8,1.5l-0.8,2.5c0,0,8.7,0,9.5-3.5
		C31.1,35.9,30.5,35.2,29.6,34.7z"/>
	<path class="st0" d="M13.6,35.3c0,2,3.4,1.9,3.4,2.7c0,0.5-2,0.2-2.7,0.2c-0.7,0-1.9-0.2-1.9-0.2L11.7,40c0,0,1.5,0.1,3.5,0.1
		c0.6,0,1.3,0,1.9,0c1.5-0.1,2.8-0.5,2.8-2c0-2.1-4.3-2-4.3-2.9c0-0.5,1.2-0.5,1.7-0.5c0.4,0,3.7,0,3.7,0l0.4-1.1
		c0,0-2.6,0.1-4.2,0.1C15.5,33.8,13.6,34.3,13.6,35.3z"/>
</g>
</svg>
