<?xml version="1.0" encoding="utf-8"?>
<!-- Generator: Adobe Illustrator 25.0.0, SVG Export Plug-In . SVG Version: 6.00 Build 0)  -->
<svg version="1.1" id="Fond" xmlns="http://www.w3.org/2000/svg" xmlns:xlink="http://www.w3.org/1999/xlink" x="0px" y="0px"
	 viewBox="0 0 48 48" style="enable-background:new 0 0 48 48;" xml:space="preserve">
<style type="text/css">
	.st0{fill:#00FF00;}
</style>
<g>
	<path class="st0" d="M42,0L42,0H6C2.7,0,0,2.7,0,6v36c0,3.3,2.7,6,6,6h36c3.3,0,6-2.7,6-6V6C48,2.7,45.3,0,42,0z M9.8,10.4
		c4.5-7.9,14.6-10.6,22.4-6.1C40,8.9,42.7,19,38.2,27c-4.5,7.9-14.6,10.6-22.4,6.1C8,28.4,5.3,18.3,9.8,10.4z M28.5,38.1
		c0.3,0,0.6,0,0.8,0.2c0.4,0.3,0.3,0.8,0,1.1l-4.6,3.9c-0.4,0.3-0.9,0.3-1.3,0l-4.6-3.9c-0.2-0.1-0.3-0.4-0.3-0.6
		c0-0.4,0.4-0.8,0.9-0.8c0,0,0.1,0,0.1,0h2.7v-0.9c0-0.4,0.4-0.8,0.9-0.8h1.8c0.5,0,0.9,0.4,0.9,0.8v0.9H28.5z M24,45.9
		c-10.8,0-21.8-1.1-21.8-3.2c0-1.2,3.6-2.1,8.6-2.6c0.1,0,0.2,0.1,0.3,0.1l2.7,1c-5,0.4-7.9,1.1-7.9,1.6c0,0.8,7.3,1.9,18.2,1.9
		s18.2-1.2,18.2-1.9c0-0.5-3-1.1-7.9-1.6l2.7-1c0.1,0,0.2-0.1,0.3-0.1c5.1,0.5,8.6,1.4,8.6,2.6C45.8,44.8,34.8,45.9,24,45.9z"/>
	<path class="st0" d="M27,7.4c1-1.1,2-1.9,2.8-2.4c0.3-0.2,0.7-0.3,1-0.4c-4.2-2.1-8.8-2.1-12.9-0.3l7.8,4.6
		C26.2,8.3,26.6,7.9,27,7.4z M26.7,3.7c0.3,0,0.6,0,0.9-0.1c0,0,0.1,0,0.1,0c0.1,0,0.1,0.1,0.1,0.2c0,0.1-0.1,0.2-0.2,0.2
		c-0.3,0-0.6,0-0.8,0c-0.1,0-0.2-0.1-0.3-0.2C26.5,3.8,26.6,3.7,26.7,3.7z M23,5.2c-0.5,0.2-1,0.5-1.5,0.8c0,0,0,0,0,0
		c-0.1,0.1-0.3,0-0.3-0.1c-0.1-0.1,0-0.3,0.1-0.3c0.5-0.3,1-0.6,1.5-0.8c0.1,0,0.2,0,0.2,0c0,0,0.1,0.1,0.1,0.1
		C23.2,5,23.2,5.2,23,5.2z M25.4,4.4c-0.4,0.1-0.8,0.2-1.2,0.4c0,0,0,0,0,0c-0.1,0-0.3,0-0.3-0.1c0-0.1,0-0.3,0.1-0.3
		c0.4-0.2,0.9-0.3,1.3-0.4c0.1,0,0.1,0,0.2,0c0.1,0,0.1,0.1,0.1,0.2C25.6,4.2,25.5,4.4,25.4,4.4z"/>
	<path class="st0" d="M25.3,32.5c-1.8,0.9-3.7,1.3-5.5,1.2c3.5,1,7.1,0.7,10.3-0.7l-2.9-1.7C26.6,31.8,25.9,32.2,25.3,32.5z"/>
	<path class="st0" d="M11.7,26C11.8,26,11.8,26,11.7,26l0.5,0c0.5,2.3,1.5,4.2,3.1,5.5c-0.1-0.3-0.1-0.6-0.1-1c0-1,0.2-2.2,0.6-3.6
		c0.1-0.3,0.2-0.6,0.3-0.9h0.5c-0.1,0.4-0.2,0.7-0.3,1.1c-0.4,1.4-0.6,2.6-0.6,3.5c0,0.9,0.2,1.4,0.5,1.6c0.3,0.2,0.7,0.1,1.3-0.1
		s1.3-0.8,2.1-1.6c0,0,0,0,0,0c0.1-0.1,0.2-0.1,0.3,0c0.1,0.1,0.1,0.2,0,0.3c-0.8,0.8-1.6,1.3-2.2,1.6c-0.2,0.1-0.3,0.2-0.5,0.2
		c2.3,0.9,5.1,0.7,7.8-0.6c0.6-0.3,1.1-0.6,1.7-1l-8.6-5h1l8.2,4.8c1.7-1.2,3.4-2.8,4.8-4.8h0.6c-1.4,2.1-3.1,3.8-4.9,5l2.9,1.7
		c2.7-1.3,5-3.3,6.7-6.1L36.2,26h0c0.2,0,0.5-0.1,0.7-0.1l0.6,0.4c1.5-2.8,2.2-5.9,1.9-8.9l-0.1-0.6c-0.4-3.5-2-6.8-4.6-9.3
		c0.7,1.1,1.2,2.5,1.5,4c0,0-0.1,0-0.1,0h-0.4c-0.5-2.3-1.5-4.3-3.1-5.6c0.1,0.3,0.1,0.6,0.1,1c0,1-0.2,2.2-0.6,3.6
		c-0.1,0.3-0.2,0.7-0.3,1h-0.5c0.1-0.4,0.3-0.8,0.4-1.2c0.4-1.4,0.6-2.6,0.6-3.5c0-0.9-0.2-1.4-0.5-1.6c-0.3-0.2-0.9-0.1-1.7,0.3
		c-0.8,0.4-1.7,1.2-2.7,2.3c-0.4,0.4-0.8,0.9-1.2,1.4l3.9,2.3h-1l-3.3-1.9c-0.5,0.6-1,1.2-1.5,1.9h-0.6c0.6-0.8,1.1-1.5,1.6-2.2
		l-8.1-4.7c-2.7,1.3-5,3.3-6.7,6.1l1.3,0.8h-0.3c-0.2,0-0.4,0-0.5,0.1l-0.8-0.4C9,13.9,8.4,17,8.6,19.9l0.1,0.6
		c0.4,3.5,2,6.8,4.6,9.3C12.5,28.8,12,27.5,11.7,26z M20.7,29.4c0.2-0.2,0.4-0.5,0.6-0.7c0.1-0.1,0.2-0.1,0.3-0.1c0,0,0,0,0,0
		c0.1,0.1,0.1,0.2,0,0.3c-0.2,0.3-0.4,0.5-0.7,0.7c0,0,0,0,0,0c-0.1,0.1-0.2,0.1-0.3,0C20.6,29.7,20.6,29.5,20.7,29.4z M30.1,15.8
		c0.2-0.4,0.4-0.7,0.7-1c0.3-0.3,0.6-0.5,1-0.7s0.8-0.3,1.2-0.3h2.8c0.3,0,0.5,0.1,0.7,0.3s0.3,0.5,0.3,0.8c0,0.3-0.1,0.6-0.3,0.8
		S36,16,35.7,16h-2.8c-0.3,0-0.5,0.1-0.6,0.3S32,16.7,32,16.9c0,0.2,0.1,0.5,0.3,0.6s0.4,0.3,0.6,0.3H34c0.4,0,0.8,0.1,1.1,0.2
		c0.4,0.2,0.7,0.4,1,0.7c0.3,0.3,0.5,0.6,0.7,1c0.2,0.4,0.3,0.8,0.3,1.2c0,0.4-0.1,0.8-0.2,1.2c-0.2,0.4-0.4,0.7-0.6,1
		c-0.3,0.3-0.6,0.5-1,0.7C34.8,23.9,34.4,24,34,24h-2.8c-0.3,0-0.6-0.1-0.8-0.3s-0.3-0.5-0.3-0.8c0-0.3,0.1-0.5,0.3-0.7
		c0.2-0.2,0.5-0.3,0.8-0.3H34c0.2,0,0.5-0.1,0.6-0.3c0.2-0.2,0.3-0.4,0.3-0.7c0-0.3-0.1-0.5-0.3-0.7S34.2,20,34,20h-1.1
		c-0.4,0-0.8-0.1-1.1-0.3c-0.4-0.2-0.7-0.4-1-0.6c-0.3-0.3-0.5-0.6-0.7-1c-0.2-0.4-0.3-0.8-0.3-1.2C29.9,16.5,29.9,16.1,30.1,15.8z
		 M23,27.5c-0.1,0.1-0.2,0.1-0.3,0c-0.1-0.1-0.1-0.2,0-0.3c0.3-0.4,0.6-0.8,0.9-1.2h0.6C23.7,26.6,23.3,27.1,23,27.5z M22.3,17.5
		c0-0.5,0.1-0.9,0.3-1.4c0.2-0.4,0.4-0.8,0.8-1.2c0.3-0.3,0.7-0.6,1.1-0.8c0.4-0.2,0.9-0.3,1.4-0.3c0.6,0,1.2,0.2,1.8,0.5
		c0.6,0.3,1,0.8,1.3,1.3c0,0.1,0.1,0.2,0.1,0.3s0.1,0.2,0.1,0.3c0,0.3-0.1,0.6-0.3,0.8c-0.2,0.2-0.5,0.3-0.8,0.3
		c-0.2,0-0.4-0.1-0.6-0.2c-0.1-0.1-0.3-0.3-0.4-0.5c-0.1-0.2-0.3-0.4-0.5-0.5c-0.2-0.1-0.5-0.2-0.7-0.2c-0.2,0-0.4,0-0.6,0.1
		c-0.2,0.1-0.3,0.2-0.5,0.3c-0.1,0.1-0.2,0.3-0.3,0.5s-0.1,0.4-0.1,0.6v2.9c0,0.2,0,0.4,0.1,0.6c0.1,0.2,0.2,0.3,0.3,0.5
		c0.1,0.1,0.3,0.2,0.5,0.3c0.2,0.1,0.4,0.1,0.6,0.1c0.3,0,0.5-0.1,0.7-0.2c0.2-0.1,0.4-0.3,0.5-0.5c0.1-0.2,0.2-0.3,0.4-0.4
		s0.3-0.2,0.6-0.2s0.5,0.1,0.7,0.3s0.3,0.5,0.3,0.8c0,0.1,0,0.2-0.1,0.3S29,22.1,29,22.2c-0.3,0.5-0.7,1-1.3,1.3
		c-0.6,0.3-1.2,0.5-1.8,0.5c-0.5,0-0.9-0.1-1.3-0.3c-0.4-0.2-0.8-0.4-1.1-0.8c-0.3-0.3-0.6-0.7-0.8-1.1c-0.2-0.4-0.3-0.9-0.3-1.4
		V17.5z M20,6.5C20,6.5,20,6.5,20,6.5c0.1-0.1,0.3-0.1,0.3,0.1c0.1,0.1,0,0.3-0.1,0.3c-1.6,1.2-3.1,2.7-4.3,4.5h-0.6
		C16.7,9.4,18.3,7.8,20,6.5z M10.9,20.8v-5.8c0-0.3,0.1-0.6,0.3-0.8c0.2-0.2,0.4-0.3,0.7-0.3c0.3,0,0.6,0.1,0.8,0.3
		c0.2,0.2,0.3,0.5,0.3,0.8v5.7c0,0.3,0.1,0.5,0.3,0.8c0.2,0.2,0.5,0.3,0.7,0.3c0.3,0,0.5-0.1,0.7-0.3s0.3-0.5,0.3-0.8v-5.7
		c0-0.3,0.1-0.6,0.3-0.8c0.2-0.2,0.5-0.3,0.8-0.3c0.3,0,0.5,0.1,0.7,0.3c0.2,0.2,0.3,0.5,0.3,0.8v5.7c0,0.3,0.1,0.5,0.3,0.8
		c0.2,0.2,0.4,0.3,0.7,0.3c0.3,0,0.6-0.1,0.8-0.3c0.2-0.2,0.3-0.5,0.3-0.8v-5.7c0-0.3,0.1-0.6,0.3-0.8c0.2-0.2,0.5-0.3,0.8-0.3
		c0.3,0,0.5,0.1,0.7,0.3s0.3,0.5,0.3,0.8v5.8c0,0.4-0.1,0.8-0.3,1.2s-0.4,0.7-0.7,1c-0.3,0.3-0.6,0.5-1,0.7S18.7,24,18.3,24
		c-0.4,0-0.7-0.1-1.1-0.2s-0.7-0.3-1-0.6c-0.3,0.3-0.6,0.5-1,0.6S14.5,24,14.1,24c-0.4,0-0.8-0.1-1.2-0.2c-0.4-0.2-0.7-0.4-1-0.7
		c-0.3-0.3-0.5-0.6-0.7-1C11,21.6,10.9,21.2,10.9,20.8z"/>
</g>
</svg>
