<?xml version="1.0" encoding="utf-8"?>
<!-- Generator: Adobe Illustrator 25.0.0, SVG Export Plug-In . SVG Version: 6.00 Build 0)  -->
<svg version="1.1" id="Fond" xmlns="http://www.w3.org/2000/svg" xmlns:xlink="http://www.w3.org/1999/xlink" x="0px" y="0px"
	 viewBox="0 0 48 48" style="enable-background:new 0 0 48 48;" xml:space="preserve">
<style type="text/css">
	.st0{fill:#00FF00;}
</style>
<g>
	<path class="st0" d="M41.2,35.1c-0.3,0-0.5,0.1-0.7,0.3c-0.2,0.2-0.3,0.4-0.3,0.7v3.2c0,0.3,0.1,0.5,0.3,0.7
		c0.2,0.2,0.4,0.3,0.7,0.3c0.3,0,0.5-0.1,0.6-0.3c0.2-0.2,0.3-0.4,0.3-0.7V36c0-0.3-0.1-0.5-0.3-0.7C41.6,35.2,41.4,35.1,41.2,35.1z
		"/>
	<path class="st0" d="M42,0L42,0H6C2.7,0,0,2.7,0,6v36c0,3.3,2.7,6,6,6h36c3.3,0,6-2.7,6-6V6C48,2.7,45.3,0,42,0z M6.5,43
		c-0.9,0.4-2,0.1-2.4-0.8c-0.4-0.9-0.1-2,0.8-2.4l17.1-10.3c0,0,0-1,0-2.6c0-6.2,0-21.7,0-21.7c0-1,0.8-1.8,1.8-1.8c0,0,0,0,0.1,0
		c1,0,1.8,0.8,1.8,1.8v24.3c0,0,0,1.1,0,2.1c-0.9,0.5-19,11.4-19,11.4C6.6,43,6.6,43,6.5,43z M31.8,40.4c0.1,0.2,0.2,0.4,0.1,0.7
		c0,0.2-0.2,0.4-0.4,0.6c-0.2,0.2-0.4,0.2-0.7,0.2c-0.2,0-0.4-0.2-0.6-0.4l-1.6-2.3l-1.6,2.3c-0.1,0.2-0.3,0.3-0.6,0.4
		s-0.5,0-0.7-0.2c-0.1-0.1-0.2-0.2-0.3-0.3s-0.1-0.2-0.1-0.3c0-0.1,0-0.2,0-0.3c0-0.1,0.1-0.2,0.1-0.3l2-2.8l-2-2.8
		c-0.2-0.2-0.2-0.4-0.2-0.7s0.2-0.4,0.4-0.6c0.2-0.1,0.4-0.2,0.7-0.1c0.2,0,0.4,0.2,0.6,0.4l1.6,2.3l1.6-2.3
		c0.2-0.2,0.3-0.3,0.6-0.4c0.2,0,0.5,0,0.7,0.1c0.2,0.2,0.3,0.3,0.4,0.6s0,0.5-0.2,0.7l-2,2.8L31.8,40.4z M37.5,38.9
		c-0.2,0.2-0.4,0.3-0.6,0.3h-3.3c-0.2,0-0.5-0.1-0.6-0.3c-0.2-0.2-0.3-0.4-0.3-0.6c0-0.2,0.1-0.4,0.3-0.6c0.2-0.2,0.4-0.3,0.6-0.3
		h3.3c0.2,0,0.4,0.1,0.6,0.3c0.2,0.2,0.3,0.4,0.3,0.6C37.8,38.6,37.7,38.8,37.5,38.9z M37.5,36.6c-0.2,0.2-0.4,0.3-0.6,0.3h-3.3
		c-0.2,0-0.5-0.1-0.6-0.3c-0.2-0.2-0.3-0.4-0.3-0.6s0.1-0.4,0.3-0.6c0.2-0.2,0.4-0.3,0.6-0.3h3.3c0.2,0,0.4,0.1,0.6,0.3
		c0.2,0.2,0.3,0.4,0.3,0.6S37.7,36.5,37.5,36.6z M43.8,39.2c0,0.4-0.1,0.7-0.2,1c-0.1,0.3-0.3,0.6-0.6,0.8s-0.5,0.4-0.8,0.6
		c-0.3,0.1-0.7,0.2-1,0.2c-0.4,0-0.7-0.1-1-0.2c-0.3-0.1-0.6-0.3-0.9-0.6c-0.2-0.2-0.4-0.5-0.6-0.8c-0.1-0.3-0.2-0.7-0.2-1V36
		c0-0.4,0.1-0.7,0.2-1c0.1-0.3,0.3-0.6,0.6-0.9c0.2-0.2,0.5-0.4,0.9-0.6c0.3-0.1,0.7-0.2,1-0.2c0.4,0,0.7,0.1,1,0.2
		c0.3,0.1,0.6,0.3,0.8,0.6c0.2,0.2,0.4,0.5,0.6,0.9c0.1,0.3,0.2,0.7,0.2,1V39.2z"/>
</g>
</svg>
