<?xml version="1.0" encoding="utf-8"?>
<!-- Generator: Adobe Illustrator 25.0.0, SVG Export Plug-In . SVG Version: 6.00 Build 0)  -->
<svg version="1.1" xmlns="http://www.w3.org/2000/svg" xmlns:xlink="http://www.w3.org/1999/xlink" x="0px" y="0px"
	 viewBox="0 0 48 48" style="enable-background:new 0 0 48 48;" xml:space="preserve">
<style type="text/css">
	.st0{fill:#00FF00;}
</style>
<g id="Fond">
</g>
<g id="Calque_2">
</g>
<g id="Calque_3">
	<g>
		<path class="st0" d="M27.1,24.5h-6.2c-0.5,0-0.9,0.2-1.2,0.5c-0.3,0.3-0.5,0.7-0.5,1.2c0,0.5,0.2,0.8,0.5,1.2
			c0.3,0.3,0.7,0.5,1.2,0.5h6.2c0.5,0,0.8-0.2,1.2-0.5c0.3-0.3,0.5-0.7,0.5-1.2c0-0.5-0.2-0.8-0.5-1.2C28,24.6,27.6,24.5,27.1,24.5z
			"/>
		<path class="st0" d="M19.7,20.6c-0.3,0.3-0.5,0.7-0.5,1.2s0.2,0.8,0.5,1.2c0.3,0.3,0.7,0.5,1.2,0.5h6.2c0.5,0,0.8-0.2,1.2-0.5
			c0.3-0.3,0.5-0.7,0.5-1.2s-0.2-0.8-0.5-1.2c-0.3-0.3-0.7-0.5-1.2-0.5h-6.2C20.4,20.1,20,20.3,19.7,20.6z"/>
		<path class="st0" d="M24,36.3c-0.3,0-0.5,0.1-0.7,0.3C23.1,36.8,23,37,23,37.3v3.4c0,0.3,0.1,0.5,0.3,0.7c0.2,0.2,0.4,0.3,0.7,0.3
			c0.3,0,0.5-0.1,0.7-0.3c0.2-0.2,0.3-0.4,0.3-0.7v-3.4c0-0.3-0.1-0.5-0.3-0.7C24.5,36.4,24.3,36.3,24,36.3z"/>
		<path class="st0" d="M33.3,36.3c-0.3,0-0.5,0.1-0.7,0.3c-0.2,0.2-0.3,0.4-0.3,0.7v3.4c0,0.3,0.1,0.5,0.3,0.7
			c0.2,0.2,0.4,0.3,0.7,0.3c0.3,0,0.5-0.1,0.7-0.3c0.2-0.2,0.3-0.4,0.3-0.7v-3.4c0-0.3-0.1-0.5-0.3-0.7
			C33.8,36.4,33.5,36.3,33.3,36.3z"/>
		<path class="st0" d="M14.7,36.3c-0.3,0-0.5,0.1-0.7,0.3c-0.2,0.2-0.3,0.4-0.3,0.7v3.4c0,0.3,0.1,0.5,0.3,0.7
			c0.2,0.2,0.4,0.3,0.7,0.3c0.3,0,0.5-0.1,0.7-0.3c0.2-0.2,0.3-0.4,0.3-0.7v-3.4c0-0.3-0.1-0.5-0.3-0.7C15.3,36.4,15,36.3,14.7,36.3
			z"/>
		<path class="st0" d="M42,0L42,0H6C2.7,0,0,2.7,0,6v36c0,3.3,2.7,6,6,6h36c3.3,0,6-2.7,6-6V6C48,2.7,45.3,0,42,0z M29.3,10.6v1.8
			c0,0.3-0.1,0.5-0.3,0.7c-0.2,0.2-0.4,0.3-0.7,0.3c-0.3,0-0.5-0.1-0.7-0.3c-0.2-0.2-0.3-0.4-0.3-0.7v-1.8c0-0.3,0.1-0.5,0.3-0.7
			s0.4-0.3,0.7-0.3c0.3,0,0.5,0.1,0.7,0.3C29.2,10.1,29.3,10.4,29.3,10.6z M33.4,24c0,5.2-4.2,9.4-9.4,9.4s-9.4-4.2-9.4-9.4
			c0-5.2,4.2-9.4,9.4-9.4S33.4,18.8,33.4,24z M21.9,2.6c0.2-0.2,0.5-0.2,0.7-0.2c0.3,0,0.5,0.2,0.6,0.4L25,5.3l1.7-2.4
			c0.2-0.2,0.4-0.4,0.6-0.4c0.3,0,0.5,0,0.7,0.2c0.2,0.2,0.4,0.4,0.4,0.6c0.1,0.3,0,0.5-0.2,0.7L26,7.3v3.3c0,0.3-0.1,0.5-0.3,0.7
			c-0.2,0.2-0.4,0.3-0.7,0.3c-0.3,0-0.5-0.1-0.7-0.3c-0.2-0.2-0.3-0.4-0.3-0.7V7.3L21.7,4c-0.1-0.2-0.2-0.5-0.2-0.7
			C21.6,3,21.7,2.8,21.9,2.6z M18.9,10.6c0-0.3,0.1-0.5,0.3-0.7s0.4-0.3,0.7-0.3c0.3,0,0.5,0.1,0.7,0.3s0.3,0.4,0.3,0.7v1.8
			c0,0.3-0.1,0.5-0.3,0.7c-0.2,0.2-0.4,0.3-0.7,0.3c-0.3,0-0.5-0.1-0.7-0.3c-0.2-0.2-0.3-0.4-0.3-0.7V10.6z M5.9,10.5
			C5.7,10,5.6,9.6,5.6,9.1V5.1c0-0.5,0.1-0.9,0.3-1.3c0.2-0.4,0.4-0.8,0.8-1.1C7,2.3,7.4,2,7.8,1.8c0.4-0.2,0.9-0.3,1.4-0.3h0.2
			c0.3,0,0.5,0.1,0.7,0.3c0.2,0.2,0.3,0.4,0.3,0.7c0,0.3-0.1,0.5-0.3,0.7C9.8,3.4,9.6,3.5,9.3,3.5c-0.2,0-0.5,0.1-0.7,0.2
			C8.4,3.8,8.3,4,8.1,4.2C7.9,4.4,7.8,4.6,7.7,4.9C7.6,5.1,7.6,5.4,7.6,5.6v3.3c0,0.2,0,0.5,0.1,0.7c0.1,0.2,0.2,0.4,0.4,0.6
			c0.2,0.2,0.3,0.3,0.6,0.4c0.2,0.1,0.4,0.1,0.7,0.1c0.3,0,0.5,0.1,0.7,0.3c0.2,0.2,0.3,0.4,0.3,0.7c0,0.3-0.1,0.5-0.3,0.7
			c-0.2,0.2-0.4,0.3-0.7,0.3H9.1c-0.5,0-0.9-0.1-1.4-0.3c-0.4-0.2-0.8-0.4-1.1-0.8C6.4,11.3,6.1,10.9,5.9,10.5z M8.6,41.4
			C8.7,41.6,8.8,41.8,9,42c0.2,0.2,0.3,0.3,0.6,0.4c0.2,0.1,0.4,0.1,0.7,0.1c0.3,0,0.5,0.1,0.7,0.3c0.2,0.2,0.3,0.4,0.3,0.7
			c0,0.3-0.1,0.5-0.3,0.7c-0.2,0.2-0.4,0.3-0.7,0.3H10c-0.5,0-0.9-0.1-1.4-0.3c-0.4-0.2-0.8-0.4-1.1-0.8S7,42.7,6.8,42.3
			c-0.2-0.4-0.3-0.9-0.3-1.3v-4.1c0-0.5,0.1-0.9,0.3-1.3c0.2-0.4,0.4-0.8,0.8-1.1c0.3-0.3,0.7-0.6,1.1-0.8c0.4-0.2,0.9-0.3,1.4-0.3
			h0.2c0.3,0,0.5,0.1,0.7,0.3c0.2,0.2,0.3,0.4,0.3,0.7c0,0.3-0.1,0.5-0.3,0.7c-0.2,0.2-0.4,0.3-0.7,0.3c-0.2,0-0.5,0.1-0.7,0.2
			C9.3,35.6,9.1,35.8,9,36c-0.2,0.2-0.3,0.4-0.4,0.7c-0.1,0.3-0.1,0.5-0.1,0.7v3.3C8.4,41,8.5,41.2,8.6,41.4z M11.2,11.2
			c-0.1-0.1-0.1-0.2-0.1-0.4c0-0.1,0-0.2,0-0.4c0-0.1,0.1-0.2,0.2-0.4L13.4,7L11.2,4c-0.2-0.2-0.2-0.5-0.2-0.7
			c0.1-0.3,0.2-0.5,0.4-0.6c0.2-0.2,0.5-0.2,0.7-0.2c0.3,0,0.5,0.2,0.6,0.4l1.7,2.5l1.7-2.5c0.2-0.2,0.4-0.4,0.6-0.4
			c0.3,0,0.5,0,0.7,0.2C17.9,2.8,18,3,18.1,3.2c0.1,0.3,0,0.5-0.2,0.7L15.8,7l2.1,3.1c0.2,0.2,0.2,0.5,0.2,0.7
			c0,0.3-0.2,0.5-0.4,0.6c-0.2,0.2-0.5,0.2-0.7,0.2c-0.3-0.1-0.5-0.2-0.6-0.4l-1.7-2.5l-1.7,2.5c-0.2,0.2-0.4,0.4-0.6,0.4
			c-0.3,0.1-0.5,0-0.7-0.2C11.4,11.4,11.3,11.3,11.2,11.2z M17.6,40.8c0,0.4-0.1,0.8-0.2,1.1c-0.2,0.4-0.4,0.7-0.6,0.9
			c-0.3,0.3-0.6,0.5-0.9,0.6c-0.4,0.2-0.7,0.2-1.1,0.2c-0.4,0-0.8-0.1-1.1-0.2c-0.4-0.2-0.7-0.4-0.9-0.6s-0.5-0.6-0.6-0.9
			s-0.2-0.7-0.2-1.1v-3.4c0-0.4,0.1-0.8,0.2-1.1c0.1-0.3,0.4-0.7,0.6-0.9s0.6-0.5,0.9-0.6c0.4-0.1,0.7-0.2,1.1-0.2
			c0.4,0,0.8,0.1,1.1,0.2c0.4,0.1,0.7,0.4,0.9,0.6c0.3,0.3,0.5,0.6,0.6,0.9c0.2,0.4,0.2,0.7,0.2,1.1V40.8z M20.3,44.5
			c0,0.3-0.1,0.5-0.3,0.7c-0.2,0.2-0.4,0.3-0.7,0.3c-0.3,0-0.5-0.1-0.7-0.3c-0.2-0.2-0.3-0.4-0.3-0.7v-1.8c0-0.3,0.1-0.5,0.3-0.7
			c0.2-0.2,0.4-0.3,0.7-0.3c0.3,0,0.5,0.1,0.7,0.3c0.2,0.2,0.3,0.4,0.3,0.7V44.5z M26.9,40.8c0,0.4-0.1,0.8-0.2,1.1
			c-0.2,0.4-0.4,0.7-0.6,0.9s-0.6,0.5-0.9,0.6c-0.4,0.2-0.7,0.2-1.1,0.2c-0.4,0-0.8-0.1-1.1-0.2c-0.4-0.2-0.7-0.4-0.9-0.6
			s-0.5-0.6-0.6-0.9s-0.2-0.7-0.2-1.1v-3.4c0-0.4,0.1-0.8,0.2-1.1c0.1-0.3,0.4-0.7,0.6-0.9s0.6-0.5,0.9-0.6c0.4-0.1,0.7-0.2,1.1-0.2
			c0.4,0,0.8,0.1,1.1,0.2c0.3,0.1,0.7,0.4,0.9,0.6s0.5,0.6,0.6,0.9c0.2,0.4,0.2,0.7,0.2,1.1V40.8z M29.6,44.5c0,0.3-0.1,0.5-0.3,0.7
			c-0.2,0.2-0.4,0.3-0.7,0.3c-0.3,0-0.5-0.1-0.7-0.3c-0.2-0.2-0.3-0.4-0.3-0.7v-1.8c0-0.3,0.1-0.5,0.3-0.7c0.2-0.2,0.4-0.3,0.7-0.3
			c0.3,0,0.5,0.1,0.7,0.3c0.2,0.2,0.3,0.4,0.3,0.7V44.5z M36.1,40.8c0,0.4-0.1,0.8-0.2,1.1c-0.2,0.4-0.4,0.7-0.6,0.9
			s-0.6,0.5-0.9,0.6c-0.4,0.2-0.7,0.2-1.1,0.2c-0.4,0-0.8-0.1-1.1-0.2c-0.3-0.2-0.7-0.4-0.9-0.6c-0.3-0.3-0.5-0.6-0.6-0.9
			c-0.1-0.4-0.2-0.7-0.2-1.1v-3.4c0-0.4,0.1-0.8,0.2-1.1c0.1-0.3,0.4-0.7,0.6-0.9c0.3-0.3,0.6-0.5,0.9-0.6c0.4-0.1,0.7-0.2,1.1-0.2
			c0.4,0,0.8,0.1,1.1,0.2c0.3,0.1,0.7,0.4,0.9,0.6s0.5,0.6,0.6,0.9c0.2,0.4,0.2,0.7,0.2,1.1V40.8z M36.5,11.3
			c-0.2,0.2-0.4,0.3-0.7,0.3h-4.6c-0.2,0-0.4-0.1-0.5-0.2c-0.1-0.1-0.3-0.2-0.3-0.4c-0.1-0.1-0.1-0.3-0.1-0.5s0-0.3,0.1-0.5l0,0
			L34,4.4h-2.9c-0.3,0-0.5-0.1-0.7-0.3c-0.2-0.2-0.3-0.4-0.3-0.7c0-0.3,0.1-0.5,0.3-0.7c0.2-0.2,0.4-0.3,0.7-0.3h4.6
			c0.2,0,0.3,0.1,0.5,0.2c0.1,0.1,0.3,0.2,0.3,0.4c0.1,0.1,0.1,0.3,0.1,0.5c0,0.2-0.1,0.4-0.2,0.5L33,9.7h2.8c0.3,0,0.5,0.1,0.7,0.3
			c0.2,0.2,0.3,0.4,0.3,0.7C36.8,10.9,36.7,11.2,36.5,11.3z M41.5,41c0,0.5-0.1,0.9-0.3,1.3c-0.2,0.4-0.4,0.8-0.8,1.1
			s-0.7,0.6-1.1,0.8c-0.4,0.2-0.9,0.3-1.3,0.3h-0.2c-0.3,0-0.5-0.1-0.7-0.3s-0.3-0.4-0.3-0.7c0-0.3,0.1-0.5,0.3-0.7
			c0.2-0.2,0.4-0.3,0.7-0.3c0.2,0,0.5,0,0.7-0.1c0.2-0.1,0.4-0.2,0.6-0.4c0.2-0.2,0.3-0.4,0.4-0.6c0.1-0.2,0.1-0.4,0.1-0.7v-3.3
			c0-0.2,0-0.5-0.1-0.7c-0.1-0.3-0.2-0.5-0.4-0.7c-0.2-0.2-0.3-0.4-0.6-0.5c-0.2-0.1-0.4-0.2-0.7-0.2c-0.3,0-0.5-0.1-0.7-0.3
			c-0.2-0.2-0.3-0.4-0.3-0.7c0-0.3,0.1-0.5,0.3-0.7c0.2-0.2,0.4-0.3,0.7-0.3H38c0.5,0,0.9,0.1,1.3,0.3c0.4,0.2,0.8,0.4,1.1,0.8
			c0.3,0.3,0.6,0.7,0.8,1.1c0.2,0.4,0.3,0.9,0.3,1.3V41z M42.4,9.1c0,0.5-0.1,0.9-0.3,1.3c-0.2,0.4-0.4,0.8-0.8,1.1
			c-0.3,0.3-0.7,0.6-1.1,0.8c-0.4,0.2-0.9,0.3-1.3,0.3h-0.2c-0.3,0-0.5-0.1-0.7-0.3c-0.2-0.2-0.3-0.4-0.3-0.7c0-0.3,0.1-0.5,0.3-0.7
			c0.2-0.2,0.4-0.3,0.7-0.3c0.2,0,0.5,0,0.7-0.1c0.2-0.1,0.4-0.2,0.6-0.4c0.2-0.2,0.3-0.4,0.4-0.6c0.1-0.2,0.1-0.4,0.1-0.7V5.6
			c0-0.2,0-0.5-0.1-0.7c-0.1-0.3-0.2-0.5-0.4-0.7c-0.2-0.2-0.3-0.4-0.6-0.5c-0.2-0.1-0.4-0.2-0.7-0.2c-0.3,0-0.5-0.1-0.7-0.3
			c-0.2-0.2-0.3-0.4-0.3-0.7c0-0.3,0.1-0.5,0.3-0.7c0.2-0.2,0.4-0.3,0.7-0.3h0.2c0.5,0,0.9,0.1,1.3,0.3C40.6,2,41,2.3,41.3,2.6
			c0.3,0.3,0.6,0.7,0.8,1.1c0.2,0.4,0.3,0.9,0.3,1.3V9.1z"/>
	</g>
</g>
</svg>
