<?xml version="1.0" encoding="utf-8"?>
<!-- Generator: Adobe Illustrator 25.0.0, SVG Export Plug-In . SVG Version: 6.00 Build 0)  -->
<svg version="1.1" id="Fond" xmlns="http://www.w3.org/2000/svg" xmlns:xlink="http://www.w3.org/1999/xlink" x="0px" y="0px"
	 viewBox="0 0 48 48" style="enable-background:new 0 0 48 48;" xml:space="preserve">
<style type="text/css">
	.st0{fill:#00FF00;}
	.st1{display:none;}
	.st2{display:inline;fill:#FFFFFF;}
	.st3{display:inline;}
	.st4{fill:#FFFFFF;}
</style>
<g>
	<path class="st0" d="M42,0L42,0H6C2.7,0,0,2.7,0,6v36c0,3.3,2.7,6,6,6h36c3.3,0,6-2.7,6-6V6C48,2.7,45.3,0,42,0z M9.5,35.7
		l-2.2,3.1V42c0,0.3-0.1,0.5-0.3,0.7c-0.2,0.2-0.4,0.3-0.7,0.3c-0.3,0-0.5-0.1-0.7-0.3c-0.2-0.2-0.3-0.4-0.3-0.7v-3.2l-2.2-3.1
		C3,35.5,2.9,35.2,3,35s0.2-0.4,0.4-0.6c0.2-0.1,0.4-0.2,0.7-0.2c0.3,0,0.5,0.2,0.6,0.4L6.3,37l1.6-2.3c0.1-0.2,0.4-0.4,0.6-0.4
		s0.5,0,0.7,0.2c0.2,0.2,0.4,0.4,0.4,0.6S9.7,35.5,9.5,35.7z M15.4,39.9c-0.2,0.2-0.4,0.3-0.6,0.3h-3.4c-0.3,0-0.5-0.1-0.7-0.3
		s-0.3-0.4-0.3-0.6s0.1-0.5,0.3-0.6s0.4-0.3,0.7-0.3h3.4c0.3,0,0.5,0.1,0.6,0.3s0.3,0.4,0.3,0.6S15.5,39.7,15.4,39.9z M15.4,37.6
		c-0.2,0.2-0.4,0.3-0.6,0.3h-3.4c-0.3,0-0.5-0.1-0.7-0.3s-0.3-0.4-0.3-0.6s0.1-0.5,0.3-0.6c0.2-0.2,0.4-0.3,0.7-0.3h3.4
		c0.3,0,0.5,0.1,0.6,0.3c0.2,0.2,0.3,0.4,0.3,0.6S15.5,37.4,15.4,37.6z M22,40.2c0,0.4-0.1,0.7-0.2,1.1c-0.1,0.3-0.3,0.6-0.6,0.9
		s-0.5,0.4-0.9,0.6s-0.7,0.2-1.1,0.2s-0.8-0.1-1.1-0.2s-0.6-0.3-0.9-0.6c-0.3-0.2-0.5-0.5-0.6-0.9c-0.1-0.3-0.2-0.7-0.2-1.1v-3.2
		c0-0.4,0.1-0.7,0.2-1.1c0.1-0.3,0.3-0.6,0.6-0.9c0.3-0.3,0.6-0.4,0.9-0.6s0.7-0.2,1.1-0.2s0.8,0.1,1.1,0.2s0.6,0.3,0.9,0.6
		s0.5,0.5,0.6,0.9c0.1,0.3,0.2,0.7,0.2,1.1V40.2z M44.6,43.2c-0.5,0.9-1.6,1.3-2.5,0.9c-0.1,0-0.1-0.1-0.2-0.1c0,0-19-11.2-20-11.7
		c0-1.1,0-2.2,0-2.2v-25c0-1,0.8-1.9,1.9-1.9c0,0,0,0,0.1,0c1,0,1.9,0.9,1.9,1.9c0,0,0,15.9,0,22.3c0,1.6,0,2.6,0,2.6l18,10.6
		C44.7,41.2,45.1,42.3,44.6,43.2z"/>
	<path class="st0" d="M19.2,36c-0.3,0-0.5,0.1-0.7,0.3c-0.2,0.2-0.3,0.4-0.3,0.7v3.2c0,0.3,0.1,0.5,0.3,0.7c0.2,0.2,0.4,0.3,0.7,0.3
		s0.5-0.1,0.7-0.3c0.2-0.2,0.3-0.4,0.3-0.7v-3.2c0-0.3-0.1-0.5-0.3-0.7C19.7,36.1,19.4,36,19.2,36z"/>
</g>
<g class="st1">
	<path class="st2" d="M22.1,26.8c0-6.2,0-21.7,0-21.7c0-1,0.8-1.8,1.8-1.8c0,0,0,0,0.1,0c1,0,1.8,0.8,1.8,1.8v24.3c0,0,0,1.1,0,2.1
		c-0.9,0.5-19,11.4-19,11.4c0,0-0.1,0.1-0.1,0.1c-0.9,0.4-2,0.1-2.4-0.8s-0.1-2,0.8-2.4l17.1-10.3C22.1,29.4,22.1,28.4,22.1,26.8z"
		/>
	<g class="st3">
		<path class="st4" d="M31.9,41.1c0,0.2-0.2,0.4-0.4,0.6c-0.2,0.2-0.4,0.2-0.7,0.2c-0.2,0-0.4-0.2-0.6-0.4l-1.6-2.3l-1.6,2.3
			c-0.1,0.2-0.3,0.3-0.6,0.4s-0.5,0-0.7-0.2c-0.1-0.1-0.2-0.2-0.3-0.3s-0.1-0.2-0.1-0.3c0-0.1,0-0.2,0-0.3c0-0.1,0.1-0.2,0.1-0.3
			l2-2.8l-2-2.8c-0.2-0.2-0.2-0.4-0.2-0.7s0.2-0.4,0.4-0.6c0.2-0.1,0.4-0.2,0.7-0.1c0.2,0,0.4,0.2,0.6,0.4l1.6,2.3l1.6-2.3
			c0.2-0.2,0.3-0.3,0.6-0.4c0.2,0,0.5,0,0.7,0.1c0.2,0.2,0.3,0.3,0.4,0.6s0,0.5-0.2,0.7l-2,2.8l2,2.8C31.9,40.6,32,40.9,31.9,41.1z"
			/>
		<path class="st4" d="M37.8,36c0,0.2-0.1,0.4-0.3,0.6c-0.2,0.2-0.4,0.3-0.6,0.3h-3.3c-0.2,0-0.5-0.1-0.6-0.3
			c-0.2-0.2-0.3-0.4-0.3-0.6s0.1-0.4,0.3-0.6c0.2-0.2,0.4-0.3,0.6-0.3h3.3c0.2,0,0.4,0.1,0.6,0.3C37.7,35.6,37.8,35.8,37.8,36z
			 M37.8,38.3c0,0.2-0.1,0.4-0.3,0.6c-0.2,0.2-0.4,0.3-0.6,0.3h-3.3c-0.2,0-0.5-0.1-0.6-0.3c-0.2-0.2-0.3-0.4-0.3-0.6
			c0-0.2,0.1-0.4,0.3-0.6c0.2-0.2,0.4-0.3,0.6-0.3h3.3c0.2,0,0.4,0.1,0.6,0.3C37.7,37.9,37.8,38.1,37.8,38.3z"/>
		<path class="st4" d="M41.2,33.4c0.4,0,0.7,0.1,1,0.2c0.3,0.1,0.6,0.3,0.8,0.6c0.2,0.2,0.4,0.5,0.6,0.9c0.1,0.3,0.2,0.7,0.2,1v3.2
			c0,0.4-0.1,0.7-0.2,1c-0.1,0.3-0.3,0.6-0.6,0.8s-0.5,0.4-0.8,0.6c-0.3,0.1-0.7,0.2-1,0.2c-0.4,0-0.7-0.1-1-0.2
			c-0.3-0.1-0.6-0.3-0.9-0.6c-0.2-0.2-0.4-0.5-0.6-0.8c-0.1-0.3-0.2-0.7-0.2-1V36c0-0.4,0.1-0.7,0.2-1c0.1-0.3,0.3-0.6,0.6-0.9
			c0.2-0.2,0.5-0.4,0.9-0.6C40.4,33.4,40.8,33.4,41.2,33.4z M42.1,36c0-0.3-0.1-0.5-0.3-0.7c-0.2-0.2-0.4-0.3-0.6-0.3
			c-0.3,0-0.5,0.1-0.7,0.3c-0.2,0.2-0.3,0.4-0.3,0.7v3.2c0,0.3,0.1,0.5,0.3,0.7c0.2,0.2,0.4,0.3,0.7,0.3c0.3,0,0.5-0.1,0.6-0.3
			c0.2-0.2,0.3-0.4,0.3-0.7V36z"/>
	</g>
</g>
</svg>
