<?xml version="1.0" encoding="utf-8"?>
<!-- Generator: Adobe Illustrator 25.0.0, SVG Export Plug-In . SVG Version: 6.00 Build 0)  -->
<svg version="1.1" id="Fond" xmlns="http://www.w3.org/2000/svg" xmlns:xlink="http://www.w3.org/1999/xlink" x="0px" y="0px"
	 viewBox="0 0 48 48" style="enable-background:new 0 0 48 48;" xml:space="preserve">
<style type="text/css">
	.st0{fill:none;}
	.st1{fill:#00FF00;}
</style>
<path class="st0" d="M27.3,24.5"/>
<path class="st0" d="M32.9,40.6H16.8c-0.9,0-1.6,0.7-1.6,1.7s0.7,1.8,1.6,1.8h16c0.9,0,1.7-0.7,1.7-1.7S33.8,40.6,32.9,40.6z"/>
<path class="st0" d="M41.5,5.6H17.4v3.5h24.1v21H14.1v7h27.4c1.8,0,3.2-1.6,3.2-3.5V9.1C44.7,7.2,43.3,5.6,41.5,5.6z M25.4,35.3
	c-0.9,0-1.6-0.7-1.6-1.7c0-0.9,0.7-1.7,1.6-1.7c0.9,0,1.6,0.7,1.6,1.7C27,34.5,26.3,35.3,25.4,35.3z"/>
<path class="st0" d="M13.5,9.7c0-0.6-0.5-1.2-1.2-1.2V2.6H4.4v5.9C3.8,8.5,3.3,9,3.3,9.7V16c0,1.1,0.9,2,2,2h1.4v25.4
	c0,1.1,0.7,1.9,1.7,1.9c1,0,1.7-0.7,1.7-1.8V17.9h1.4c1.1,0,2-0.9,2-2V9.7z M7.6,6.6H6V5.4h1.6V6.6z M10.7,6.6H9.2V5.4h1.6V6.6z"/>
<g>
	<path class="st1" d="M24.7,32.1c-1,0-1.7,0.9-1.7,1.8c0,1.1,0.7,1.8,1.7,1.8c1,0,1.7-0.9,1.7-1.8C26.4,32.9,25.7,32.1,24.7,32.1z"
		/>
	<path class="st1" d="M42,0H6C2.7,0,0,2.7,0,6v36c0,3.3,2.7,6,6,6h36c3.3,0,6-2.7,6-6V6C48,2.7,45.3,0,42,0z M5.5,20.9
		c-0.2,0.5-0.9,0.6-1.4,0.2l-1.5-1.5c-0.5-0.5-0.5-1.3,0-1.7l1.5-1.5c0.4-0.4,1.1-0.3,1.4,0.2C5.9,17.3,6,18,6,18.8
		S5.9,20.3,5.5,20.9z M6.9,23.8L6.9,23.8c-0.4-0.4-0.5-1.1-0.2-1.6c0.6-1,1-2.2,1-3.5c0-1.3-0.4-2.5-1-3.5c-0.3-0.5-0.3-1.1,0.2-1.6
		c0.6-0.6,1.5-0.5,2,0.2c0.9,1.4,1.4,3,1.4,4.8c0,1.8-0.5,3.4-1.4,4.8C8.4,24.3,7.5,24.4,6.9,23.8z M9.8,26.8
		c-0.4-0.4-0.5-1.1-0.1-1.5c1.4-1.8,2.2-4,2.2-6.5c0-2.4-0.8-4.7-2.2-6.5c-0.3-0.5-0.3-1.1,0.1-1.5c0.5-0.5,1.3-0.5,1.7,0.1
		c1.8,2.2,2.8,4.9,2.8,7.9c0,3-1.1,5.8-2.8,7.9C11.1,27.2,10.3,27.3,9.8,26.8z M32.7,43.8h-16c-0.9,0-1.6-0.8-1.6-1.8
		s0.7-1.7,1.6-1.7h16.1c0.9,0,1.6,0.8,1.6,1.8S33.6,43.8,32.7,43.8z M45.3,33.9c0,2-1.5,3.7-3.4,3.7H12.7v-7.4h29.1V7.9H12.7V4.2
		h29.1c1.9,0,3.4,1.7,3.4,3.7V33.9z"/>
</g>
</svg>
