<?xml version="1.0" encoding="utf-8"?>
<!-- Generator: Adobe Illustrator 25.0.0, SVG Export Plug-In . SVG Version: 6.00 Build 0)  -->
<svg version="1.1" id="Fond" xmlns="http://www.w3.org/2000/svg" xmlns:xlink="http://www.w3.org/1999/xlink" x="0px" y="0px"
	 viewBox="0 0 48 48" style="enable-background:new 0 0 48 48;" xml:space="preserve">
<style type="text/css">
	.st0{fill:#00FF00;}
</style>
<g>
	<path class="st0" d="M32.3,23.5c-0.7,0.7-1.9,0.7-2.6,0l-5.2-5.2c-0.7-0.7-0.7-1.9,0-2.6l5.2-5.2c-3.4-1.2-9.3,1.5-11.6,3.9
		c-2.6,2.6-2.3,6-0.3,9.3L6.6,34.9c1.7,2.6,3.9,4.8,6.5,6.5l11.1-11.2c3.3,2,6.7,2.3,9.3-0.3c2.4-2.4,5.1-8.2,3.9-11.6L32.3,23.5z"
		/>
	<path class="st0" d="M42,0L42,0H6C2.7,0,0,2.7,0,6v36c0,3.3,2.7,6,6,6h36c3.3,0,6-2.7,6-6V6C48,2.7,45.3,0,42,0z M24,46.6
		C11.6,46.6,1.4,36.4,1.4,24S11.6,1.4,24,1.4S46.6,11.6,46.6,24S36.4,46.6,24,46.6z"/>
</g>
</svg>
