<?xml version="1.0" encoding="utf-8"?>
<!-- Generator: Adobe Illustrator 25.0.0, SVG Export Plug-In . SVG Version: 6.00 Build 0)  -->
<svg version="1.1" id="Fond" xmlns="http://www.w3.org/2000/svg" xmlns:xlink="http://www.w3.org/1999/xlink" x="0px" y="0px"
	 viewBox="0 0 48 48" style="enable-background:new 0 0 48 48;" xml:space="preserve">
<style type="text/css">
	.st0{fill:#00FF00;}
</style>
<g>
	<path class="st0" d="M32.7,21.3h-13V17c0-2.4,1.9-4.3,4.3-4.3c1.8,0,3.5,1.2,4.1,2.9c0.4,1.1,1.6,1.7,2.8,1.3
		c1.1-0.4,1.7-1.6,1.3-2.8c-1.2-3.5-4.5-5.8-8.2-5.8c-4.8,0-8.7,3.9-8.7,8.7v4.3c-1.2,0-2.2,1-2.2,2.2v10.9c0,1.2,1,2.2,2.2,2.2
		h17.4c1.2,0,2.2-1,2.2-2.2V23.5C34.9,22.3,33.9,21.3,32.7,21.3z"/>
	<path class="st0" d="M42,0L42,0H6C2.7,0,0,2.7,0,6v36c0,3.3,2.7,6,6,6h36c3.3,0,6-2.7,6-6V6C48,2.7,45.3,0,42,0z M24,44.4
		C12.7,44.4,3.6,35.3,3.6,24S12.7,3.6,24,3.6S44.4,12.7,44.4,24S35.3,44.4,24,44.4z"/>
</g>
</svg>
