<?xml version="1.0" encoding="utf-8"?>
<!-- Generator: Adobe Illustrator 25.0.0, SVG Export Plug-In . SVG Version: 6.00 Build 0)  -->
<svg version="1.1" id="Fond" xmlns="http://www.w3.org/2000/svg" xmlns:xlink="http://www.w3.org/1999/xlink" x="0px" y="0px"
	 viewBox="0 0 48 48" style="enable-background:new 0 0 48 48;" xml:space="preserve">
<style type="text/css">
	.st0{fill:#00FF00;}
</style>
<g>
	<path class="st0" d="M38.2,35.8c-1.3,0-2.3,1-2.3,2.3c0,1.3,1,2.3,2.3,2.3c1.3,0,2.3-1,2.3-2.3C40.4,36.9,39.4,35.8,38.2,35.8z"/>
	<path class="st0" d="M32.4,35.9c-1.3,0-2.3,1-2.3,2.3c0,1.3,1,2.3,2.3,2.3c1.3,0,2.3-1,2.3-2.3C34.7,36.9,33.7,35.9,32.4,35.9z"/>
	<path class="st0" d="M26.6,35.8h-12V29h2.7c1.2,0,1.9-1.3,1.3-2.3l-5-8.6c-0.6-1-2.1-1-2.7,0l-5,8.6c-0.6,1,0.1,2.3,1.3,2.3h2.7v9
		c0,1.3,1,2.3,2.3,2.3h14.3c1.3,0,2.3-1,2.3-2.3S27.9,35.8,26.6,35.8z"/>
	<path class="st0" d="M42,0L42,0H6C2.7,0,0,2.7,0,6v36c0,3.3,2.7,6,6,6h36c3.3,0,6-2.7,6-6V6C48,2.7,45.3,0,42,0z M45.7,41
		c0,1.6-1.3,2.8-2.8,2.8H5.2c-1.6,0-2.8-1.3-2.8-2.8V15.5c0-0.5,0.4-0.9,0.9-0.9h41.4c0.5,0,0.9,0.4,0.9,0.9V41z M45.7,12.7h-0.9
		H3.3H2.3V7c0-1.6,1.3-2.8,2.8-2.8h8.5c1.2,0,2,1.2,2.7,2.3C16.6,7,17.2,7.9,17.4,8l25.4,0c1.6,0,2.8,1.3,2.8,2.8V12.7z"/>
</g>
</svg>
