<?xml version="1.0" encoding="utf-8"?>
<!-- Generator: Adobe Illustrator 25.0.0, SVG Export Plug-In . SVG Version: 6.00 Build 0)  -->
<svg version="1.1" id="Fond" xmlns="http://www.w3.org/2000/svg" xmlns:xlink="http://www.w3.org/1999/xlink" x="0px" y="0px"
	 viewBox="0 0 48 48" style="enable-background:new 0 0 48 48;" xml:space="preserve">
<style type="text/css">
	.st0{fill:none;}
	.st1{fill:#00FF00;}
</style>
<path class="st0" d="M27.3,24.5"/>
<path class="st0" d="M32.9,40.6H16.8c-0.9,0-1.6,0.7-1.6,1.7s0.7,1.8,1.6,1.8h16c0.9,0,1.7-0.7,1.7-1.7S33.8,40.6,32.9,40.6z"/>
<path class="st0" d="M41.5,5.6H17.4v3.5h24.1v21H14.1v7h27.4c1.8,0,3.2-1.6,3.2-3.5V9.1C44.7,7.2,43.3,5.6,41.5,5.6z M25.4,35.3
	c-0.9,0-1.6-0.7-1.6-1.7c0-0.9,0.7-1.7,1.6-1.7c0.9,0,1.6,0.7,1.6,1.7C27,34.5,26.3,35.3,25.4,35.3z"/>
<path class="st0" d="M13.5,9.7c0-0.6-0.5-1.2-1.2-1.2V2.6H4.4v5.9C3.8,8.5,3.3,9,3.3,9.7V16c0,1.1,0.9,2,2,2h1.4v25.4
	c0,1.1,0.7,1.9,1.7,1.9c1,0,1.7-0.7,1.7-1.8V17.9h1.4c1.1,0,2-0.9,2-2V9.7z M7.6,6.6H6V5.4h1.6V6.6z M10.7,6.6H9.2V5.4h1.6V6.6z"/>
<g>
	<path class="st1" d="M23.9,32.4c-1,0-1.7,0.9-1.7,1.8c0,1.1,0.7,1.8,1.7,1.8c1,0,1.7-0.9,1.7-1.8C25.6,33.1,24.8,32.4,23.9,32.4z"
		/>
	<path class="st1" d="M42,0H6C2.7,0,0,2.7,0,6v36c0,3.3,2.7,6,6,6h36c3.3,0,6-2.7,6-6V6C48,2.7,45.3,0,42,0z M9.3,18.3v24
		c0,1-0.7,1.7-1.6,1.7c-0.9,0-1.6-0.8-1.6-1.8V18.3H4.8c-1,0-1.8-0.8-1.8-1.8v-5.9c0-0.6,0.5-1.1,1.1-1.1V3.9h7.4v5.5
		c0.6,0,1.1,0.5,1.1,1.1v5.9c0,1-0.8,1.8-1.8,1.8H9.3z M31.8,44.1h-16c-0.9,0-1.6-0.8-1.6-1.8s0.7-1.7,1.6-1.7h16.1
		c0.9,0,1.6,0.8,1.6,1.8S32.7,44.1,31.8,44.1z M44.4,34.2c0,2-1.5,3.7-3.4,3.7H11.8v-7.4H41V8.2H14.1V4.4H41c1.9,0,3.4,1.7,3.4,3.7
		V34.2z"/>
</g>
<g>
	<rect x="5.4" y="5.4" class="st1" width="1.6" height="1.2"/>
	<rect x="8.5" y="5.4" class="st1" width="1.6" height="1.2"/>
</g>
</svg>
