<?xml version="1.0" encoding="utf-8"?>
<!-- Generator: Adobe Illustrator 25.0.0, SVG Export Plug-In . SVG Version: 6.00 Build 0)  -->
<svg version="1.1" id="Fond" xmlns="http://www.w3.org/2000/svg" xmlns:xlink="http://www.w3.org/1999/xlink" x="0px" y="0px"
	 viewBox="0 0 48 48" style="enable-background:new 0 0 48 48;" xml:space="preserve">
<style type="text/css">
	.st0{fill:#00FF00;}
</style>
<g>
	<path class="st0" d="M19,33.2c-0.1-0.2-0.3-0.4-0.6-0.5c-0.2-0.1-0.5-0.1-0.7,0.1s-0.4,0.3-0.5,0.6c-0.1,0.3-0.1,0.5,0.1,0.7
		l1.6,2.9c0.1,0.2,0.3,0.4,0.6,0.5c0.3,0.1,0.5,0.1,0.7-0.1c0.2-0.1,0.4-0.3,0.5-0.6c0.1-0.3,0-0.5-0.1-0.7L19,33.2z"/>
	<path class="st0" d="M42,0L42,0H6C2.7,0,0,2.7,0,6v36c0,3.3,2.7,6,6,6h36c3.3,0,6-2.7,6-6V6C48,2.7,45.3,0,42,0z M10.1,44.5
		C10,44.8,9.9,45,9.6,45.1c-0.2,0.1-0.5,0.1-0.7,0.1c-0.2-0.1-0.4-0.2-0.6-0.5l-1.5-2.9l-3.5-1.8c-0.2-0.1-0.4-0.3-0.5-0.6
		s-0.1-0.5,0-0.7c0.1-0.2,0.3-0.4,0.6-0.5c0.2-0.1,0.5-0.1,0.7,0.1l2.6,1.3l0.3-2.9c0-0.3,0.1-0.5,0.3-0.6C7.6,36,7.9,36,8.1,36
		c0.3,0,0.5,0.2,0.7,0.3C8.9,36.5,9,36.8,9,37.1L8.5,41l1.5,2.9C10.1,44.1,10.2,44.3,10.1,44.5z M10.8,38.2
		c-0.2-0.1-0.4-0.2-0.5-0.5c-0.1-0.2-0.1-0.5-0.1-0.7s0.2-0.4,0.5-0.6l3.1-1.6c0.2-0.1,0.5-0.1,0.7-0.1s0.4,0.2,0.5,0.4
		c0.1,0.2,0.1,0.5,0.1,0.7s-0.2,0.4-0.4,0.5l-3.1,1.6C11.3,38.3,11.1,38.3,10.8,38.2z M16.2,38.1c-0.1,0.2-0.2,0.4-0.4,0.5l-3.1,1.6
		c-0.2,0.1-0.5,0.1-0.7,0.1c-0.2-0.1-0.4-0.2-0.5-0.4c-0.1-0.2-0.1-0.5-0.1-0.7s0.2-0.4,0.5-0.6l3.1-1.6c0.2-0.1,0.5-0.1,0.7-0.1
		c0.2,0.1,0.4,0.2,0.5,0.5C16.2,37.6,16.3,37.9,16.2,38.1z M22.4,37.4c-0.1,0.3-0.3,0.7-0.5,1c-0.2,0.3-0.5,0.5-0.9,0.7
		c-0.3,0.2-0.7,0.3-1.1,0.3c-0.4,0-0.7,0-1.1-0.1s-0.7-0.3-1-0.5s-0.5-0.5-0.7-0.9l-1.6-2.9c-0.2-0.3-0.3-0.7-0.3-1.1
		c0-0.4,0-0.7,0.1-1.1s0.3-0.7,0.5-1s0.5-0.5,0.9-0.7s0.7-0.3,1.1-0.3c0.4,0,0.7,0,1.1,0.1c0.3,0.1,0.7,0.3,1,0.5
		c0.3,0.2,0.5,0.5,0.7,0.9l1.6,2.9c0.2,0.3,0.3,0.7,0.3,1.1C22.5,36.7,22.5,37,22.4,37.4z M44.6,39.2c-0.5,0.9-1.6,1.3-2.5,0.9
		c-0.1,0-18.7-6.5-19.7-7c0-1.1,0-2.3,0-2.3V5.1c0-1.1,0.8-1.9,1.9-1.9c0,0,0,0,0.1,0c1,0,1.9,0.9,1.9,1.9c0,0,0,16.4,0,23
		c0,1.7,0,2.7,0,2.7l17.6,5.8C44.7,37.1,45.1,38.2,44.6,39.2z"/>
</g>
</svg>
