<?xml version="1.0" encoding="utf-8"?>
<!-- Generator: Adobe Illustrator 25.0.0, SVG Export Plug-In . SVG Version: 6.00 Build 0)  -->
<svg version="1.1" id="Fond" xmlns="http://www.w3.org/2000/svg" xmlns:xlink="http://www.w3.org/1999/xlink" x="0px" y="0px"
	 viewBox="0 0 48 48" style="enable-background:new 0 0 48 48;" xml:space="preserve">
<style type="text/css">
	.st0{fill:none;}
	.st1{fill:#00FF00;}
</style>
<g>
	<rect x="24.6" y="13" class="st0" width="2.3" height="1.7"/>
	<rect x="20" y="13" class="st0" width="2.3" height="1.7"/>
	<path class="st0" d="M6.9,24c0,9.4,7.7,17.1,17.1,17.1c3.8,0,7.3-1.2,10.1-3.3L10.5,13.5C8.3,16.4,6.9,20.1,6.9,24z M16.4,20.8
		l10.7,11h-1.4v8.5c-0.6,0.1-1.2,0.1-1.8,0.1c-1,0-2-0.1-2.9-0.3v-8.3h-2c-1.5,0-2.7-1.2-2.7-2.7V20.8z"/>
	<path class="st0" d="M24,6.9c-3.8,0-7.3,1.2-10.1,3.3l23.6,24.2c2.2-2.9,3.6-6.5,3.6-10.5C41.1,14.6,33.4,6.9,24,6.9z M30.4,26.1
		L18.1,13.4v-2.6h10.7v8c0.9,0,1.6,0.7,1.6,1.6V26.1z"/>
	<path class="st0" d="M24,0.9C11.2,0.9,0.9,11.2,0.9,24S11.2,47.1,24,47.1S47.1,36.8,47.1,24S36.8,0.9,24,0.9z M24,45.2
		C12.3,45.2,2.8,35.7,2.8,24S12.3,2.8,24,2.8c11.7,0,21.2,9.5,21.2,21.2S35.7,45.2,24,45.2z"/>
	<path class="st1" d="M42,0L42,0H6C2.7,0,0,2.7,0,6v36c0,3.3,2.7,6,6,6h36c3.3,0,6-2.7,6-6V6C48,2.7,45.3,0,42,0z M24,47.1
		C11.2,47.1,0.9,36.8,0.9,24S11.2,0.9,24,0.9S47.1,11.2,47.1,24S36.8,47.1,24,47.1z"/>
	<path class="st1" d="M24,2.8C12.3,2.8,2.8,12.3,2.8,24S12.3,45.2,24,45.2c11.7,0,21.2-9.5,21.2-21.2S35.7,2.8,24,2.8z M24,41.1
		c-9.4,0-17.1-7.7-17.1-17.1c0-3.9,1.3-7.6,3.6-10.5l23.6,24.2C31.3,39.8,27.8,41.1,24,41.1z M37.5,34.5L13.9,10.2
		c2.8-2.1,6.3-3.3,10.1-3.3c9.4,0,17.1,7.7,17.1,17.1C41.1,27.9,39.7,31.6,37.5,34.5z"/>
	<path class="st1" d="M28.8,18.9v-8H18.1v2.6l12.3,12.7v-5.6C30.4,19.6,29.7,18.9,28.8,18.9z M22.3,14.7H20V13h2.3V14.7z M26.8,14.7
		h-2.3V13h2.3V14.7z"/>
	<path class="st1" d="M19.1,31.8h2V40c0.9,0.2,1.9,0.3,2.9,0.3c0.6,0,1.2,0,1.8-0.1v-8.5h1.4l-10.7-11v8.3
		C16.4,30.6,17.7,31.8,19.1,31.8z"/>
</g>
</svg>
