<?xml version="1.0" encoding="utf-8"?>
<!-- Generator: Adobe Illustrator 25.0.0, SVG Export Plug-In . SVG Version: 6.00 Build 0)  -->
<svg version="1.1" id="Fond" xmlns="http://www.w3.org/2000/svg" xmlns:xlink="http://www.w3.org/1999/xlink" x="0px" y="0px"
	 viewBox="0 0 48 48" style="enable-background:new 0 0 48 48;" xml:space="preserve">
<style type="text/css">
	.st0{fill:#00FF00;}
</style>
<path class="st0" d="M42,0L42,0H6C2.7,0,0,2.7,0,6v36c0,3.3,2.7,6,6,6h36c3.3,0,6-2.7,6-6V6C48,2.7,45.3,0,42,0z M4.5,4.5
	c0-1,0.8-1.9,1.9-1.9H11c1,0,1.9,0.8,1.9,1.9v4.6c0,1-0.8,1.9-1.9,1.9H6.4c-1,0-1.9-0.8-1.9-1.9V4.5z M6.4,21.2
	c-1,0-1.9-0.8-1.9-1.9v-4.6c0-1,0.8-1.9,1.9-1.9H11c1,0,1.9,0.8,1.9,1.9v4.6c0,1-0.8,1.9-1.9,1.9H6.4z M43.5,17.8c0,0.1,0,0.2,0,0.2
	c0,0,0,0,0,0v1.9c-0.2,0-0.5,0-0.7,0.1c-1,0.3-1.6,1.2-1.5,2.2c0.1,0.5-0.3,0.9-0.8,1h-0.1c-0.5,0.1-0.9-0.2-1-0.7L39,21.1h0
	c-0.2-0.8-0.9-1.4-1.7-1.5H37c-0.1,0-0.1,0-0.1,0c-0.1,0-0.2,0-0.4,0.1c-1.1,0.3-1.7,1.5-1.4,2.6c0.1,0.5-0.2,0.9-0.7,1.1
	c-0.5,0.1-0.9-0.1-1.1-0.5l-0.3-1c-0.3-1.1-1.4-1.7-2.5-1.4c-1.1,0.3-1.7,1.5-1.4,2.6c0.1,0.5-0.2,0.9-0.7,1.1
	c-0.5,0.1-0.9-0.1-1.1-0.5L23.6,11c-0.3-1.1-1.5-1.7-2.6-1.4c-1.1,0.3-1.7,1.5-1.4,2.6l6.4,22.1c0.1,0.3,0,0.6-0.2,0.9
	c-0.2,0.2-0.5,0.4-0.8,0.3c0,0-1.3-0.1-2.8-0.2c-1.5-0.1-3.4,0-4.1,0.2c-1.5,0.4-2.9,1.5-3.8,2.5c-0.9,1.1-1.2,2.2-1.1,2.5
	c0.2,0.7,0.3,1.1,0.5,1.5l4.9-1.4c0.1,0,0.3,0,0.4,0l11.5,2.1c0.1,0,0.3,0.1,0.4,0.1l1,0.7c0.4,0.3,0.5,0.9,0.2,1.3
	s-0.9,0.5-1.3,0.2l-0.8-0.6l-11.1-2l-5.5,1.6c-0.2,0.1-0.5,0-0.7-0.1s-0.4-0.3-0.4-0.6c0,0-0.4-1.3-0.7-2.4
	c-0.4-1.4,0.3-2.9,1.4-4.3c1.1-1.3,2.7-2.6,4.7-3.1c1.3-0.4,3.1-0.4,4.7-0.3c0.9,0,1.1,0.1,1.6,0.1l-1-3.3l-2.6-9h-3.7
	c-1,0-1.9-0.8-1.9-1.9v-4.6c0-1,0.8-1.9,1.9-1.9h1.3l0-0.1c-0.2-0.6-0.2-1.2-0.1-1.7h-1.2c-1,0-1.9-0.8-1.9-1.9V4.5
	c0-1,0.8-1.9,1.9-1.9h4.6c1,0,1.9,0.8,1.9,1.9V8c0.8,0.3,1.5,1,2,1.8c-0.1-0.2-0.1-0.4-0.1-0.6V4.5c0-1,0.8-1.9,1.9-1.9h4.6
	c1,0,1.9,0.8,1.9,1.9v4.6c0,1-0.8,1.9-1.9,1.9h-4.6c-0.6,0-1.2-0.3-1.5-0.8c0,0.1,0.1,0.2,0.1,0.3l0.7,2.5c0.2-0.1,0.4-0.1,0.7-0.1
	h4.6c1,0,1.9,0.8,1.9,1.9v4.5c0.2,0.1,0.3,0.3,0.5,0.4c0.4-0.6,0.8-1.1,1.5-1.4c0-0.1-0.1-0.3-0.1-0.5v-3.1c0-1,0.8-1.9,1.9-1.9h4.6
	c1,0,1.9,0.8,1.9,1.9V17.8z M43.5,9.2c0,1-0.8,1.9-1.9,1.9H37c-1,0-1.9-0.8-1.9-1.9V4.5c0-1,0.8-1.9,1.9-1.9h4.6
	c1,0,1.9,0.8,1.9,1.9V9.2z"/>
</svg>
