<?xml version="1.0" encoding="utf-8"?>
<!-- Generator: Adobe Illustrator 25.0.0, SVG Export Plug-In . SVG Version: 6.00 Build 0)  -->
<svg version="1.1" id="Fond" xmlns="http://www.w3.org/2000/svg" xmlns:xlink="http://www.w3.org/1999/xlink" x="0px" y="0px"
	 viewBox="0 0 48 48" style="enable-background:new 0 0 48 48;" xml:space="preserve">
<style type="text/css">
	.st0{fill:#00FF00;}
</style>
<g>
	<path class="st0" d="M43.2,23.1h-0.9c-1,0-1.7,0.7-1.7,1.7v1.7c0,1,0.7,1.7,1.7,1.7h0.9c0.5,0,0.9-0.4,0.9-0.9V24
		C44,23.5,43.6,23.1,43.2,23.1z"/>
	<path class="st0" d="M4.8,23.1C4.4,23.1,4,23.5,4,24v3.5c0,0.5,0.4,0.9,0.9,0.9h0.9c1,0,1.7-0.7,1.7-1.7v-1.7c0-1-0.7-1.7-1.7-1.7
		H4.8z"/>
	<path class="st0" d="M24,4c-3.9,0-7,3.1-7,7c0,2.3,1,4.2,2.6,5.4c0,0,0,0,0,0c2.2,0.6,3.7,1.2,4.4,1.4c0.6-0.3,2.2-0.8,4.4-1.4
		c0,0,0,0,0,0c1.6-1.2,2.6-3.2,2.6-5.4C31,7.1,27.9,4,24,4z"/>
	<path class="st0" d="M42,0L42,0H6C2.7,0,0,2.7,0,6v36c0,3.3,2.7,6,6,6h36c3.3,0,6-2.7,6-6V6C48,2.7,45.3,0,42,0z M45.8,27.5
		c0,1.4-1.2,2.6-2.6,2.6h-0.9c-1.9,0-3.5-1.6-3.5-3.5v-1.7c0-1.9,1.6-3.5,3.5-3.5v-5.2c-10.8,0.2-16.8,2.9-17.4,3.2v23.9
		c2.5-1.5,8.6-4.3,17.4-4.5V31H44v8.7c0,0.5-0.4,0.9-0.9,0.9c-11.6,0-18.1,4.6-18.6,5c0,0-0.1,0.1-0.1,0.1c0,0,0,0-0.1,0
		c-0.1,0.1-0.2,0.1-0.3,0.1c-0.1,0-0.1,0-0.2,0c0,0,0,0,0,0c0,0,0,0-0.1,0c0,0,0,0,0,0c0,0,0,0-0.1,0c0,0,0,0,0,0
		c-0.1,0-0.1,0-0.2-0.1c0,0,0,0,0,0c0,0-0.1-0.1-0.1-0.1c-0.4-0.3-6.9-5-18.6-5c-0.5,0-0.9-0.4-0.9-0.9V31h1.7v7.9
		c8.8,0.2,14.9,3,17.4,4.5V19.4c-0.6-0.3-6.6-3-17.4-3.2v5.2c1.9,0,3.5,1.6,3.5,3.5v1.7c0,1.9-1.6,3.5-3.5,3.5H4.8
		c-1.4,0-2.6-1.2-2.6-2.6V24c0-1.1,0.7-2.1,1.7-2.4v-6.3c0-0.5,0.3-0.8,0.8-0.9c0,0,0.1,0,0.1,0c4.7,0,8.7,0.5,11.8,1.1
		c-0.8-1.3-1.3-2.9-1.3-4.6c0-4.8,3.9-8.7,8.7-8.7s8.7,3.9,8.7,8.7c0,1.7-0.5,3.3-1.4,4.6c3.1-0.6,7.1-1.1,11.8-1.1
		c0.5,0,0.9,0.4,0.9,0.9v6.3c1,0.4,1.7,1.3,1.7,2.4V27.5z M39.6,36.9c0.1,0,0.2,0,0.2,0c0.1,0,0.1,0,0.2-0.1c0,0,0.1,0,0.1-0.1
		c0,0,0.1,0,0.2,0c0.1,0,0.2,0,0.3,0.1s0.1,0.1,0.2,0.2s0.1,0.2,0,0.3c0,0.1-0.1,0.2-0.1,0.3c-0.1,0.1-0.3,0.2-0.5,0.2
		c-0.2,0-0.4,0.1-0.6,0.1c-0.3,0-0.5,0-0.7-0.1c-0.2-0.1-0.4-0.2-0.6-0.4s-0.3-0.4-0.4-0.6c-0.1-0.2-0.2-0.5-0.2-0.7
		c0-0.3,0.1-0.5,0.2-0.7c0.1-0.2,0.2-0.4,0.4-0.6c0.2-0.2,0.4-0.3,0.6-0.4c0.2-0.1,0.5-0.2,0.7-0.2c0.3,0,0.5,0.1,0.7,0.2
		s0.4,0.2,0.6,0.4c0.2,0.2,0.3,0.4,0.4,0.6c0.1,0.2,0.2,0.5,0.2,0.7c0,0.1-0.1,0.3-0.2,0.4c-0.1,0.1-0.2,0.2-0.4,0.2h-2.1
		C39.1,36.7,39.3,36.9,39.6,36.9z M33.1,29c-0.3,0-0.6,0-0.9-0.1c-0.3-0.1-0.6-0.2-0.8-0.3c-0.6-0.3-1-0.7-1.4-1.3
		c-0.4-0.6-0.5-1.2-0.5-1.9v-2.9c0-0.5,0.1-0.9,0.3-1.4c0.2-0.4,0.5-0.8,0.8-1.2c0.3-0.3,0.7-0.6,1.2-0.8c0.4-0.2,0.9-0.3,1.4-0.3
		c0.6,0,1.2,0.2,1.8,0.5c0.6,0.3,1,0.8,1.4,1.4c0,0,0,0,0,0c0.1,0.2,0.1,0.3,0.1,0.5c0,0.3-0.1,0.6-0.3,0.8
		c-0.2,0.2-0.5,0.3-0.8,0.3c-0.2,0-0.4-0.1-0.6-0.2c-0.2-0.1-0.3-0.2-0.4-0.4c-0.2-0.2-0.3-0.4-0.6-0.6s-0.5-0.2-0.8-0.2
		c-0.2,0-0.4,0-0.6,0.1c-0.2,0.1-0.3,0.2-0.5,0.3c-0.1,0.1-0.2,0.3-0.3,0.5c-0.1,0.2-0.1,0.4-0.1,0.6v2.9c0,0.2,0,0.4,0.1,0.6
		c0.1,0.2,0.2,0.3,0.3,0.5c0.1,0.1,0.3,0.2,0.5,0.3c0.2,0.1,0.4,0.1,0.6,0.1c0.2,0,0.4,0,0.6-0.1c0.2-0.1,0.3-0.2,0.5-0.3
		s0.2-0.3,0.3-0.5s0.1-0.4,0.1-0.6c-0.3,0-0.6-0.1-0.8-0.3s-0.3-0.5-0.3-0.8c0-0.3,0.1-0.5,0.3-0.7c0.2-0.2,0.5-0.3,0.8-0.3h1.1
		c0.3,0,0.6,0.1,0.8,0.3c0.2,0.2,0.3,0.4,0.3,0.7v1.1c0,0.7-0.2,1.3-0.5,1.9c-0.4,0.6-0.8,1-1.4,1.3c-0.2,0.1-0.5,0.2-0.8,0.3
		C33.8,29,33.5,29,33.1,29z M33.2,36c0,0.3-0.1,0.5-0.2,0.7c-0.1,0.2-0.2,0.4-0.4,0.6c-0.2,0.2-0.4,0.3-0.6,0.4
		c-0.2,0.1-0.5,0.2-0.8,0.2c-0.3,0-0.5,0-0.8-0.1c-0.2-0.1-0.4-0.2-0.6-0.4c-0.2-0.2-0.3-0.4-0.4-0.6c-0.1-0.2-0.2-0.5-0.2-0.8
		c0-0.3,0-0.5,0.1-0.7c0.1-0.2,0.2-0.4,0.4-0.6c0.2-0.2,0.4-0.3,0.6-0.4c0.2-0.1,0.5-0.2,0.8-0.2c0.3,0,0.5,0.1,0.7,0.2
		s0.4,0.2,0.6,0.4c0.2,0.2,0.3,0.4,0.4,0.6C33.1,35.5,33.2,35.8,33.2,36z M33.6,35.2c0.1-0.2,0.2-0.4,0.4-0.6s0.4-0.3,0.6-0.4
		c0.2-0.1,0.5-0.2,0.7-0.2c0.3,0,0.6,0.1,0.9,0.2v-0.9c0-0.1,0-0.1,0-0.2c0-0.1,0.1-0.1,0.1-0.2c0,0,0.1-0.1,0.2-0.1
		c0.1,0,0.1,0,0.2,0c0.1,0,0.3,0,0.4,0.1c0.1,0.1,0.2,0.2,0.2,0.4V36c0,0.3-0.1,0.5-0.2,0.7c-0.1,0.2-0.2,0.4-0.4,0.6
		c-0.2,0.2-0.4,0.3-0.6,0.4c-0.2,0.1-0.5,0.2-0.7,0.2s-0.5-0.1-0.7-0.2c-0.2-0.1-0.4-0.2-0.6-0.4c-0.2-0.2-0.3-0.4-0.4-0.6
		c-0.1-0.2-0.2-0.5-0.2-0.8C33.4,35.7,33.5,35.4,33.6,35.2z M26.6,36.3c0,0.1,0.1,0.2,0.2,0.3c0.1,0.1,0.2,0.1,0.3,0.2
		c0.1,0,0.2,0.1,0.3,0.1c0.2,0,0.4-0.1,0.6-0.2c0.1-0.1,0.2-0.2,0.4-0.2s0.3,0.1,0.4,0.2c0,0,0.1,0.1,0.1,0.2c0,0.1,0,0.1,0,0.2
		c0,0.1,0,0.1,0,0.2c0,0.1-0.1,0.1-0.1,0.2c-0.2,0.2-0.4,0.3-0.6,0.4c-0.2,0.1-0.5,0.1-0.7,0.1c-0.3,0-0.5-0.1-0.8-0.2
		c-0.2-0.1-0.4-0.2-0.6-0.4c-0.2-0.2-0.3-0.4-0.4-0.6c-0.1-0.2-0.2-0.5-0.2-0.7c0-0.3,0.1-0.5,0.2-0.7c0.1-0.2,0.2-0.4,0.4-0.6
		c0.2-0.2,0.4-0.3,0.6-0.4s0.5-0.2,0.7-0.2c0.5,0,1,0.2,1.4,0.6c0.1,0.1,0.1,0.2,0.1,0.4c0,0.1-0.1,0.3-0.2,0.3
		c-0.1,0.1-0.2,0.1-0.4,0.1c-0.1,0-0.3,0-0.4-0.1c-0.2-0.1-0.4-0.2-0.6-0.2c-0.1,0-0.2,0-0.3,0.1s-0.2,0.1-0.3,0.2
		c-0.1,0.1-0.1,0.2-0.2,0.3s-0.1,0.2-0.1,0.3C26.6,36.1,26.6,36.2,26.6,36.3z"/>
	<path class="st0" d="M32.1,36.4c0,0.1-0.1,0.2-0.2,0.3s-0.2,0.1-0.3,0.2c-0.1,0-0.2,0.1-0.3,0.1c-0.1,0-0.2,0-0.3-0.1
		s-0.2-0.1-0.3-0.2s-0.1-0.2-0.2-0.3c0-0.1-0.1-0.2-0.1-0.3c0-0.1,0-0.2,0.1-0.4c0-0.1,0.1-0.2,0.2-0.3s0.2-0.1,0.3-0.2
		c0.1,0,0.2-0.1,0.3-0.1c0.3,0,0.5,0.1,0.6,0.3c0.2,0.2,0.3,0.4,0.3,0.6C32.1,36.2,32.1,36.3,32.1,36.4z"/>
	<path class="st0" d="M36.2,36.3c0,0.1-0.1,0.2-0.2,0.3s-0.2,0.1-0.3,0.2c-0.1,0-0.2,0.1-0.3,0.1c-0.1,0-0.2,0-0.3-0.1
		c-0.1,0-0.2-0.1-0.3-0.2s-0.1-0.2-0.2-0.3c0-0.1-0.1-0.2-0.1-0.3c0-0.1,0-0.2,0.1-0.3c0-0.1,0.1-0.2,0.2-0.3
		c0.1-0.1,0.2-0.1,0.3-0.2s0.2-0.1,0.3-0.1c0.1,0,0.2,0,0.3,0.1c0.1,0,0.2,0.1,0.3,0.2c0.1,0.1,0.1,0.2,0.2,0.3s0.1,0.2,0.1,0.4
		C36.3,36.1,36.2,36.2,36.2,36.3z"/>
	<path class="st0" d="M38.9,35.4c0.1-0.1,0.2-0.2,0.3-0.3c0.1-0.1,0.3-0.1,0.4-0.1c0.1,0,0.3,0,0.4,0.1c0.1,0.1,0.2,0.2,0.3,0.3
		H38.9z"/>
</g>
</svg>
