<?xml version="1.0" encoding="utf-8"?>
<!-- Generator: Adobe Illustrator 25.0.0, SVG Export Plug-In . SVG Version: 6.00 Build 0)  -->
<svg version="1.1" id="Fond" xmlns="http://www.w3.org/2000/svg" xmlns:xlink="http://www.w3.org/1999/xlink" x="0px" y="0px"
	 viewBox="0 0 48 48" style="enable-background:new 0 0 48 48;" xml:space="preserve">
<style type="text/css">
	.st0{display:none;}
	.st1{display:inline;fill:#FFFFFF;}
	.st2{display:inline;}
	.st3{fill:#FFFFFF;}
	.st4{fill:#00FF00;}
</style>
<g class="st0">
	<path class="st1" d="M25.8,27.5c0-6.4,0-22.3,0-22.3c0-1-0.8-1.9-1.9-1.9c0,0,0,0-0.1,0c-1,0-1.9,0.9-1.9,1.9l0,25c0,0,0,1.1,0,2.2
		c0.9,0.5,20,11.7,20,11.7c0.1,0,0.1,0.1,0.2,0.1c0.9,0.4,2.1,0.1,2.5-0.9s0.1-2-0.9-2.5l-18-10.6C25.8,30.1,25.8,29.1,25.8,27.5z"
		/>
	<g class="st2">
		<path class="st3" d="M9.2,34.4c0.2,0.2,0.4,0.4,0.4,0.6s0,0.5-0.2,0.7l-2.2,3.1V42c0,0.3-0.1,0.5-0.3,0.7
			c-0.2,0.2-0.4,0.3-0.7,0.3c-0.3,0-0.5-0.1-0.7-0.3c-0.2-0.2-0.3-0.4-0.3-0.7v-3.2l-2.2-3.1C3,35.5,2.9,35.2,3,35s0.2-0.4,0.4-0.6
			c0.2-0.1,0.4-0.2,0.7-0.2c0.3,0,0.5,0.2,0.6,0.4L6.3,37l1.6-2.3c0.1-0.2,0.4-0.4,0.6-0.4S9,34.3,9.2,34.4z"/>
		<path class="st3" d="M15.6,36.9c0,0.2-0.1,0.5-0.3,0.6s-0.4,0.3-0.6,0.3h-3.4c-0.3,0-0.5-0.1-0.7-0.3s-0.3-0.4-0.3-0.6
			s0.1-0.5,0.3-0.6c0.2-0.2,0.4-0.3,0.7-0.3h3.4c0.3,0,0.5,0.1,0.6,0.3C15.5,36.5,15.6,36.7,15.6,36.9z M15.6,39.3
			c0,0.2-0.1,0.5-0.3,0.6s-0.4,0.3-0.6,0.3h-3.4c-0.3,0-0.5-0.1-0.7-0.3s-0.3-0.4-0.3-0.6s0.1-0.5,0.3-0.6s0.4-0.3,0.7-0.3h3.4
			c0.3,0,0.5,0.1,0.6,0.3S15.6,39,15.6,39.3z"/>
		<path class="st3" d="M19.2,34.2c0.4,0,0.8,0.1,1.1,0.2s0.6,0.3,0.9,0.6s0.5,0.5,0.6,0.9c0.1,0.3,0.2,0.7,0.2,1.1v3.2
			c0,0.4-0.1,0.7-0.2,1.1c-0.1,0.3-0.3,0.6-0.6,0.9s-0.5,0.4-0.9,0.6s-0.7,0.2-1.1,0.2s-0.8-0.1-1.1-0.2s-0.6-0.3-0.9-0.6
			c-0.3-0.2-0.5-0.5-0.6-0.9c-0.1-0.3-0.2-0.7-0.2-1.1v-3.2c0-0.4,0.1-0.7,0.2-1.1c0.1-0.3,0.3-0.6,0.6-0.9c0.3-0.3,0.6-0.4,0.9-0.6
			S18.8,34.2,19.2,34.2z M20.1,36.9c0-0.3-0.1-0.5-0.3-0.7c-0.2-0.2-0.4-0.3-0.7-0.3s-0.5,0.1-0.7,0.3c-0.2,0.2-0.3,0.4-0.3,0.7v3.2
			c0,0.3,0.1,0.5,0.3,0.7c0.2,0.2,0.4,0.3,0.7,0.3s0.5-0.1,0.7-0.3c0.2-0.2,0.3-0.4,0.3-0.7V36.9z"/>
	</g>
</g>
<g class="st0">
	<path class="st1" d="M22.1,26.8c0-6.2,0-21.7,0-21.7c0-1,0.8-1.8,1.8-1.8c0,0,0,0,0.1,0c1,0,1.8,0.8,1.8,1.8v24.3c0,0,0,1.1,0,2.1
		c-0.9,0.5-19,11.4-19,11.4c0,0-0.1,0.1-0.1,0.1c-0.9,0.4-2,0.1-2.4-0.8s-0.1-2,0.8-2.4l17.1-10.3C22.1,29.4,22.1,28.4,22.1,26.8z"
		/>
	<g class="st2">
		<path class="st3" d="M31.9,41.1c0,0.2-0.2,0.4-0.4,0.6c-0.2,0.2-0.4,0.2-0.7,0.2c-0.2,0-0.4-0.2-0.6-0.4l-1.6-2.3l-1.6,2.3
			c-0.1,0.2-0.3,0.3-0.6,0.4s-0.5,0-0.7-0.2c-0.1-0.1-0.2-0.2-0.3-0.3s-0.1-0.2-0.1-0.3c0-0.1,0-0.2,0-0.3c0-0.1,0.1-0.2,0.1-0.3
			l2-2.8l-2-2.8c-0.2-0.2-0.2-0.4-0.2-0.7s0.2-0.4,0.4-0.6c0.2-0.1,0.4-0.2,0.7-0.1c0.2,0,0.4,0.2,0.6,0.4l1.6,2.3l1.6-2.3
			c0.2-0.2,0.3-0.3,0.6-0.4c0.2,0,0.5,0,0.7,0.1c0.2,0.2,0.3,0.3,0.4,0.6s0,0.5-0.2,0.7l-2,2.8l2,2.8C31.9,40.6,32,40.9,31.9,41.1z"
			/>
		<path class="st3" d="M37.8,36c0,0.2-0.1,0.4-0.3,0.6c-0.2,0.2-0.4,0.3-0.6,0.3h-3.3c-0.2,0-0.5-0.1-0.6-0.3
			c-0.2-0.2-0.3-0.4-0.3-0.6s0.1-0.4,0.3-0.6c0.2-0.2,0.4-0.3,0.6-0.3h3.3c0.2,0,0.4,0.1,0.6,0.3C37.7,35.6,37.8,35.8,37.8,36z
			 M37.8,38.3c0,0.2-0.1,0.4-0.3,0.6c-0.2,0.2-0.4,0.3-0.6,0.3h-3.3c-0.2,0-0.5-0.1-0.6-0.3c-0.2-0.2-0.3-0.4-0.3-0.6
			c0-0.2,0.1-0.4,0.3-0.6c0.2-0.2,0.4-0.3,0.6-0.3h3.3c0.2,0,0.4,0.1,0.6,0.3C37.7,37.9,37.8,38.1,37.8,38.3z"/>
		<path class="st3" d="M41.2,33.4c0.4,0,0.7,0.1,1,0.2c0.3,0.1,0.6,0.3,0.8,0.6c0.2,0.2,0.4,0.5,0.6,0.9c0.1,0.3,0.2,0.7,0.2,1v3.2
			c0,0.4-0.1,0.7-0.2,1c-0.1,0.3-0.3,0.6-0.6,0.8s-0.5,0.4-0.8,0.6c-0.3,0.1-0.7,0.2-1,0.2c-0.4,0-0.7-0.1-1-0.2
			c-0.3-0.1-0.6-0.3-0.9-0.6c-0.2-0.2-0.4-0.5-0.6-0.8c-0.1-0.3-0.2-0.7-0.2-1V36c0-0.4,0.1-0.7,0.2-1c0.1-0.3,0.3-0.6,0.6-0.9
			c0.2-0.2,0.5-0.4,0.9-0.6C40.4,33.4,40.8,33.4,41.2,33.4z M42.1,36c0-0.3-0.1-0.5-0.3-0.7c-0.2-0.2-0.4-0.3-0.6-0.3
			c-0.3,0-0.5,0.1-0.7,0.3c-0.2,0.2-0.3,0.4-0.3,0.7v3.2c0,0.3,0.1,0.5,0.3,0.7c0.2,0.2,0.4,0.3,0.7,0.3c0.3,0,0.5-0.1,0.6-0.3
			c0.2-0.2,0.3-0.4,0.3-0.7V36z"/>
	</g>
</g>
<g>
	<path class="st4" d="M30.2,27c0.3,0,0.5-0.1,0.7-0.3c0.2-0.2,0.3-0.4,0.3-0.7v-3.3c0-0.3-0.1-0.5-0.3-0.7c-0.2-0.2-0.4-0.3-0.7-0.3
		s-0.5,0.1-0.7,0.3c-0.2,0.2-0.3,0.4-0.3,0.7v3.3c0,0.3,0.1,0.5,0.3,0.7C29.7,26.9,29.9,27,30.2,27z"/>
	<path class="st4" d="M42,0L42,0H6C2.7,0,0,2.7,0,6v36c0,3.3,2.7,6,6,6h36c3.3,0,6-2.7,6-6V6C48,2.7,45.3,0,42,0z M27.4,22.8
		c0-0.4,0.1-0.8,0.2-1.1c0.1-0.3,0.3-0.6,0.6-0.9s0.6-0.5,0.9-0.6c0.3-0.1,0.7-0.2,1.1-0.2s0.8,0.1,1.1,0.2c0.3,0.1,0.6,0.3,0.9,0.6
		c0.3,0.3,0.5,0.6,0.6,0.9c0.1,0.3,0.2,0.7,0.2,1.1v3.3c0,0.4-0.1,0.8-0.2,1.1c-0.1,0.3-0.3,0.6-0.6,0.9c-0.3,0.3-0.5,0.5-0.9,0.6
		c-0.3,0.1-0.7,0.2-1.1,0.2s-0.8-0.1-1.1-0.2c-0.3-0.1-0.6-0.3-0.9-0.6c-0.3-0.3-0.5-0.5-0.6-0.9c-0.1-0.3-0.2-0.7-0.2-1.1V22.8z
		 M21.6,22.1c0.2-0.2,0.4-0.3,0.7-0.3h3.4c0.3,0,0.5,0.1,0.6,0.3c0.2,0.2,0.3,0.4,0.3,0.6s-0.1,0.5-0.3,0.6
		c-0.2,0.2-0.4,0.3-0.6,0.3h-3.4c-0.3,0-0.5-0.1-0.7-0.3c-0.2-0.2-0.3-0.4-0.3-0.6S21.4,22.3,21.6,22.1z M21.6,24.5
		c0.2-0.2,0.4-0.3,0.7-0.3h3.4c0.3,0,0.5,0.1,0.6,0.3s0.3,0.4,0.3,0.6s-0.1,0.5-0.3,0.6s-0.4,0.3-0.6,0.3h-3.4
		c-0.3,0-0.5-0.1-0.7-0.3c-0.2-0.2-0.3-0.4-0.3-0.6S21.4,24.7,21.6,24.5z M14.3,20.2c0.2-0.2,0.4-0.3,0.7-0.3h4.5
		c0.2,0,0.3,0.1,0.5,0.2c0.1,0.1,0.3,0.2,0.3,0.4c0.1,0.1,0.1,0.3,0.1,0.5c0,0.2-0.1,0.3-0.2,0.5L16.7,27h2.7c0.3,0,0.5,0.1,0.7,0.3
		c0.2,0.2,0.3,0.4,0.3,0.7c0,0.3-0.1,0.5-0.3,0.7c-0.2,0.2-0.4,0.3-0.7,0.3H15c-0.2,0-0.3-0.1-0.5-0.1s-0.2-0.2-0.3-0.3
		c-0.1-0.1-0.1-0.3-0.1-0.5c0-0.2,0-0.3,0.1-0.5l0,0l3.5-5.6H15c-0.3,0-0.5-0.1-0.7-0.3c-0.2-0.2-0.3-0.4-0.3-0.7
		C14,20.7,14.1,20.4,14.3,20.2z M44.6,43.5c-0.5,0.8-1.6,1.1-2.4,0.6c0,0-18.3-10-18.3-10C23.6,34.2,5.6,44,5.6,44
		c0,0-0.1,0.1-0.1,0.1c-0.9,0.4-1.9,0.1-2.3-0.8c-0.4-0.9-0.1-1.9,0.8-2.3l18.2-9.9c0,0,0.9-0.5,1.7-0.9c0.9,0.5,1.7,0.9,1.7,0.9
		L43.8,41c0,0,0.1,0,0.1,0.1C44.8,41.6,45,42.6,44.6,43.5z"/>
</g>
</svg>
